<svg xmlns="http://www.w3.org/2000/svg" xmlns:xlink="http://www.w3.org/1999/xlink" width="200" zoomAndPan="magnify" viewBox="0 13 375 374.999991" height="200" preserveAspectRatio="xMidYMid meet" version="1.0"><defs><g/><clipPath id="7b3578494d"><path d="M 7.796875 192.054688 L 13.796875 192.054688 L 13.796875 232 L 7.796875 232 Z M 7.796875 192.054688 " clip-rule="nonzero"/></clipPath><clipPath id="3b3e41f20b"><path d="M 8 229 L 13 229 L 13 233.304688 L 8 233.304688 Z M 8 229 " clip-rule="nonzero"/></clipPath><clipPath id="c6ba8177c8"><path d="M 12 180 L 31 180 L 31 203 L 12 203 Z M 12 180 " clip-rule="nonzero"/></clipPath><clipPath id="982586bbd7"><path d="M 14.214844 180.09375 L 32.726562 183.089844 L 29.371094 203.820312 L 10.859375 200.824219 Z M 14.214844 180.09375 " clip-rule="nonzero"/></clipPath><clipPath id="69b07b675f"><path d="M 14.214844 180.09375 L 32.726562 183.089844 L 29.371094 203.820312 L 10.859375 200.824219 Z M 14.214844 180.09375 " clip-rule="nonzero"/></clipPath></defs><rect x="-37.5" width="450" fill="#ffffff" y="-37.499999" height="449.999989" fill-opacity="1"/><rect x="-37.5" width="450" fill="#ffffff" y="-37.499999" height="449.999989" fill-opacity="1"/><rect x="-37.5" width="450" fill="#ffffff" y="-37.499999" height="449.999989" fill-opacity="1"/><g clip-path="url(#7b3578494d)"><path fill="#7ed957" d="M 7.96875 192.503906 C 9.230469 194.945312 9.519531 197.792969 9.585938 200.5 C 9.664062 203.414062 9.472656 206.324219 9.207031 209.222656 C 8.929688 212.152344 8.589844 215.074219 8.382812 218.015625 C 8.285156 219.476562 8.226562 220.949219 8.21875 222.417969 C 8.207031 223.796875 8.199219 225.191406 8.367188 226.570312 C 8.53125 227.957031 8.921875 229.34375 9.878906 230.40625 C 10.71875 231.335938 11.996094 232.007812 13.265625 231.753906 C 13.796875 231.644531 13.671875 230.8125 13.140625 230.8125 C 12.011719 230.820312 11.058594 230.382812 10.34375 229.511719 C 9.539062 228.53125 9.253906 227.21875 9.105469 225.996094 C 8.78125 223.222656 8.890625 220.398438 9.082031 217.617188 C 9.480469 211.96875 10.402344 206.339844 10.203125 200.667969 C 10.109375 197.777344 9.777344 194.851562 8.25 192.335938 C 8.140625 192.15625 7.867188 192.3125 7.96875 192.503906 Z M 7.96875 192.503906 " fill-opacity="1" fill-rule="nonzero"/></g><path fill="#7ed957" d="M 9.8125 193.597656 C 10.71875 196.074219 10.933594 198.632812 10.949219 201.25 C 10.949219 201.390625 11.191406 201.4375 11.207031 201.28125 C 11.597656 198.664062 10.972656 195.941406 9.917969 193.542969 C 9.894531 193.492188 9.785156 193.53125 9.8125 193.597656 Z M 9.8125 193.597656 " fill-opacity="1" fill-rule="nonzero"/><g clip-path="url(#3b3e41f20b)"><path fill="#7ed957" d="M 8.359375 229.433594 C 8.492188 230.390625 8.949219 231.269531 9.636719 231.933594 C 9.984375 232.273438 10.382812 232.566406 10.824219 232.765625 C 11.171875 232.929688 11.796875 233.238281 12.152344 232.988281 C 12.320312 232.875 12.34375 232.675781 12.210938 232.523438 C 11.972656 232.242188 11.421875 232.285156 11.074219 232.167969 C 10.675781 232.035156 10.300781 231.84375 9.960938 231.601562 C 9.222656 231.0625 8.683594 230.289062 8.441406 229.410156 C 8.433594 229.351562 8.351562 229.375 8.359375 229.433594 Z M 8.359375 229.433594 " fill-opacity="1" fill-rule="nonzero"/></g><g clip-path="url(#c6ba8177c8)"><g clip-path="url(#982586bbd7)"><g clip-path="url(#69b07b675f)"><path fill="#7ed957" d="M 30.140625 200.824219 C 29.367188 201.472656 28.464844 201.679688 27.464844 201.722656 C 25.070312 201.828125 22.675781 202.019531 20.28125 202.132812 C 19.488281 202.164062 18.695312 202.136719 17.910156 202.054688 C 17.191406 201.980469 16.765625 201.535156 16.738281 200.980469 C 16.714844 200.402344 17.132812 199.875 17.882812 199.808594 C 19.121094 199.699219 20.363281 199.703125 21.605469 199.644531 C 23.488281 199.558594 25.367188 199.417969 27.242188 199.382812 C 28.332031 199.355469 29.359375 199.675781 30.195312 200.441406 Z M 18.246094 180.746094 C 17.386719 181.09375 16.65625 181.621094 16.226562 182.441406 C 15.113281 184.566406 14.035156 186.707031 12.980469 188.871094 C 12.773438 189.292969 12.664062 189.761719 12.652344 190.230469 C 12.644531 190.542969 12.839844 191.007812 13.074219 191.117188 C 13.351562 191.242188 13.792969 191.105469 14.125 190.984375 C 14.316406 190.914062 14.472656 190.671875 14.597656 190.472656 C 16.054688 188.117188 17.488281 185.746094 18.371094 183.105469 C 18.609375 182.398438 18.46875 181.566406 18.5 180.789062 Z M 25.632812 188.289062 C 23.382812 189.25 21.113281 190.152344 19.160156 191.691406 C 18.695312 192.058594 18.128906 192.300781 17.632812 192.632812 C 17.195312 192.929688 16.738281 193.226562 16.375 193.609375 C 16.042969 193.945312 15.953125 194.417969 16.273438 194.847656 C 16.578125 195.25 17.023438 195.285156 17.441406 195.113281 C 18.332031 194.753906 19.25 194.414062 20.074219 193.933594 C 21.71875 192.960938 23.308594 191.90625 24.910156 190.875 C 25.539062 190.46875 26.171875 190.058594 26.785156 189.628906 C 27.261719 189.292969 27.667969 188.886719 27.710938 188.210938 C 26.984375 187.898438 26.292969 188.003906 25.632812 188.289062 Z M 25.632812 188.289062 " fill-opacity="1" fill-rule="nonzero"/></g></g></g><g fill="#00bf63" fill-opacity="1"><g transform="translate(33.299737, 227.238943)"><g><path d="M 23.875 -6.015625 L 10.765625 -6.015625 L 8.328125 0 L -0.625 0 L 13.0625 -31 L 21.703125 -31 L 35.421875 0 L 26.296875 0 Z M 21.296875 -12.484375 L 17.3125 -22.40625 L 13.328125 -12.484375 Z M 21.296875 -12.484375 "/></g></g></g><g fill="#00bf63" fill-opacity="1"><g transform="translate(68.107794, 227.238943)"><g><path d="M 16.65625 -8.234375 L 11.875 -8.234375 L 11.875 0 L 3.09375 0 L 3.09375 -31 L 17.265625 -31 C 20.066406 -31 22.5 -30.53125 24.5625 -29.59375 C 26.632812 -28.664062 28.234375 -27.335938 29.359375 -25.609375 C 30.484375 -23.890625 31.046875 -21.863281 31.046875 -19.53125 C 31.046875 -17.28125 30.519531 -15.320312 29.46875 -13.65625 C 28.414062 -11.988281 26.914062 -10.679688 24.96875 -9.734375 L 31.65625 0 L 22.28125 0 Z M 22.1875 -19.53125 C 22.1875 -20.976562 21.726562 -22.097656 20.8125 -22.890625 C 19.894531 -23.691406 18.535156 -24.09375 16.734375 -24.09375 L 11.875 -24.09375 L 11.875 -15.015625 L 16.734375 -15.015625 C 18.535156 -15.015625 19.894531 -15.40625 20.8125 -16.1875 C 21.726562 -16.96875 22.1875 -18.082031 22.1875 -19.53125 Z M 22.1875 -19.53125 "/></g></g></g><g fill="#00bf63" fill-opacity="1"><g transform="translate(100.878734, 227.238943)"><g><path d="M 9.703125 -24.046875 L 0.171875 -24.046875 L 0.171875 -31 L 27.9375 -31 L 27.9375 -24.046875 L 18.46875 -24.046875 L 18.46875 0 L 9.703125 0 Z M 9.703125 -24.046875 "/></g></g></g><g fill="#00bf63" fill-opacity="1"><g transform="translate(128.999754, 227.238943)"><g><path d="M 3.09375 -31 L 11.875 -31 L 11.875 0 L 3.09375 0 Z M 3.09375 -31 "/></g></g></g><g fill="#7ed957" fill-opacity="1"><g transform="translate(157.153017, 229.572465)"><g><path d="M 14.171875 -31.015625 C 18.160156 -31.015625 21.753906 -29.960938 24.953125 -27.859375 L 22.796875 -23.28125 C 19.648438 -25.1875 16.640625 -26.140625 13.765625 -26.140625 C 12.210938 -26.140625 10.988281 -25.859375 10.09375 -25.296875 C 9.195312 -24.742188 8.75 -23.953125 8.75 -22.921875 C 8.75 -21.898438 9.160156 -21.03125 9.984375 -20.3125 C 10.804688 -19.59375 11.832031 -19.0625 13.0625 -18.71875 C 14.300781 -18.382812 15.640625 -17.957031 17.078125 -17.4375 C 18.515625 -16.925781 19.847656 -16.382812 21.078125 -15.8125 C 22.304688 -15.238281 23.320312 -14.34375 24.125 -13.125 C 24.9375 -11.914062 25.34375 -10.445312 25.34375 -8.71875 C 25.34375 -6.007812 24.265625 -3.847656 22.109375 -2.234375 C 19.953125 -0.628906 17.160156 0.171875 13.734375 0.171875 C 11.378906 0.171875 9.101562 -0.265625 6.90625 -1.140625 C 4.707031 -2.023438 2.785156 -3.210938 1.140625 -4.703125 L 3.390625 -9.203125 C 4.941406 -7.765625 6.648438 -6.65625 8.515625 -5.875 C 10.378906 -5.09375 12.144531 -4.703125 13.8125 -4.703125 C 15.632812 -4.703125 17.050781 -5.03125 18.0625 -5.6875 C 19.070312 -6.351562 19.578125 -7.273438 19.578125 -8.453125 C 19.578125 -9.503906 19.164062 -10.390625 18.34375 -11.109375 C 17.519531 -11.828125 16.492188 -12.351562 15.265625 -12.6875 C 14.035156 -13.03125 12.703125 -13.441406 11.265625 -13.921875 C 9.828125 -14.410156 8.488281 -14.925781 7.25 -15.46875 C 6.019531 -16.007812 4.992188 -16.878906 4.171875 -18.078125 C 3.359375 -19.285156 2.953125 -20.738281 2.953125 -22.4375 C 2.953125 -25.050781 3.976562 -27.132812 6.03125 -28.6875 C 8.082031 -30.238281 10.796875 -31.015625 14.171875 -31.015625 Z M 14.171875 -31.015625 "/></g></g></g><g fill="#7ed957" fill-opacity="1"><g transform="translate(184.516136, 229.572465)"><g><path d="M 4.53125 -39.703125 C 5.09375 -40.273438 5.796875 -40.5625 6.640625 -40.5625 C 7.492188 -40.5625 8.195312 -40.273438 8.75 -39.703125 C 9.3125 -39.140625 9.59375 -38.398438 9.59375 -37.484375 C 9.59375 -36.609375 9.3125 -35.882812 8.75 -35.3125 C 8.195312 -34.738281 7.492188 -34.453125 6.640625 -34.453125 C 5.796875 -34.453125 5.09375 -34.738281 4.53125 -35.3125 C 3.976562 -35.882812 3.703125 -36.609375 3.703125 -37.484375 C 3.703125 -38.398438 3.976562 -39.140625 4.53125 -39.703125 Z M 9.234375 0 L 4.046875 0 L 4.046875 -30.796875 L 9.234375 -30.796875 Z M 9.234375 0 "/></g></g></g><g fill="#7ed957" fill-opacity="1"><g transform="translate(197.801764, 229.572465)"><g><path d="M 25.125 -15.140625 L 29.65625 -15.140625 L 29.65625 -3.78125 C 28.070312 -2.582031 26.203125 -1.613281 24.046875 -0.875 C 21.890625 -0.144531 19.769531 0.21875 17.6875 0.21875 C 13.144531 0.21875 9.3125 -1.28125 6.1875 -4.28125 C 3.0625 -7.289062 1.5 -10.992188 1.5 -15.390625 C 1.5 -19.796875 3.082031 -23.488281 6.25 -26.46875 C 9.414062 -29.445312 13.332031 -30.9375 18 -30.9375 C 20.164062 -30.9375 22.296875 -30.546875 24.390625 -29.765625 C 26.492188 -28.984375 28.304688 -27.9375 29.828125 -26.625 L 26.890625 -22.796875 C 24.359375 -25.140625 21.394531 -26.3125 18 -26.3125 C 14.851562 -26.3125 12.195312 -25.253906 10.03125 -23.140625 C 7.863281 -21.023438 6.78125 -18.445312 6.78125 -15.40625 C 6.78125 -12.320312 7.867188 -9.722656 10.046875 -7.609375 C 12.234375 -5.492188 14.898438 -4.4375 18.046875 -4.4375 C 20.421875 -4.4375 22.78125 -5.144531 25.125 -6.5625 Z M 25.125 -15.140625 "/></g></g></g><g fill="#7ed957" fill-opacity="1"><g transform="translate(230.751888, 229.572465)"><g><path d="M 6.203125 -26.46875 C 9.335938 -29.445312 13.207031 -30.9375 17.8125 -30.9375 C 22.425781 -30.9375 26.300781 -29.445312 29.4375 -26.46875 C 32.570312 -23.488281 34.140625 -19.796875 34.140625 -15.390625 C 34.140625 -10.992188 32.570312 -7.289062 29.4375 -4.28125 C 26.300781 -1.28125 22.425781 0.21875 17.8125 0.21875 C 13.207031 0.21875 9.335938 -1.28125 6.203125 -4.28125 C 3.066406 -7.289062 1.5 -10.992188 1.5 -15.390625 C 1.5 -19.796875 3.066406 -23.488281 6.203125 -26.46875 Z M 17.859375 -26.265625 C 14.804688 -26.265625 12.195312 -25.210938 10.03125 -23.109375 C 7.863281 -21.015625 6.78125 -18.441406 6.78125 -15.390625 C 6.78125 -12.347656 7.867188 -9.757812 10.046875 -7.625 C 12.234375 -5.5 14.835938 -4.4375 17.859375 -4.4375 C 20.878906 -4.4375 23.457031 -5.5 25.59375 -7.625 C 27.738281 -9.757812 28.8125 -12.347656 28.8125 -15.390625 C 28.8125 -18.441406 27.738281 -21.015625 25.59375 -23.109375 C 23.457031 -25.210938 20.878906 -26.265625 17.859375 -26.265625 Z M 17.859375 -26.265625 "/></g></g></g><g fill="#7ed957" fill-opacity="1"><g transform="translate(266.385538, 229.572465)"><g><path d="M 23.578125 0 L 17.953125 -9.328125 C 17.660156 -9.296875 17.191406 -9.28125 16.546875 -9.28125 L 9.234375 -9.28125 L 9.234375 0 L 4.046875 0 L 4.046875 -30.796875 L 16.546875 -30.796875 C 20.472656 -30.796875 23.519531 -29.878906 25.6875 -28.046875 C 27.863281 -26.210938 28.953125 -23.625 28.953125 -20.28125 C 28.953125 -17.820312 28.398438 -15.738281 27.296875 -14.03125 C 26.203125 -12.332031 24.628906 -11.085938 22.578125 -10.296875 L 29.484375 0 Z M 9.234375 -13.953125 L 16.546875 -13.953125 C 21.535156 -13.953125 24.03125 -16.019531 24.03125 -20.15625 C 24.03125 -24.144531 21.535156 -26.140625 16.546875 -26.140625 L 9.234375 -26.140625 Z M 9.234375 -13.953125 "/></g></g></g><g fill="#7ed957" fill-opacity="1"><g transform="translate(298.191871, 229.572465)"><g><path d="M 25.078125 -26.140625 L 15.3125 -26.140625 L 15.3125 0 L 10.125 0 L 10.125 -26.140625 L 0.390625 -26.140625 L 0.390625 -30.796875 L 25.078125 -30.796875 Z M 25.078125 -26.140625 "/></g></g></g><g fill="#7ed957" fill-opacity="1"><g transform="translate(323.663328, 229.572465)"><g><path d="M 23.9375 -6.953125 L 8.40625 -6.953125 L 5.453125 0 L 0.046875 0 L 13.640625 -30.796875 L 18.96875 -30.796875 L 32.421875 0 L 26.890625 0 Z M 21.953125 -11.578125 L 16.140625 -25.25 L 10.34375 -11.578125 Z M 21.953125 -11.578125 "/></g></g></g></svg>