<svg xmlns="http://www.w3.org/2000/svg" xmlns:xlink="http://www.w3.org/1999/xlink" width="150" zoomAndPan="magnify" viewBox="0 0 112.5 74.999997" height="100" preserveAspectRatio="xMidYMid meet" version="1.0"><defs><clipPath id="d514d20784"><path d="M 0 0.164062 L 112.003906 0.164062 L 112.003906 74.832031 L 0 74.832031 Z M 0 0.164062 " clip-rule="nonzero"/></clipPath><clipPath id="efdc38f14c"><path d="M 63 31 L 70.671875 31 L 70.671875 43 L 63 43 Z M 63 31 " clip-rule="nonzero"/></clipPath><clipPath id="4f01f8783e"><path d="M 45 41 L 68 41 L 68 52.433594 L 45 52.433594 Z M 45 41 " clip-rule="nonzero"/></clipPath><clipPath id="08c8288ffa"><path d="M 50 22.566406 L 63 22.566406 L 63 30 L 50 30 Z M 50 22.566406 " clip-rule="nonzero"/></clipPath><clipPath id="2fb1b6acaa"><path d="M 41.554688 31 L 52 31 L 52 42 L 41.554688 42 Z M 41.554688 31 " clip-rule="nonzero"/></clipPath><clipPath id="ff66735dda"><path d="M 63 29 L 70.671875 29 L 70.671875 34 L 63 34 Z M 63 29 " clip-rule="nonzero"/></clipPath></defs><g clip-path="url(#d514d20784)"><path fill="#ffffff" d="M 0 0.164062 L 112.003906 0.164062 L 112.003906 74.835938 L 0 74.835938 Z M 0 0.164062 " fill-opacity="1" fill-rule="nonzero"/><path fill="#ffffff" d="M 0 0.164062 L 112.003906 0.164062 L 112.003906 74.835938 L 0 74.835938 Z M 0 0.164062 " fill-opacity="1" fill-rule="nonzero"/></g><g clip-path="url(#efdc38f14c)"><path fill="#b2b3b7" d="M 63.269531 31.84375 L 64.414062 35.257812 C 64.496094 35.5 64.59375 35.738281 64.691406 35.972656 C 65.765625 38.601562 64.855469 39.402344 64.546875 42.445312 L 64.539062 42.542969 L 65.449219 41.4375 C 66.796875 39.804688 68.136719 38.511719 69.023438 36.609375 C 69.6875 35.1875 70.007812 33.203125 70.390625 31.675781 Z M 63.269531 31.84375 " fill-opacity="1" fill-rule="nonzero"/></g><path fill="#d1bbb9" d="M 62.046875 43.53125 L 62.046875 41.554688 L 63.539062 43.039062 L 64.539062 42.542969 L 64.539062 43.53125 L 66.53125 44.027344 L 64.039062 45.015625 Z M 62.046875 43.53125 " fill-opacity="1" fill-rule="nonzero"/><g clip-path="url(#4f01f8783e)"><path fill="#73cada" d="M 56.0625 41.554688 C 50.007812 41.554688 45.097656 46.425781 45.097656 52.433594 L 67.03125 52.433594 C 67.03125 46.425781 62.121094 41.554688 56.0625 41.554688 Z M 56.0625 41.554688 " fill-opacity="1" fill-rule="nonzero"/></g><path fill="#47a841" d="M 56.5625 49.464844 L 56.5625 48.476562 C 56.5625 47.929688 56.117188 47.488281 55.566406 47.488281 L 52.574219 47.488281 C 52.023438 47.488281 51.578125 47.046875 51.578125 46.5 C 51.578125 45.953125 52.023438 45.511719 52.574219 45.511719 L 53.074219 45.511719 C 53.625 45.511719 54.070312 45.066406 54.070312 44.523438 C 54.070312 43.976562 53.625 43.53125 53.074219 43.53125 L 49.761719 43.53125 C 47.457031 45.140625 45.808594 47.601562 45.28125 50.457031 L 55.566406 50.457031 C 56.117188 50.457031 56.5625 50.011719 56.5625 49.464844 Z M 56.5625 49.464844 " fill-opacity="1" fill-rule="nonzero"/><path fill="#47a841" d="M 66.613281 49.464844 C 66.066406 47.550781 65.007812 45.851562 63.585938 44.523438 L 61.046875 44.523438 C 60.222656 44.523438 59.550781 45.1875 59.550781 46.003906 C 59.550781 46.824219 60.222656 47.488281 61.046875 47.488281 L 61.546875 47.488281 C 62.097656 47.488281 62.542969 47.929688 62.542969 48.476562 C 62.542969 49.023438 62.988281 49.464844 63.539062 49.464844 Z M 66.613281 49.464844 " fill-opacity="1" fill-rule="nonzero"/><path fill="#47a841" d="M 60.550781 50.457031 L 61.546875 50.457031 L 61.546875 51.445312 L 60.550781 51.445312 Z M 60.550781 50.457031 " fill-opacity="1" fill-rule="nonzero"/><path fill="#47a841" d="M 55.566406 43.039062 L 56.5625 43.039062 L 56.5625 44.027344 L 55.566406 44.027344 Z M 55.566406 43.039062 " fill-opacity="1" fill-rule="nonzero"/><g clip-path="url(#08c8288ffa)"><path fill="#b2b3b7" d="M 58.554688 29.019531 L 60.050781 29.019531 C 61.152344 29.019531 62.046875 28.132812 62.046875 27.039062 C 62.046875 25.949219 61.152344 25.0625 60.050781 25.0625 C 59.683594 25.0625 59.339844 25.167969 59.042969 25.34375 C 58.933594 23.804688 57.640625 22.589844 56.0625 22.589844 C 54.484375 22.589844 53.195312 23.804688 53.082031 25.34375 C 52.785156 25.167969 52.445312 25.0625 52.074219 25.0625 C 50.972656 25.0625 50.082031 25.949219 50.082031 27.039062 C 50.082031 28.132812 50.972656 29.019531 52.074219 29.019531 L 54.070312 29.019531 " fill-opacity="1" fill-rule="nonzero"/></g><path fill="#ecca07" d="M 56.03125 32.160156 L 55.097656 31.8125 L 56.339844 28.523438 L 55.566406 28.523438 C 55.414062 28.523438 55.273438 28.457031 55.179688 28.34375 C 55.085938 28.230469 55.046875 28.078125 55.078125 27.933594 L 55.574219 25.460938 L 56.550781 25.65625 L 56.171875 27.535156 L 57.058594 27.535156 C 57.222656 27.535156 57.375 27.617188 57.46875 27.75 C 57.5625 27.882812 57.585938 28.050781 57.527344 28.203125 Z M 56.03125 32.160156 " fill-opacity="1" fill-rule="nonzero"/><g clip-path="url(#2fb1b6acaa)"><path fill="#e75038" d="M 41.703125 31.757812 L 47.183594 35.21875 L 47.183594 32.253906 L 49.179688 35.21875 L 49.675781 33.738281 C 51.328125 35.101562 51.550781 38.03125 50.175781 39.671875 C 48.800781 41.308594 46.34375 41.53125 44.691406 40.164062 L 45.691406 39.175781 L 42.199219 37.691406 L 45.691406 37.199219 Z M 41.703125 31.757812 " fill-opacity="1" fill-rule="nonzero"/></g><path fill="#d1bbb9" d="M 49.675781 37.691406 C 49.675781 37.890625 49.640625 38.078125 49.5625 38.261719 C 49.488281 38.441406 49.378906 38.601562 49.238281 38.742188 C 49.097656 38.882812 48.9375 38.988281 48.753906 39.0625 C 48.570312 39.140625 48.378906 39.175781 48.183594 39.175781 C 47.984375 39.175781 47.792969 39.140625 47.609375 39.0625 C 47.425781 38.988281 47.265625 38.882812 47.125 38.742188 C 46.984375 38.601562 46.875 38.441406 46.800781 38.261719 C 46.726562 38.078125 46.6875 37.890625 46.6875 37.691406 C 46.6875 37.496094 46.726562 37.308594 46.800781 37.125 C 46.875 36.945312 46.984375 36.78125 47.125 36.644531 C 47.265625 36.503906 47.425781 36.398438 47.609375 36.324219 C 47.792969 36.246094 47.984375 36.210938 48.183594 36.210938 C 48.378906 36.210938 48.570312 36.246094 48.753906 36.324219 C 48.9375 36.398438 49.097656 36.503906 49.238281 36.644531 C 49.378906 36.78125 49.488281 36.945312 49.5625 37.125 C 49.640625 37.308594 49.675781 37.496094 49.675781 37.691406 Z M 49.675781 37.691406 " fill-opacity="1" fill-rule="nonzero"/><g clip-path="url(#ff66735dda)"><path fill="#d1bbb9" d="M 70.519531 31.171875 C 70.519531 31.433594 70.425781 31.683594 70.234375 31.925781 C 70.046875 32.167969 69.773438 32.382812 69.425781 32.570312 C 69.074219 32.753906 68.667969 32.898438 68.210938 32.996094 C 67.753906 33.097656 67.277344 33.148438 66.78125 33.148438 C 66.285156 33.148438 65.808594 33.097656 65.351562 32.996094 C 64.890625 32.898438 64.488281 32.753906 64.136719 32.570312 C 63.785156 32.382812 63.515625 32.167969 63.328125 31.925781 C 63.136719 31.683594 63.042969 31.433594 63.042969 31.171875 C 63.042969 30.910156 63.136719 30.65625 63.328125 30.414062 C 63.515625 30.171875 63.785156 29.957031 64.136719 29.773438 C 64.488281 29.585938 64.890625 29.445312 65.351562 29.34375 C 65.808594 29.242188 66.285156 29.191406 66.78125 29.191406 C 67.277344 29.191406 67.753906 29.242188 68.210938 29.34375 C 68.667969 29.445312 69.074219 29.585938 69.425781 29.773438 C 69.773438 29.957031 70.046875 30.171875 70.234375 30.414062 C 70.425781 30.65625 70.519531 30.910156 70.519531 31.171875 Z M 70.519531 31.171875 " fill-opacity="1" fill-rule="nonzero"/></g><path fill="#606060" d="M 67.03125 32.40625 L 67.03125 31.914062 C 68.027344 31.914062 68.773438 31.519531 68.773438 31.171875 C 68.773438 30.820312 68.027344 30.429688 67.03125 30.429688 L 67.03125 29.933594 C 68.308594 29.933594 69.273438 30.464844 69.273438 31.171875 C 69.273438 31.875 68.308594 32.40625 67.03125 32.40625 Z M 67.03125 32.40625 " fill-opacity="1" fill-rule="nonzero"/><path fill="#606060" d="M 66.53125 32.40625 C 65.253906 32.40625 64.289062 31.875 64.289062 31.171875 C 64.289062 30.464844 65.253906 29.933594 66.53125 29.933594 L 66.53125 30.429688 C 65.53125 30.429688 64.785156 30.820312 64.785156 31.171875 C 64.785156 31.519531 65.53125 31.914062 66.53125 31.914062 Z M 66.53125 32.40625 " fill-opacity="1" fill-rule="nonzero"/><path fill="#606060" d="M 64.539062 34.382812 L 68.527344 34.382812 L 68.527344 34.878906 L 64.539062 34.878906 Z M 64.539062 34.382812 " fill-opacity="1" fill-rule="nonzero"/><path fill="#606060" d="M 66.03125 36.363281 L 68.527344 36.363281 L 68.527344 36.855469 L 66.03125 36.855469 Z M 66.03125 36.363281 " fill-opacity="1" fill-rule="nonzero"/><path fill="#606060" d="M 65.535156 37.847656 L 67.03125 37.847656 L 67.03125 38.339844 L 65.535156 38.339844 Z M 65.535156 37.847656 " fill-opacity="1" fill-rule="nonzero"/><path fill="#606060" d="M 66.03125 30.921875 L 67.527344 30.921875 L 67.527344 31.417969 L 66.03125 31.417969 Z M 66.03125 30.921875 " fill-opacity="1" fill-rule="nonzero"/></svg>