<svg xmlns="http://www.w3.org/2000/svg" xmlns:xlink="http://www.w3.org/1999/xlink" width="200" zoomAndPan="magnify" viewBox="0 0 150 99.749996" height="133" preserveAspectRatio="xMidYMid meet" version="1.0"><defs><clipPath id="e192372f47"><path d="M 0.1875 0 L 149.8125 0 L 149.8125 99.5 L 0.1875 99.5 Z M 0.1875 0 " clip-rule="nonzero"/></clipPath><clipPath id="07aee8a992"><path d="M 55.101562 32.167969 L 94.75 32.167969 L 94.75 71.816406 L 55.101562 71.816406 Z M 55.101562 32.167969 " clip-rule="nonzero"/></clipPath><clipPath id="dfc7034ff1"><path d="M 64 41 L 88 41 L 88 65 L 64 65 Z M 64 41 " clip-rule="nonzero"/></clipPath><clipPath id="2a1e7a55ee"><path d="M 72.886719 41.75 L 87.925781 56.789062 L 79.722656 64.996094 L 64.679688 49.953125 Z M 72.886719 41.75 " clip-rule="nonzero"/></clipPath><clipPath id="5bbe34f72e"><path d="M 73.238281 59.246094 L 91 59.246094 L 91 77.203125 L 73.238281 77.203125 Z M 73.238281 59.246094 " clip-rule="nonzero"/></clipPath><clipPath id="53de589507"><path d="M 77 60 L 92.6875 60 L 92.6875 74 L 77 74 Z M 77 60 " clip-rule="nonzero"/></clipPath></defs><g clip-path="url(#e192372f47)"><path fill="#ffffff" d="M 0.1875 0 L 149.8125 0 L 149.8125 99.5 L 0.1875 99.5 Z M 0.1875 0 " fill-opacity="1" fill-rule="nonzero"/><path fill="#ffffff" d="M 0.1875 0 L 149.8125 0 L 149.8125 99.5 L 0.1875 99.5 Z M 0.1875 0 " fill-opacity="1" fill-rule="nonzero"/></g><g clip-path="url(#07aee8a992)"><path fill="#00bf63" d="M 56.347656 32.136719 C 55.621094 32.203125 55.066406 32.8125 55.066406 33.542969 L 55.066406 47.21875 C 55.070312 47.589844 55.230469 47.941406 55.496094 48.203125 L 78.738281 71.445312 C 79.292969 71.992188 80.152344 71.992188 80.707031 71.445312 L 94.378906 57.773438 C 94.921875 57.222656 94.921875 56.359375 94.378906 55.808594 L 71.132812 32.5625 C 70.871094 32.300781 70.523438 32.136719 70.152344 32.136719 Z M 63.3125 37.648438 C 64.824219 37.648438 66.046875 38.871094 66.046875 40.382812 C 66.046875 41.890625 64.824219 43.117188 63.3125 43.117188 C 61.804688 43.117188 60.578125 41.890625 60.578125 40.382812 C 60.578125 38.871094 61.804688 37.648438 63.3125 37.648438 Z M 63.3125 37.648438 " fill-opacity="1" fill-rule="nonzero"/></g><path fill="#00bf63" d="M 56.476562 33.542969 L 56.476562 47.21875 L 79.722656 70.464844 L 93.394531 56.789062 L 70.152344 33.542969 Z M 63.3125 37.648438 C 64.824219 37.648438 66.046875 38.871094 66.046875 40.382812 C 66.046875 41.890625 64.824219 43.117188 63.3125 43.117188 C 61.804688 43.117188 60.578125 41.890625 60.578125 40.382812 C 60.578125 38.871094 61.804688 37.648438 63.3125 37.648438 Z M 63.3125 37.648438 " fill-opacity="1" fill-rule="nonzero"/><path fill="#00bf63" d="M 63.3125 36.664062 C 61.261719 36.664062 59.597656 38.328125 59.597656 40.382812 C 59.597656 42.433594 61.261719 44.097656 63.3125 44.097656 C 65.367188 44.097656 67.03125 42.433594 67.03125 40.382812 C 67.03125 38.328125 65.367188 36.664062 63.3125 36.664062 Z M 63.3125 37.648438 C 64.824219 37.648438 66.046875 38.871094 66.046875 40.382812 C 66.046875 41.890625 64.824219 43.117188 63.3125 43.117188 C 61.804688 43.117188 60.578125 41.890625 60.578125 40.382812 C 60.578125 38.871094 61.804688 37.648438 63.3125 37.648438 Z M 63.3125 37.648438 " fill-opacity="1" fill-rule="nonzero"/><g clip-path="url(#dfc7034ff1)"><g clip-path="url(#2a1e7a55ee)"><path fill="#00bf63" d="M 64.679688 41.75 L 64.679688 64.996094 L 87.925781 64.996094 L 87.925781 41.75 Z M 64.679688 41.75 " fill-opacity="1" fill-rule="nonzero"/></g></g><path fill="#00bf63" d="M 71.851562 44.980469 C 71.476562 45.023438 71.117188 45.21875 70.875 45.535156 L 71.890625 46.164062 C 71.945312 46.085938 71.988281 46.097656 72.046875 46.09375 C 72.101562 46.085938 72.167969 46.074219 72.277344 46.128906 C 72.5 46.234375 72.652344 46.445312 72.628906 46.542969 L 72.667969 46.542969 C 72.210938 47.539062 73.023438 48.574219 74.1875 48.667969 L 74.1875 48.734375 C 74.894531 48.859375 75.4375 49.5 75.628906 50.195312 L 75.707031 50.371094 L 75.863281 50.507812 C 76.320312 50.820312 76.789062 50.914062 77.113281 51.03125 C 77.433594 51.148438 77.550781 51.199219 77.617188 51.378906 L 77.65625 51.378906 C 77.636719 51.699219 77.621094 52.007812 77.773438 52.316406 C 77.953125 52.679688 78.316406 52.984375 78.789062 53.152344 L 78.789062 53.1875 L 78.863281 53.222656 C 79.128906 53.335938 79.417969 53.480469 79.566406 53.605469 C 79.730469 53.742188 79.757812 53.785156 79.722656 53.953125 L 79.722656 54.09375 C 79.734375 54.492188 79.9375 54.820312 80.269531 55.066406 C 80.601562 55.3125 81.113281 55.457031 81.59375 55.273438 L 81.125 54.230469 C 81.085938 54.246094 81.097656 54.265625 81.046875 54.230469 C 81 54.195312 80.972656 54.105469 80.96875 54.058594 L 80.890625 54.058594 C 80.941406 53.554688 80.75 53.082031 80.425781 52.804688 C 80.070312 52.503906 79.660156 52.3125 79.332031 52.179688 L 79.253906 52.179688 C 79.046875 52.117188 78.976562 52.007812 78.902344 51.867188 C 78.832031 51.722656 78.785156 51.53125 78.828125 51.308594 L 78.863281 51.171875 L 78.828125 51.03125 C 78.609375 50.453125 78.015625 50.148438 77.578125 49.988281 C 77.160156 49.835938 76.859375 49.714844 76.683594 49.605469 L 76.644531 49.605469 C 76.292969 48.710938 75.605469 47.863281 74.421875 47.65625 L 74.382812 47.621094 L 74.304688 47.621094 C 73.871094 47.632812 73.546875 47.285156 73.761719 46.925781 L 73.835938 46.859375 L 73.835938 46.789062 C 74 46.070312 73.503906 45.445312 72.902344 45.152344 C 72.601562 45.007812 72.226562 44.9375 71.851562 44.980469 Z M 71.851562 44.980469 " fill-opacity="1" fill-rule="evenodd"/><path fill="#00bf63" d="M 70.222656 48.160156 C 69.566406 47.859375 68.785156 47.820312 68.109375 48.242188 L 68.757812 49.386719 C 69.265625 49.070312 70.136719 49.5 70.261719 50.082031 L 70.300781 50.207031 L 70.382812 50.328125 C 70.511719 50.503906 70.523438 50.785156 70.503906 51.269531 C 70.488281 51.753906 70.472656 52.453125 70.992188 53.03125 L 71.03125 53.113281 L 71.113281 53.152344 C 71.796875 53.625 72.539062 53.804688 73.144531 54.054688 C 73.753906 54.304688 74.167969 54.574219 74.445312 55.035156 L 74.523438 55.160156 L 74.648438 55.242188 C 75.832031 56.023438 76.621094 57.386719 77.207031 58.800781 L 77.246094 58.84375 L 77.246094 58.882812 C 77.601562 59.476562 78.175781 59.742188 78.625 59.949219 C 79.074219 60.152344 79.421875 60.324219 79.640625 60.519531 L 79.722656 60.441406 L 80.738281 60.847656 C 80.863281 60.503906 80.867188 60.050781 80.617188 59.660156 L 80.574219 59.578125 L 80.535156 59.539062 C 80.070312 59.121094 79.546875 58.941406 79.152344 58.761719 C 78.761719 58.582031 78.527344 58.429688 78.382812 58.1875 C 77.789062 56.769531 76.933594 55.332031 75.582031 54.339844 C 75.5 54.28125 75.460938 54.191406 75.378906 54.136719 L 75.335938 54.175781 C 74.855469 53.539062 74.242188 53.117188 73.632812 52.867188 C 72.96875 52.597656 72.371094 52.375 71.925781 52.089844 C 71.8125 51.929688 71.789062 51.734375 71.804688 51.3125 C 71.820312 50.910156 71.753906 50.339844 71.480469 49.796875 L 71.5625 49.796875 C 71.550781 49.746094 71.496094 49.726562 71.480469 49.675781 C 71.453125 49.628906 71.472656 49.59375 71.4375 49.550781 L 71.398438 49.59375 C 71.179688 48.96875 70.792969 48.425781 70.222656 48.160156 Z M 70.222656 48.160156 " fill-opacity="1" fill-rule="evenodd"/><g clip-path="url(#5bbe34f72e)"><path fill="#ff7300" d="M 89.664062 65.078125 C 89.710938 65.195312 89.757812 65.308594 89.800781 65.425781 C 89.882812 65.65625 89.960938 65.894531 90.027344 66.132812 C 90.09375 66.371094 90.152344 66.609375 90.199219 66.851562 C 90.210938 66.914062 90.222656 66.972656 90.234375 67.035156 L 90.261719 67.21875 C 90.28125 67.339844 90.300781 67.460938 90.3125 67.585938 L 90.332031 67.761719 L 90.34375 67.851562 C 90.347656 67.878906 90.347656 67.910156 90.347656 67.9375 C 90.355469 68.058594 90.363281 68.175781 90.371094 68.292969 C 90.375 68.402344 90.367188 68.511719 90.367188 68.621094 C 90.367188 68.671875 90.359375 68.734375 90.351562 68.796875 C 90.347656 68.859375 90.339844 68.917969 90.34375 68.96875 C 90.339844 68.878906 90.339844 68.792969 90.339844 68.703125 C 90.335938 68.613281 90.332031 68.523438 90.328125 68.433594 C 90.324219 68.386719 90.324219 68.34375 90.320312 68.296875 C 90.320312 68.25 90.3125 68.207031 90.308594 68.160156 C 90.300781 68.070312 90.292969 67.980469 90.285156 67.890625 C 90.277344 67.796875 90.261719 67.707031 90.25 67.617188 L 90.234375 67.484375 C 90.226562 67.4375 90.21875 67.394531 90.210938 67.347656 C 90.195312 67.257812 90.179688 67.171875 90.164062 67.082031 C 90.144531 66.992188 90.125 66.90625 90.105469 66.816406 C 90.132812 66.9375 90.15625 67.054688 90.171875 67.175781 L 90.203125 67.355469 C 90.210938 67.414062 90.222656 67.476562 90.226562 67.535156 C 90.238281 67.65625 90.253906 67.777344 90.261719 67.898438 L 90.28125 68.265625 C 90.292969 68.75 90.257812 69.242188 90.171875 69.722656 L 90.152344 69.847656 C 90.144531 69.890625 90.132812 69.929688 90.125 69.972656 L 90.070312 70.21875 C 90.046875 70.300781 90.023438 70.382812 90 70.464844 L 89.96875 70.585938 C 89.957031 70.628906 89.941406 70.667969 89.925781 70.707031 C 90.203125 69.75 90.292969 68.75 90.199219 67.773438 L 90.171875 67.492188 C 90.15625 67.398438 90.140625 67.304688 90.125 67.210938 L 90.105469 67.070312 L 90.078125 66.933594 L 90.046875 66.792969 L 90.015625 66.65625 C 89.980469 66.496094 89.929688 66.332031 89.894531 66.175781 C 89.855469 66.007812 89.792969 65.828125 89.738281 65.664062 L 89.746094 65.695312 C 89.769531 65.796875 89.808594 65.914062 89.832031 66.019531 C 89.867188 66.152344 89.894531 66.285156 89.925781 66.417969 C 89.960938 66.589844 89.996094 66.765625 90.023438 66.9375 L 90.046875 67.070312 L 90.0625 67.203125 L 90.097656 67.464844 C 90.105469 67.554688 90.113281 67.640625 90.121094 67.730469 L 90.132812 67.863281 C 90.136719 67.90625 90.136719 67.953125 90.140625 67.996094 C 90.144531 68.085938 90.148438 68.171875 90.152344 68.261719 C 90.152344 68.351562 90.148438 68.4375 90.148438 68.527344 C 90.140625 69.082031 90.074219 69.640625 89.945312 70.1875 C 89.816406 70.730469 89.621094 71.261719 89.371094 71.761719 C 89.398438 71.707031 89.421875 71.628906 89.441406 71.574219 C 89.464844 71.507812 89.488281 71.441406 89.511719 71.375 C 89.546875 71.292969 89.570312 71.210938 89.601562 71.125 C 89.613281 71.082031 89.628906 71.039062 89.640625 71 C 89.652344 70.957031 89.667969 70.917969 89.675781 70.875 C 89.78125 70.480469 89.894531 70.039062 89.957031 69.625 C 90.027344 69.148438 90.058594 68.667969 90.039062 68.191406 C 90.035156 68.078125 90.03125 67.964844 90.019531 67.855469 C 90.007812 67.746094 89.996094 67.632812 89.984375 67.523438 C 89.96875 67.414062 89.945312 67.304688 89.929688 67.195312 C 89.921875 67.140625 89.910156 67.085938 89.898438 67.03125 C 89.886719 66.976562 89.875 66.925781 89.863281 66.871094 C 89.828125 66.707031 89.785156 66.550781 89.734375 66.394531 C 89.792969 66.621094 89.839844 66.855469 89.875 67.089844 L 89.917969 67.441406 C 89.925781 67.5 89.929688 67.558594 89.933594 67.617188 L 89.945312 67.792969 C 89.972656 68.265625 89.957031 68.738281 89.894531 69.207031 L 89.871094 69.382812 C 89.867188 69.410156 89.863281 69.441406 89.855469 69.46875 L 89.839844 69.554688 C 89.816406 69.671875 89.800781 69.789062 89.769531 69.902344 C 89.757812 69.957031 89.746094 70.011719 89.734375 70.066406 L 89.714844 70.148438 L 89.695312 70.226562 L 89.652344 70.390625 L 89.632812 70.472656 L 89.621094 70.511719 L 89.609375 70.554688 C 89.476562 71.007812 89.296875 71.453125 89.074219 71.875 C 89.039062 71.945312 88.996094 72.019531 88.957031 72.089844 L 88.898438 72.199219 C 88.875 72.234375 88.855469 72.269531 88.832031 72.304688 L 88.703125 72.511719 C 88.65625 72.582031 88.609375 72.648438 88.5625 72.714844 L 88.492188 72.816406 C 88.46875 72.851562 88.441406 72.882812 88.417969 72.917969 L 88.269531 73.113281 C 88.214844 73.175781 88.164062 73.238281 88.109375 73.300781 L 88.03125 73.394531 C 88.003906 73.425781 87.972656 73.457031 87.945312 73.484375 C 87.878906 73.554688 87.8125 73.617188 87.753906 73.679688 C 87.691406 73.734375 87.632812 73.789062 87.578125 73.835938 C 87.550781 73.863281 87.527344 73.882812 87.503906 73.90625 C 87.476562 73.929688 87.453125 73.945312 87.429688 73.964844 C 87.386719 74 87.34375 74.03125 87.308594 74.054688 L 87.484375 73.902344 L 87.652344 73.742188 L 87.734375 73.664062 C 87.761719 73.636719 87.785156 73.605469 87.8125 73.578125 L 87.972656 73.40625 C 88 73.378906 88.023438 73.351562 88.046875 73.320312 L 88.121094 73.230469 L 88.195312 73.144531 L 88.265625 73.050781 C 88.359375 72.929688 88.457031 72.808594 88.539062 72.675781 C 88.582031 72.613281 88.625 72.550781 88.667969 72.484375 L 88.785156 72.289062 L 88.847656 72.1875 L 89.011719 71.882812 C 89.046875 71.816406 89.078125 71.746094 89.113281 71.675781 C 89.144531 71.609375 89.179688 71.539062 89.207031 71.46875 C 89.265625 71.328125 89.332031 71.1875 89.378906 71.042969 C 89.71875 70.152344 89.878906 69.183594 89.851562 68.230469 C 89.847656 68.144531 89.84375 68.054688 89.839844 67.96875 L 89.835938 67.902344 C 89.835938 67.882812 89.832031 67.859375 89.832031 67.839844 L 89.816406 67.710938 L 89.800781 67.523438 C 89.792969 67.460938 89.78125 67.398438 89.773438 67.339844 C 89.761719 67.257812 89.753906 67.164062 89.734375 67.085938 C 89.730469 67.078125 89.730469 67.070312 89.726562 67.0625 C 89.734375 67.117188 89.742188 67.175781 89.75 67.234375 C 89.757812 67.296875 89.765625 67.355469 89.773438 67.414062 L 89.785156 67.503906 C 89.789062 67.535156 89.792969 67.5625 89.792969 67.59375 L 89.808594 67.777344 C 89.839844 68.226562 89.835938 68.679688 89.792969 69.132812 C 89.75 69.582031 89.667969 70.03125 89.542969 70.464844 C 89.441406 70.820312 89.3125 71.167969 89.160156 71.503906 C 89.003906 71.839844 88.824219 72.167969 88.621094 72.476562 C 88.300781 72.902344 87.898438 73.367188 87.445312 73.78125 C 86.996094 74.195312 86.492188 74.550781 86.019531 74.808594 C 86.109375 74.75 86.179688 74.707031 86.234375 74.671875 C 86.285156 74.632812 86.328125 74.601562 86.359375 74.578125 C 86.417969 74.535156 86.441406 74.515625 86.460938 74.496094 C 86.480469 74.480469 86.5 74.46875 86.542969 74.429688 C 86.589844 74.394531 86.660156 74.335938 86.796875 74.226562 C 86.773438 74.246094 86.6875 74.304688 86.574219 74.386719 C 86.542969 74.410156 86.515625 74.433594 86.480469 74.453125 C 86.449219 74.472656 86.414062 74.496094 86.378906 74.519531 C 86.34375 74.542969 86.308594 74.566406 86.269531 74.589844 C 86.234375 74.613281 86.195312 74.640625 86.15625 74.660156 C 86.078125 74.707031 86 74.75 85.929688 74.792969 C 85.890625 74.816406 85.855469 74.835938 85.820312 74.851562 C 85.785156 74.871094 85.75 74.890625 85.71875 74.90625 C 85.652344 74.9375 85.597656 74.96875 85.554688 74.988281 C 85.511719 75.007812 85.476562 75.023438 85.460938 75.03125 C 85.402344 75.058594 85.339844 75.085938 85.285156 75.109375 C 85.230469 75.136719 85.171875 75.160156 85.117188 75.183594 C 85 75.226562 84.886719 75.277344 84.765625 75.316406 C 84.648438 75.355469 84.53125 75.402344 84.414062 75.429688 C 84.292969 75.464844 84.171875 75.503906 84.046875 75.527344 C 83.921875 75.558594 83.789062 75.589844 83.65625 75.609375 C 83.589844 75.621094 83.523438 75.632812 83.453125 75.644531 C 83.417969 75.652344 83.382812 75.65625 83.347656 75.660156 C 83.3125 75.664062 83.277344 75.667969 83.242188 75.671875 C 83.167969 75.679688 83.097656 75.6875 83.023438 75.695312 C 82.949219 75.699219 82.875 75.703125 82.796875 75.707031 C 82.847656 75.703125 82.902344 75.699219 82.949219 75.691406 C 82.976562 75.691406 83 75.6875 83.023438 75.6875 C 83.046875 75.683594 83.070312 75.679688 83.09375 75.675781 C 83.1875 75.664062 83.273438 75.652344 83.355469 75.640625 C 83.375 75.636719 83.394531 75.632812 83.414062 75.632812 C 83.433594 75.628906 83.453125 75.625 83.472656 75.621094 C 83.511719 75.613281 83.550781 75.605469 83.585938 75.597656 C 83.660156 75.585938 83.730469 75.570312 83.792969 75.558594 C 83.925781 75.527344 84.042969 75.496094 84.152344 75.46875 C 84.265625 75.4375 84.367188 75.40625 84.472656 75.375 C 84.488281 75.371094 84.503906 75.367188 84.519531 75.359375 C 84.53125 75.355469 84.546875 75.351562 84.558594 75.34375 C 84.585938 75.335938 84.613281 75.324219 84.636719 75.316406 C 84.6875 75.296875 84.730469 75.28125 84.777344 75.261719 C 84.867188 75.230469 84.957031 75.1875 85.074219 75.136719 C 85.050781 75.148438 85.015625 75.160156 84.972656 75.179688 C 84.949219 75.1875 84.925781 75.195312 84.902344 75.207031 C 84.878906 75.214844 84.851562 75.226562 84.824219 75.234375 C 84.765625 75.253906 84.707031 75.273438 84.640625 75.296875 C 84.578125 75.316406 84.511719 75.34375 84.445312 75.359375 C 84.378906 75.378906 84.3125 75.398438 84.246094 75.414062 C 84.214844 75.425781 84.183594 75.433594 84.152344 75.441406 C 84.121094 75.449219 84.089844 75.457031 84.0625 75.464844 C 83.949219 75.488281 83.851562 75.511719 83.800781 75.523438 C 83.402344 75.605469 82.996094 75.660156 82.589844 75.679688 C 82.488281 75.683594 82.382812 75.6875 82.28125 75.6875 L 81.976562 75.683594 C 81.949219 75.683594 81.925781 75.683594 81.898438 75.679688 L 81.820312 75.675781 L 81.667969 75.664062 C 81.617188 75.660156 81.566406 75.660156 81.515625 75.652344 L 81.210938 75.613281 C 81.160156 75.609375 81.109375 75.597656 81.058594 75.589844 L 80.90625 75.5625 L 80.832031 75.550781 C 80.808594 75.546875 80.78125 75.539062 80.757812 75.535156 C 80.65625 75.511719 80.558594 75.488281 80.457031 75.464844 L 80.160156 75.382812 C 79.769531 75.265625 79.386719 75.113281 79.019531 74.933594 L 78.894531 74.871094 C 78.855469 74.851562 78.8125 74.832031 78.769531 74.808594 C 78.6875 74.761719 78.605469 74.714844 78.523438 74.667969 C 78.445312 74.621094 78.363281 74.566406 78.285156 74.519531 C 78.203125 74.46875 78.128906 74.414062 78.050781 74.359375 L 77.933594 74.277344 C 77.894531 74.253906 77.859375 74.222656 77.824219 74.195312 L 77.710938 74.105469 L 77.65625 74.0625 L 77.628906 74.042969 L 77.601562 74.019531 C 77.53125 73.957031 77.457031 73.898438 77.386719 73.835938 C 77.351562 73.804688 77.316406 73.773438 77.285156 73.742188 L 77.183594 73.644531 C 77.148438 73.613281 77.113281 73.582031 77.082031 73.550781 L 76.988281 73.449219 C 76.957031 73.417969 76.925781 73.386719 76.894531 73.351562 C 76.878906 73.335938 76.863281 73.320312 76.847656 73.304688 L 76.804688 73.25 C 76.796875 73.242188 76.742188 73.179688 76.648438 73.074219 C 76.621094 73.046875 76.597656 73.015625 76.570312 72.980469 C 76.542969 72.945312 76.515625 72.910156 76.480469 72.871094 C 76.449219 72.828125 76.414062 72.789062 76.382812 72.742188 C 76.347656 72.695312 76.3125 72.644531 76.273438 72.589844 C 76.121094 72.382812 75.953125 72.117188 75.78125 71.804688 C 75.742188 71.726562 75.699219 71.644531 75.65625 71.558594 C 75.613281 71.472656 75.574219 71.386719 75.53125 71.292969 C 75.488281 71.207031 75.453125 71.109375 75.414062 71.011719 C 75.394531 70.964844 75.375 70.914062 75.355469 70.863281 C 75.339844 70.8125 75.320312 70.761719 75.304688 70.710938 C 75.164062 70.300781 75.046875 69.839844 74.976562 69.347656 C 74.90625 68.859375 74.886719 68.335938 74.929688 67.796875 C 74.972656 67.261719 75.082031 66.710938 75.253906 66.167969 C 75.429688 65.628906 75.671875 65.101562 75.96875 64.605469 C 76.003906 64.542969 76.042969 64.480469 76.082031 64.421875 L 76.199219 64.238281 L 76.324219 64.0625 C 76.367188 64.003906 76.40625 63.941406 76.453125 63.886719 C 76.542969 63.773438 76.628906 63.660156 76.722656 63.550781 C 76.769531 63.496094 76.816406 63.445312 76.863281 63.390625 C 76.910156 63.335938 76.960938 63.285156 77.007812 63.234375 C 77.203125 63.027344 77.410156 62.835938 77.621094 62.652344 C 77.675781 62.609375 77.730469 62.566406 77.78125 62.523438 L 77.863281 62.457031 C 77.890625 62.4375 77.917969 62.414062 77.945312 62.394531 C 78 62.355469 78.054688 62.3125 78.109375 62.273438 C 78.136719 62.253906 78.164062 62.234375 78.191406 62.214844 C 78.21875 62.195312 78.246094 62.175781 78.277344 62.15625 C 78.722656 61.855469 79.183594 61.613281 79.636719 61.429688 C 80.09375 61.25 80.539062 61.125 80.957031 61.046875 C 81.007812 61.039062 81.0625 61.03125 81.113281 61.019531 C 81.136719 61.015625 81.164062 61.011719 81.1875 61.007812 C 81.214844 61.003906 81.242188 61.003906 81.265625 61 C 81.316406 60.992188 81.367188 60.984375 81.417969 60.980469 C 81.46875 60.972656 81.515625 60.964844 81.566406 60.964844 C 81.664062 60.957031 81.757812 60.949219 81.851562 60.941406 C 81.941406 60.9375 82.03125 60.933594 82.117188 60.929688 C 82.164062 60.929688 82.207031 60.925781 82.246094 60.929688 C 82.289062 60.929688 82.332031 60.929688 82.371094 60.929688 C 82.453125 60.933594 82.53125 60.933594 82.605469 60.9375 C 82.683594 60.941406 82.753906 60.945312 82.824219 60.949219 C 82.855469 60.953125 82.890625 60.953125 82.921875 60.957031 C 82.957031 60.960938 82.988281 60.964844 83.019531 60.96875 C 83.082031 60.976562 83.140625 60.980469 83.195312 60.988281 C 83.222656 60.992188 83.25 60.992188 83.273438 60.996094 C 83.300781 61 83.324219 61.003906 83.351562 61.007812 C 83.445312 61.023438 83.527344 61.039062 83.59375 61.046875 C 83.660156 61.058594 83.707031 61.074219 83.742188 61.078125 C 83.777344 61.085938 83.792969 61.089844 83.792969 61.089844 C 83.84375 61.097656 83.890625 61.109375 83.941406 61.117188 C 83.988281 61.128906 84.039062 61.140625 84.085938 61.148438 C 84.132812 61.160156 84.183594 61.171875 84.230469 61.179688 C 84.253906 61.183594 84.277344 61.191406 84.300781 61.195312 C 84.324219 61.199219 84.347656 61.207031 84.371094 61.210938 C 84.460938 61.234375 84.554688 61.253906 84.644531 61.273438 C 84.734375 61.296875 84.820312 61.320312 84.90625 61.339844 C 84.929688 61.34375 84.949219 61.347656 84.972656 61.351562 C 84.992188 61.359375 85.011719 61.363281 85.035156 61.371094 C 85.078125 61.378906 85.117188 61.390625 85.160156 61.402344 C 85.242188 61.421875 85.320312 61.4375 85.398438 61.460938 C 85.476562 61.480469 85.550781 61.496094 85.625 61.511719 C 85.699219 61.53125 85.769531 61.550781 85.839844 61.5625 C 85.90625 61.578125 85.972656 61.589844 86.039062 61.605469 C 86.101562 61.617188 86.160156 61.628906 86.21875 61.636719 C 86.277344 61.648438 86.332031 61.652344 86.386719 61.65625 C 86.4375 61.664062 86.484375 61.667969 86.53125 61.667969 C 86.714844 61.671875 86.851562 61.632812 86.914062 61.539062 C 86.980469 61.445312 86.960938 61.300781 86.867188 61.121094 C 86.84375 61.074219 86.816406 61.027344 86.78125 60.980469 C 86.746094 60.929688 86.707031 60.878906 86.664062 60.828125 C 86.621094 60.777344 86.570312 60.722656 86.515625 60.667969 C 86.460938 60.617188 86.402344 60.5625 86.339844 60.507812 C 86.214844 60.394531 86.0625 60.289062 85.898438 60.179688 C 85.816406 60.125 85.726562 60.074219 85.636719 60.023438 C 85.589844 59.996094 85.542969 59.96875 85.496094 59.945312 C 85.445312 59.921875 85.398438 59.898438 85.347656 59.871094 C 84.945312 59.679688 84.480469 59.515625 83.972656 59.421875 L 83.964844 59.421875 C 83.957031 59.417969 83.867188 59.402344 83.699219 59.375 C 83.613281 59.363281 83.511719 59.339844 83.390625 59.328125 C 83.328125 59.324219 83.265625 59.316406 83.195312 59.308594 C 83.160156 59.304688 83.125 59.300781 83.085938 59.296875 C 83.050781 59.292969 83.011719 59.289062 82.972656 59.289062 C 82.816406 59.277344 82.644531 59.261719 82.457031 59.261719 C 82.410156 59.261719 82.363281 59.261719 82.316406 59.257812 C 82.265625 59.257812 82.214844 59.257812 82.164062 59.257812 C 82.066406 59.261719 81.960938 59.265625 81.851562 59.269531 C 81.417969 59.292969 80.9375 59.339844 80.410156 59.453125 C 79.882812 59.5625 79.328125 59.738281 78.769531 59.984375 C 78.207031 60.230469 77.644531 60.550781 77.105469 60.941406 C 77.039062 60.988281 76.972656 61.039062 76.902344 61.085938 C 76.839844 61.140625 76.773438 61.191406 76.707031 61.246094 C 76.671875 61.273438 76.640625 61.296875 76.609375 61.324219 L 76.558594 61.363281 L 76.511719 61.40625 C 76.445312 61.464844 76.382812 61.519531 76.320312 61.578125 C 76.285156 61.605469 76.253906 61.632812 76.222656 61.664062 L 76.128906 61.75 C 76.070312 61.8125 76.007812 61.871094 75.945312 61.933594 C 75.882812 61.992188 75.824219 62.058594 75.765625 62.121094 L 75.675781 62.214844 C 75.644531 62.246094 75.617188 62.277344 75.589844 62.3125 C 75.125 62.835938 74.710938 63.417969 74.367188 64.042969 C 74.023438 64.667969 73.75 65.335938 73.558594 66.019531 L 73.527344 66.144531 L 73.496094 66.273438 C 73.472656 66.359375 73.453125 66.445312 73.433594 66.53125 C 73.417969 66.617188 73.398438 66.707031 73.382812 66.792969 C 73.367188 66.878906 73.347656 66.964844 73.339844 67.050781 C 73.316406 67.222656 73.289062 67.394531 73.277344 67.566406 C 73.269531 67.652344 73.261719 67.738281 73.253906 67.824219 C 73.25 67.910156 73.246094 67.996094 73.242188 68.082031 C 73.242188 68.125 73.242188 68.167969 73.238281 68.210938 C 73.238281 68.25 73.234375 68.292969 73.238281 68.335938 C 73.238281 68.421875 73.242188 68.503906 73.242188 68.589844 C 73.242188 68.757812 73.257812 68.925781 73.269531 69.089844 C 73.273438 69.128906 73.273438 69.171875 73.277344 69.210938 C 73.285156 69.253906 73.289062 69.292969 73.292969 69.335938 C 73.304688 69.414062 73.3125 69.496094 73.324219 69.574219 C 73.328125 69.617188 73.332031 69.65625 73.339844 69.695312 C 73.347656 69.734375 73.355469 69.773438 73.363281 69.8125 C 73.375 69.890625 73.390625 69.96875 73.402344 70.046875 C 73.523438 70.664062 73.703125 71.238281 73.917969 71.75 C 74.128906 72.265625 74.375 72.722656 74.617188 73.117188 C 74.683594 73.214844 74.742188 73.308594 74.804688 73.398438 C 74.863281 73.488281 74.929688 73.574219 74.988281 73.65625 C 75.015625 73.699219 75.046875 73.738281 75.074219 73.777344 C 75.105469 73.816406 75.136719 73.855469 75.167969 73.890625 C 75.226562 73.964844 75.28125 74.035156 75.335938 74.105469 C 75.449219 74.234375 75.554688 74.355469 75.648438 74.460938 C 75.75 74.5625 75.835938 74.648438 75.910156 74.726562 C 75.945312 74.765625 75.980469 74.796875 76.011719 74.824219 C 76.042969 74.855469 76.070312 74.882812 76.097656 74.90625 C 76.144531 74.953125 76.179688 74.984375 76.199219 75.003906 C 76.953125 75.683594 77.828125 76.246094 78.773438 76.640625 C 79.246094 76.839844 79.734375 76.996094 80.230469 77.113281 C 80.730469 77.226562 81.234375 77.300781 81.742188 77.328125 C 82.945312 77.398438 84.167969 77.226562 85.304688 76.8125 C 84.957031 76.917969 84.820312 76.941406 84.746094 76.960938 C 84.671875 76.972656 84.660156 76.972656 84.554688 76.984375 C 84.660156 76.953125 84.761719 76.925781 84.867188 76.894531 C 84.917969 76.878906 84.96875 76.867188 85.015625 76.851562 C 85.066406 76.832031 85.117188 76.816406 85.164062 76.800781 C 85.214844 76.785156 85.261719 76.765625 85.3125 76.75 C 85.359375 76.734375 85.40625 76.71875 85.453125 76.699219 C 85.546875 76.660156 85.640625 76.625 85.734375 76.585938 C 85.773438 76.570312 85.816406 76.554688 85.863281 76.535156 C 85.910156 76.515625 85.957031 76.492188 86.007812 76.46875 C 86.058594 76.445312 86.113281 76.421875 86.164062 76.398438 C 86.191406 76.386719 86.214844 76.378906 86.242188 76.363281 C 86.265625 76.351562 86.292969 76.339844 86.316406 76.328125 C 86.417969 76.273438 86.519531 76.222656 86.621094 76.171875 C 86.722656 76.117188 86.820312 76.058594 86.917969 76 C 87.015625 75.945312 87.109375 75.882812 87.203125 75.824219 L 87.34375 75.734375 L 87.378906 75.710938 L 87.410156 75.6875 L 87.480469 75.636719 C 87.570312 75.574219 87.664062 75.507812 87.75 75.441406 L 88.015625 75.234375 C 88.359375 74.949219 88.683594 74.640625 88.984375 74.308594 C 88.621094 74.703125 88.222656 75.054688 87.800781 75.378906 C 87.355469 75.71875 86.882812 76.015625 86.382812 76.265625 C 85.90625 76.507812 85.410156 76.703125 84.898438 76.855469 C 84.769531 76.890625 84.640625 76.929688 84.511719 76.960938 L 84.125 77.046875 C 84.023438 77.066406 83.933594 77.089844 83.832031 77.109375 L 83.640625 77.140625 L 83.445312 77.167969 C 83.375 77.175781 83.300781 77.1875 83.226562 77.195312 C 83.148438 77.203125 83.074219 77.207031 83 77.214844 C 82.925781 77.222656 82.847656 77.226562 82.773438 77.234375 C 82.699219 77.238281 82.625 77.238281 82.546875 77.242188 C 81.933594 77.261719 81.308594 77.21875 80.695312 77.109375 C 80.082031 77.003906 79.480469 76.828125 78.910156 76.59375 C 77.730469 76.117188 76.664062 75.367188 75.804688 74.433594 C 76.585938 75.265625 77.535156 75.945312 78.574219 76.417969 C 79.613281 76.894531 80.746094 77.164062 81.886719 77.210938 C 82.027344 77.214844 82.167969 77.21875 82.304688 77.21875 L 82.726562 77.207031 C 82.890625 77.195312 83.015625 77.183594 83.140625 77.175781 C 83.15625 77.171875 83.171875 77.171875 83.1875 77.171875 C 83.203125 77.167969 83.21875 77.167969 83.234375 77.164062 C 83.265625 77.160156 83.300781 77.15625 83.332031 77.152344 C 83.402344 77.144531 83.472656 77.132812 83.554688 77.121094 C 83.589844 77.117188 83.625 77.113281 83.660156 77.109375 L 83.761719 77.089844 L 83.96875 77.050781 C 84.105469 77.03125 84.238281 76.992188 84.375 76.964844 C 84.414062 76.953125 84.453125 76.945312 84.484375 76.9375 C 84.519531 76.929688 84.546875 76.921875 84.578125 76.914062 C 84.636719 76.898438 84.699219 76.878906 84.777344 76.855469 C 84.859375 76.832031 84.898438 76.820312 84.980469 76.796875 C 85.054688 76.773438 85.09375 76.757812 85.167969 76.734375 C 85.226562 76.714844 85.289062 76.691406 85.351562 76.671875 C 85.382812 76.660156 85.414062 76.648438 85.445312 76.636719 C 85.476562 76.621094 85.507812 76.609375 85.539062 76.597656 C 85.597656 76.574219 85.660156 76.550781 85.714844 76.527344 C 85.746094 76.515625 85.773438 76.503906 85.800781 76.496094 C 85.828125 76.484375 85.851562 76.472656 85.878906 76.460938 C 86.875 76.039062 87.789062 75.421875 88.566406 74.667969 L 88.367188 74.84375 C 88.296875 74.902344 88.230469 74.957031 88.160156 75.011719 C 88.023438 75.128906 87.878906 75.230469 87.734375 75.332031 L 87.964844 75.148438 C 88.003906 75.117188 88.039062 75.085938 88.074219 75.054688 L 88.1875 74.957031 C 88.335938 74.828125 88.472656 74.6875 88.613281 74.550781 C 88.464844 74.691406 88.320312 74.832031 88.164062 74.960938 C 88.011719 75.09375 87.851562 75.214844 87.691406 75.339844 C 87.609375 75.398438 87.527344 75.457031 87.441406 75.515625 L 87.320312 75.601562 C 87.277344 75.628906 87.234375 75.65625 87.191406 75.683594 L 86.933594 75.84375 L 86.671875 75.992188 C 86.625 76.015625 86.582031 76.042969 86.539062 76.066406 L 86.402344 76.132812 L 86.269531 76.199219 C 86.222656 76.222656 86.179688 76.246094 86.132812 76.265625 L 85.855469 76.386719 L 85.785156 76.417969 C 85.761719 76.429688 85.738281 76.4375 85.714844 76.445312 L 85.433594 76.554688 L 85.292969 76.601562 L 85.003906 76.695312 C 84.980469 76.703125 84.957031 76.710938 84.933594 76.71875 L 84.859375 76.738281 L 84.714844 76.777344 C 84.617188 76.804688 84.523438 76.832031 84.421875 76.851562 C 85.488281 76.589844 86.507812 76.128906 87.40625 75.492188 L 87.636719 75.328125 L 87.859375 75.148438 L 87.96875 75.0625 L 88.078125 74.96875 L 88.292969 74.78125 C 88.550781 74.53125 88.808594 74.28125 89.039062 74.007812 C 89.007812 74.042969 88.964844 74.082031 88.929688 74.121094 C 88.890625 74.167969 88.84375 74.214844 88.796875 74.257812 L 88.660156 74.398438 L 88.589844 74.464844 C 88.566406 74.488281 88.542969 74.511719 88.519531 74.53125 L 88.3125 74.726562 C 88.28125 74.761719 88.246094 74.792969 88.207031 74.824219 L 88.101562 74.917969 C 87.960938 75.042969 87.808594 75.15625 87.660156 75.273438 C 87.625 75.304688 87.585938 75.332031 87.546875 75.359375 L 87.433594 75.441406 C 87.355469 75.492188 87.28125 75.550781 87.199219 75.601562 C 87.121094 75.652344 87.039062 75.703125 86.960938 75.75 C 86.941406 75.765625 86.921875 75.777344 86.902344 75.789062 L 86.839844 75.824219 L 86.71875 75.894531 C 86.675781 75.917969 86.632812 75.941406 86.59375 75.964844 C 86.570312 75.976562 86.550781 75.992188 86.527344 76 L 86.464844 76.035156 C 86.375 76.078125 86.289062 76.125 86.199219 76.167969 C 86.160156 76.191406 86.117188 76.207031 86.074219 76.226562 C 86.03125 76.246094 85.988281 76.265625 85.945312 76.285156 C 85.902344 76.304688 85.855469 76.324219 85.8125 76.34375 C 85.792969 76.351562 85.769531 76.363281 85.746094 76.371094 L 85.679688 76.398438 C 85.589844 76.433594 85.5 76.46875 85.410156 76.503906 C 85.386719 76.515625 85.367188 76.523438 85.34375 76.53125 C 85.320312 76.539062 85.296875 76.546875 85.273438 76.554688 C 85.226562 76.570312 85.179688 76.585938 85.128906 76.605469 C 84.941406 76.671875 84.734375 76.726562 84.523438 76.789062 C 84.644531 76.75 84.765625 76.710938 84.882812 76.671875 L 84.925781 76.660156 C 84.941406 76.652344 84.957031 76.648438 84.96875 76.644531 C 85 76.632812 85.027344 76.621094 85.054688 76.609375 C 85.113281 76.589844 85.167969 76.570312 85.222656 76.550781 C 85.332031 76.511719 85.441406 76.460938 85.550781 76.417969 C 85.605469 76.394531 85.65625 76.371094 85.707031 76.351562 C 85.757812 76.328125 85.804688 76.304688 85.851562 76.28125 C 85.90625 76.257812 85.960938 76.230469 86.015625 76.207031 C 86.070312 76.179688 86.125 76.15625 86.179688 76.128906 C 86.285156 76.070312 86.394531 76.015625 86.5 75.957031 C 86.605469 75.898438 86.707031 75.835938 86.8125 75.773438 C 86.835938 75.757812 86.863281 75.746094 86.886719 75.730469 L 86.964844 75.679688 C 87.011719 75.648438 87.0625 75.613281 87.113281 75.582031 C 87.503906 75.320312 87.882812 75.027344 88.234375 74.707031 C 88.582031 74.386719 88.902344 74.035156 89.191406 73.667969 C 89.484375 73.289062 89.742188 72.894531 89.953125 72.476562 C 90.167969 72.0625 90.347656 71.628906 90.488281 71.171875 C 90.472656 71.214844 90.453125 71.253906 90.4375 71.296875 C 90.421875 71.339844 90.402344 71.382812 90.386719 71.425781 C 90.351562 71.507812 90.320312 71.59375 90.277344 71.683594 C 90.238281 71.773438 90.191406 71.867188 90.144531 71.972656 C 90.09375 72.074219 90.035156 72.183594 89.96875 72.308594 C 90.441406 71.355469 90.730469 70.316406 90.816406 69.269531 L 90.828125 69.132812 L 90.832031 68.996094 L 90.84375 68.722656 C 90.847656 68.632812 90.84375 68.539062 90.84375 68.449219 C 90.84375 68.359375 90.84375 68.265625 90.835938 68.175781 C 90.832031 68.085938 90.824219 67.996094 90.820312 67.90625 L 90.816406 67.839844 L 90.808594 67.773438 L 90.796875 67.636719 C 90.792969 67.59375 90.785156 67.546875 90.78125 67.503906 C 90.777344 67.460938 90.773438 67.414062 90.765625 67.371094 C 90.75 67.28125 90.734375 67.195312 90.71875 67.109375 L 90.753906 67.394531 C 90.761719 67.488281 90.769531 67.585938 90.777344 67.679688 L 90.789062 67.824219 C 90.792969 67.871094 90.792969 67.917969 90.792969 67.96875 L 90.804688 68.253906 C 90.804688 68.351562 90.800781 68.445312 90.800781 68.542969 L 90.800781 68.6875 C 90.800781 68.734375 90.796875 68.78125 90.792969 68.828125 L 90.777344 69.117188 C 90.765625 69.210938 90.757812 69.308594 90.746094 69.402344 C 90.695312 69.824219 90.617188 70.242188 90.496094 70.652344 C 90.480469 70.703125 90.46875 70.753906 90.453125 70.804688 L 90.402344 70.953125 C 90.367188 71.054688 90.335938 71.15625 90.296875 71.253906 C 90.257812 71.355469 90.21875 71.453125 90.179688 71.550781 C 90.136719 71.648438 90.089844 71.746094 90.046875 71.84375 L 90.160156 71.578125 C 90.195312 71.492188 90.226562 71.398438 90.261719 71.3125 L 90.3125 71.175781 C 90.328125 71.132812 90.339844 71.085938 90.355469 71.039062 L 90.441406 70.765625 L 90.515625 70.488281 C 90.527344 70.441406 90.539062 70.398438 90.550781 70.351562 L 90.578125 70.210938 C 90.597656 70.117188 90.621094 70.023438 90.636719 69.929688 C 90.652344 69.835938 90.667969 69.742188 90.679688 69.648438 C 90.6875 69.613281 90.691406 69.578125 90.695312 69.542969 C 90.699219 69.511719 90.703125 69.476562 90.707031 69.441406 C 90.714844 69.375 90.722656 69.3125 90.726562 69.25 C 90.742188 69.125 90.746094 69.007812 90.753906 68.898438 C 90.753906 68.84375 90.757812 68.789062 90.761719 68.738281 C 90.761719 68.710938 90.761719 68.6875 90.761719 68.660156 C 90.761719 68.636719 90.761719 68.609375 90.761719 68.585938 C 90.761719 68.488281 90.761719 68.398438 90.761719 68.308594 C 90.757812 68.222656 90.753906 68.140625 90.75 68.0625 C 90.742188 67.984375 90.738281 67.910156 90.734375 67.835938 C 90.714844 67.691406 90.699219 67.550781 90.683594 67.410156 C 90.65625 67.269531 90.632812 67.125 90.605469 66.96875 C 90.574219 66.8125 90.535156 66.648438 90.488281 66.472656 C 90.515625 66.597656 90.542969 66.726562 90.566406 66.855469 C 90.589844 66.984375 90.605469 67.113281 90.621094 67.242188 C 90.632812 67.304688 90.640625 67.367188 90.648438 67.425781 C 90.652344 67.488281 90.660156 67.550781 90.664062 67.613281 C 90.675781 67.734375 90.691406 67.851562 90.691406 67.96875 C 90.722656 68.566406 90.6875 69.167969 90.585938 69.757812 C 90.738281 68.726562 90.699219 67.667969 90.46875 66.664062 C 90.4375 66.527344 90.402344 66.390625 90.367188 66.257812 C 90.359375 66.238281 90.339844 66.160156 90.316406 66.089844 C 90.292969 66.019531 90.273438 65.957031 90.273438 65.960938 C 90.265625 65.972656 90.285156 66.042969 90.308594 66.117188 C 90.328125 66.1875 90.351562 66.265625 90.355469 66.289062 C 90.417969 66.539062 90.46875 66.792969 90.503906 67.046875 L 90.554688 67.433594 L 90.585938 67.816406 C 90.589844 67.851562 90.589844 67.882812 90.589844 67.914062 L 90.59375 68.011719 L 90.597656 68.207031 C 90.601562 68.269531 90.601562 68.335938 90.597656 68.398438 L 90.59375 68.59375 C 90.59375 68.6875 90.585938 68.785156 90.578125 68.878906 L 90.570312 69.019531 L 90.5625 69.09375 C 90.5625 69.117188 90.558594 69.140625 90.554688 69.164062 L 90.519531 69.449219 C 90.515625 69.472656 90.515625 69.496094 90.511719 69.519531 L 90.476562 69.730469 C 90.550781 69.242188 90.585938 68.746094 90.574219 68.253906 C 90.566406 67.761719 90.507812 67.269531 90.417969 66.785156 C 90.410156 66.742188 90.402344 66.695312 90.394531 66.652344 C 90.382812 66.605469 90.375 66.5625 90.363281 66.519531 C 90.402344 66.742188 90.433594 66.941406 90.449219 67.121094 C 90.460938 67.210938 90.46875 67.292969 90.476562 67.375 C 90.476562 67.394531 90.480469 67.414062 90.480469 67.433594 C 90.484375 67.453125 90.484375 67.472656 90.484375 67.492188 C 90.488281 67.527344 90.488281 67.566406 90.492188 67.601562 C 90.496094 67.675781 90.5 67.742188 90.503906 67.8125 C 90.503906 67.828125 90.503906 67.84375 90.503906 67.863281 C 90.503906 67.878906 90.503906 67.894531 90.503906 67.910156 C 90.503906 67.945312 90.503906 67.976562 90.503906 68.007812 C 90.503906 68.140625 90.511719 68.265625 90.5 68.398438 C 90.507812 68.285156 90.488281 68.148438 90.480469 68.039062 L 90.464844 67.855469 L 90.445312 67.671875 C 90.429688 67.554688 90.417969 67.441406 90.394531 67.328125 C 90.375 67.210938 90.359375 67.097656 90.335938 66.984375 C 90.242188 66.496094 90.097656 66.019531 89.910156 65.570312 C 89.859375 65.445312 89.804688 65.328125 89.746094 65.207031 C 89.691406 65.09375 89.621094 64.9375 89.554688 64.839844 C 89.574219 64.878906 89.589844 64.917969 89.609375 64.960938 C 89.628906 65 89.648438 65.039062 89.664062 65.078125 " fill-opacity="1" fill-rule="nonzero"/></g><g clip-path="url(#53de589507)"><path fill="#ff7300" d="M 92.285156 61.007812 C 92.226562 61.019531 92.167969 61.03125 92.109375 61.042969 L 92.023438 61.0625 C 91.996094 61.070312 91.964844 61.078125 91.9375 61.089844 C 91.882812 61.105469 91.824219 61.125 91.765625 61.140625 C 91.710938 61.160156 91.652344 61.175781 91.597656 61.199219 C 91.542969 61.222656 91.488281 61.242188 91.433594 61.265625 C 91.378906 61.289062 91.324219 61.3125 91.269531 61.339844 C 91.214844 61.363281 91.164062 61.390625 91.113281 61.417969 C 91.0625 61.445312 91.011719 61.472656 90.964844 61.5 L 90.890625 61.539062 C 90.863281 61.554688 90.839844 61.570312 90.816406 61.585938 C 90.773438 61.613281 90.726562 61.632812 90.679688 61.652344 C 90.632812 61.675781 90.566406 61.691406 90.53125 61.722656 C 90.59375 61.667969 90.664062 61.613281 90.734375 61.5625 C 90.769531 61.535156 90.804688 61.507812 90.839844 61.484375 C 90.878906 61.457031 90.914062 61.433594 90.953125 61.410156 C 91.027344 61.363281 91.105469 61.316406 91.179688 61.273438 C 91.257812 61.226562 91.339844 61.1875 91.414062 61.144531 C 90.984375 61.347656 90.566406 61.574219 90.160156 61.808594 C 90.085938 61.847656 90.019531 61.890625 89.949219 61.929688 C 89.878906 61.96875 89.808594 62.011719 89.734375 62.050781 C 90.125 61.769531 90.53125 61.515625 90.964844 61.289062 L 91.089844 61.222656 C 91.128906 61.203125 91.171875 61.179688 91.214844 61.160156 L 91.472656 61.042969 C 91.507812 61.027344 91.546875 61.003906 91.585938 60.988281 C 91.625 60.972656 91.664062 60.960938 91.703125 60.953125 C 91.789062 60.9375 91.878906 60.90625 91.964844 60.878906 L 91.945312 60.882812 C 91.890625 60.882812 91.832031 60.898438 91.777344 60.910156 C 91.710938 60.921875 91.640625 60.933594 91.574219 60.949219 C 91.488281 60.972656 91.402344 61 91.316406 61.03125 C 91.234375 61.058594 91.148438 61.089844 91.066406 61.125 C 90.984375 61.164062 90.902344 61.199219 90.824219 61.238281 L 90.761719 61.265625 C 90.742188 61.277344 90.722656 61.289062 90.703125 61.296875 L 90.585938 61.359375 C 90.089844 61.621094 89.621094 61.917969 89.15625 62.214844 C 89.179688 62.199219 89.203125 62.160156 89.222656 62.136719 C 89.25 62.113281 89.273438 62.089844 89.300781 62.066406 C 89.367188 62.003906 89.4375 61.949219 89.5 61.886719 C 89.519531 61.871094 89.539062 61.851562 89.558594 61.832031 C 89.578125 61.816406 89.601562 61.800781 89.621094 61.78125 C 89.664062 61.75 89.707031 61.71875 89.753906 61.6875 C 89.847656 61.625 89.941406 61.566406 90.03125 61.511719 L 90.191406 61.417969 L 90.269531 61.367188 L 90.308594 61.34375 L 90.347656 61.324219 L 90.671875 61.144531 C 90.882812 61.039062 91.082031 60.921875 91.292969 60.820312 L 91.414062 60.761719 L 91.472656 60.730469 L 91.53125 60.703125 C 91.050781 60.855469 90.585938 61.046875 90.136719 61.261719 C 90.027344 61.316406 89.914062 61.371094 89.804688 61.429688 C 89.703125 61.484375 89.605469 61.554688 89.503906 61.617188 C 89.453125 61.648438 89.402344 61.683594 89.351562 61.71875 L 89.195312 61.820312 C 89.144531 61.855469 89.09375 61.890625 89.042969 61.925781 L 88.890625 62.03125 L 88.683594 62.179688 L 88.480469 62.332031 C 88.414062 62.382812 88.34375 62.433594 88.277344 62.488281 L 88.078125 62.644531 C 87.910156 62.75 87.789062 62.847656 87.703125 62.878906 C 88.203125 62.488281 88.691406 62.066406 89.226562 61.703125 C 89.277344 61.667969 89.332031 61.632812 89.382812 61.597656 C 89.433594 61.558594 89.488281 61.527344 89.542969 61.492188 L 89.707031 61.390625 L 89.785156 61.339844 C 89.8125 61.320312 89.839844 61.304688 89.871094 61.289062 L 90.203125 61.09375 C 90.316406 61.03125 90.429688 60.96875 90.546875 60.910156 C 90.585938 60.886719 90.628906 60.867188 90.671875 60.847656 L 90.804688 60.785156 L 90.988281 60.695312 C 91.027344 60.679688 91.078125 60.664062 91.117188 60.640625 C 91.121094 60.636719 91.125 60.636719 91.128906 60.632812 C 91.097656 60.640625 91.066406 60.652344 91.035156 60.664062 C 91.003906 60.675781 90.976562 60.6875 90.945312 60.703125 L 90.761719 60.78125 C 90.703125 60.804688 90.644531 60.828125 90.589844 60.851562 C 90.53125 60.878906 90.476562 60.90625 90.421875 60.933594 L 90.175781 61.0625 C 90.148438 61.078125 90.121094 61.09375 90.097656 61.109375 L 89.777344 61.296875 L 89.472656 61.492188 C 89.386719 61.542969 89.304688 61.601562 89.226562 61.65625 C 89.144531 61.710938 89.0625 61.765625 88.980469 61.820312 L 88.742188 61.992188 L 88.621094 62.074219 L 88.503906 62.164062 C 88.246094 62.289062 87.976562 62.46875 87.71875 62.664062 C 87.65625 62.714844 87.589844 62.765625 87.527344 62.8125 C 87.496094 62.839844 87.464844 62.863281 87.433594 62.886719 C 87.402344 62.914062 87.371094 62.9375 87.339844 62.960938 C 87.21875 63.0625 87.101562 63.160156 86.992188 63.25 C 87.027344 63.207031 87.058594 63.171875 87.082031 63.144531 C 87.105469 63.121094 87.121094 63.097656 87.132812 63.082031 C 87.160156 63.050781 87.167969 63.039062 87.175781 63.023438 C 87.191406 63 87.199219 62.984375 87.324219 62.847656 C 87.300781 62.867188 87.15625 62.992188 87.011719 63.117188 C 86.871094 63.246094 86.730469 63.378906 86.703125 63.402344 C 86.675781 63.425781 86.648438 63.449219 86.625 63.472656 C 86.601562 63.496094 86.578125 63.519531 86.554688 63.539062 C 86.460938 63.632812 86.363281 63.730469 86.269531 63.820312 C 86.226562 63.867188 86.175781 63.914062 86.128906 63.964844 C 86.082031 64.011719 86.03125 64.0625 85.980469 64.113281 C 85.953125 64.136719 85.929688 64.164062 85.902344 64.1875 C 85.875 64.214844 85.847656 64.242188 85.820312 64.269531 C 85.765625 64.324219 85.710938 64.378906 85.652344 64.433594 C 85.722656 64.347656 85.789062 64.273438 85.847656 64.207031 C 85.902344 64.140625 85.960938 64.085938 86.007812 64.03125 C 86.101562 63.925781 86.183594 63.839844 86.261719 63.753906 C 86.355469 63.652344 86.398438 63.597656 86.488281 63.492188 C 86.449219 63.53125 86.339844 63.636719 86.230469 63.742188 C 86.125 63.847656 86.019531 63.953125 85.980469 63.996094 C 85.378906 64.628906 84.808594 65.300781 84.277344 65.980469 C 84.03125 66.292969 83.789062 66.613281 83.550781 66.929688 C 83.492188 67.003906 83.4375 67.085938 83.378906 67.160156 C 83.375 67.164062 83.339844 67.214844 83.28125 67.296875 C 83.25 67.339844 83.214844 67.390625 83.175781 67.449219 C 83.132812 67.507812 83.085938 67.578125 83.035156 67.652344 C 82.980469 67.730469 82.925781 67.8125 82.863281 67.902344 C 82.398438 68.582031 81.976562 69.296875 81.546875 70 C 81.5 70.074219 81.394531 70.074219 81.347656 70 C 81.246094 69.847656 81.097656 69.640625 81.074219 69.601562 C 80.953125 69.402344 80.835938 69.203125 80.722656 68.996094 C 80.519531 68.625 80.332031 68.246094 80.152344 67.859375 C 79.972656 67.511719 79.707031 67.238281 79.414062 67.082031 C 79.117188 66.921875 78.792969 66.878906 78.5 66.996094 C 78.203125 67.117188 77.996094 67.390625 77.914062 67.742188 C 77.832031 68.089844 77.878906 68.515625 78.070312 68.921875 L 78.070312 68.925781 C 78.074219 68.929688 78.082031 68.945312 78.097656 68.980469 C 78.40625 69.644531 78.738281 70.292969 79.121094 70.914062 C 79.476562 71.492188 79.875 72.097656 80.359375 72.578125 C 80.492188 72.710938 80.640625 72.828125 80.8125 72.914062 C 81.1875 73.109375 81.648438 73.125 82.046875 72.980469 C 82.746094 72.730469 83.113281 72.054688 83.453125 71.445312 C 83.648438 71.097656 83.84375 70.746094 84.039062 70.398438 C 84.136719 70.226562 84.226562 70.042969 84.332031 69.875 C 84.414062 69.742188 84.523438 69.621094 84.613281 69.488281 C 84.886719 69.066406 85.171875 68.652344 85.46875 68.246094 C 85.476562 68.238281 85.484375 68.226562 85.496094 68.214844 C 85.980469 67.5625 86.476562 66.910156 87.007812 66.308594 C 87.320312 65.949219 87.652344 65.605469 87.976562 65.261719 C 87.746094 65.425781 87.796875 65.390625 87.707031 65.417969 C 87.769531 65.355469 87.828125 65.296875 87.886719 65.242188 C 87.945312 65.183594 88.003906 65.128906 88.058594 65.074219 C 88.105469 65.027344 88.179688 64.964844 88.246094 64.90625 C 88.3125 64.847656 88.382812 64.789062 88.449219 64.730469 C 88.714844 64.503906 88.984375 64.28125 89.253906 64.070312 C 89.085938 64.1875 88.917969 64.308594 88.753906 64.4375 C 88.585938 64.578125 88.414062 64.714844 88.25 64.859375 C 88.089844 64.996094 87.9375 65.144531 87.78125 65.285156 C 87.703125 65.359375 87.625 65.433594 87.550781 65.507812 C 87.519531 65.535156 87.5 65.570312 87.472656 65.597656 C 87.4375 65.636719 87.402344 65.671875 87.367188 65.710938 C 87.285156 65.800781 87.203125 65.890625 87.121094 65.976562 C 86.792969 66.347656 86.46875 66.734375 86.15625 67.125 C 85.835938 67.527344 85.515625 67.929688 85.1875 68.332031 C 85.464844 67.957031 85.742188 67.585938 86.03125 67.21875 L 86.136719 67.082031 C 86.171875 67.039062 86.210938 66.992188 86.246094 66.949219 L 86.464844 66.679688 C 86.613281 66.5 86.761719 66.320312 86.914062 66.148438 L 87.027344 66.023438 L 87.136719 65.898438 C 87.230469 65.796875 87.277344 65.75 87.367188 65.648438 C 87.445312 65.570312 87.519531 65.488281 87.597656 65.40625 C 87.644531 65.359375 87.667969 65.335938 87.714844 65.285156 C 87.738281 65.261719 87.75 65.25 87.773438 65.226562 C 87.796875 65.207031 87.808594 65.195312 87.832031 65.171875 C 87.90625 65.101562 87.984375 65.019531 88.050781 64.960938 C 88.378906 64.679688 88.703125 64.402344 89.042969 64.144531 L 88.675781 64.359375 C 88.792969 64.261719 88.914062 64.160156 89.03125 64.058594 C 88.511719 64.433594 88.007812 64.847656 87.519531 65.289062 C 87.839844 64.976562 88.167969 64.667969 88.503906 64.382812 C 88.621094 64.28125 88.742188 64.1875 88.859375 64.09375 C 88.96875 64 89.089844 63.921875 89.203125 63.835938 C 89.1875 63.847656 89.164062 63.851562 89.148438 63.863281 L 89.082031 63.90625 L 88.945312 63.984375 C 88.824219 64.078125 88.707031 64.175781 88.585938 64.269531 C 88.46875 64.367188 88.347656 64.460938 88.230469 64.5625 C 88.171875 64.613281 88.113281 64.664062 88.050781 64.71875 C 87.992188 64.765625 87.933594 64.816406 87.875 64.871094 C 87.816406 64.925781 87.761719 64.980469 87.703125 65.035156 C 87.640625 65.09375 87.578125 65.152344 87.515625 65.21875 C 87.578125 65.136719 87.648438 65.058594 87.710938 64.984375 C 87.777344 64.914062 87.839844 64.835938 87.898438 64.773438 C 87.972656 64.707031 88.042969 64.636719 88.113281 64.566406 C 88.148438 64.53125 88.183594 64.496094 88.222656 64.464844 C 88.257812 64.429688 88.296875 64.398438 88.332031 64.367188 C 88.402344 64.304688 88.476562 64.238281 88.550781 64.175781 C 88.628906 64.113281 88.703125 64.054688 88.777344 63.992188 C 88.816406 63.960938 88.855469 63.929688 88.890625 63.902344 C 88.929688 63.871094 88.96875 63.84375 89.007812 63.8125 C 89.082031 63.753906 89.160156 63.699219 89.234375 63.640625 C 89.3125 63.582031 89.390625 63.523438 89.464844 63.464844 C 89.503906 63.433594 89.539062 63.40625 89.578125 63.375 C 89.613281 63.347656 89.652344 63.316406 89.6875 63.289062 C 89.761719 63.230469 89.835938 63.164062 89.910156 63.105469 C 89.984375 63.046875 90.058594 62.984375 90.132812 62.917969 C 90.066406 62.957031 90.003906 62.988281 89.933594 63.03125 C 89.898438 63.050781 89.863281 63.070312 89.820312 63.09375 C 89.78125 63.117188 89.738281 63.144531 89.6875 63.171875 C 90.03125 62.898438 90.378906 62.636719 90.746094 62.398438 C 90.808594 62.355469 90.875 62.316406 90.9375 62.277344 L 91.132812 62.160156 C 91.199219 62.121094 91.265625 62.085938 91.332031 62.050781 C 91.363281 62.035156 91.398438 62.015625 91.429688 61.996094 C 91.464844 61.980469 91.496094 61.960938 91.527344 61.941406 C 91.488281 61.953125 91.453125 61.96875 91.414062 61.984375 L 91.195312 62.078125 C 91.15625 62.09375 91.121094 62.109375 91.085938 62.128906 C 91.011719 62.167969 90.941406 62.203125 90.871094 62.242188 C 90.835938 62.261719 90.800781 62.277344 90.765625 62.300781 L 90.660156 62.363281 C 90.585938 62.40625 90.507812 62.453125 90.429688 62.496094 C 90.355469 62.542969 90.277344 62.589844 90.199219 62.632812 L 90.085938 62.703125 L 89.96875 62.773438 C 89.894531 62.820312 89.816406 62.863281 89.738281 62.910156 L 89.9375 62.773438 C 90.003906 62.726562 90.070312 62.679688 90.140625 62.636719 C 90.277344 62.550781 90.410156 62.457031 90.546875 62.375 C 90.601562 62.34375 90.648438 62.316406 90.695312 62.285156 C 90.714844 62.273438 90.738281 62.257812 90.757812 62.246094 C 90.78125 62.234375 90.800781 62.222656 90.824219 62.210938 C 90.902344 62.164062 90.972656 62.121094 91.039062 62.085938 C 91.101562 62.046875 91.160156 62.015625 91.214844 61.984375 C 91.269531 61.953125 91.320312 61.921875 91.375 61.890625 C 91.398438 61.875 91.425781 61.859375 91.453125 61.84375 C 91.484375 61.828125 91.511719 61.8125 91.542969 61.792969 C 91.601562 61.761719 91.667969 61.726562 91.738281 61.691406 C 91.632812 61.726562 91.523438 61.769531 91.421875 61.8125 C 91.324219 61.859375 91.226562 61.902344 91.136719 61.945312 C 91.078125 61.972656 91.019531 62.003906 90.964844 62.035156 L 90.792969 62.121094 C 90.761719 62.136719 90.734375 62.152344 90.707031 62.167969 L 90.621094 62.214844 L 90.453125 62.308594 C 90.828125 62.054688 91.222656 61.832031 91.636719 61.640625 L 91.71875 61.601562 L 91.804688 61.5625 C 91.820312 61.558594 91.933594 61.511719 91.929688 61.503906 C 91.914062 61.484375 91.804688 61.539062 91.785156 61.542969 C 91.757812 61.550781 91.730469 61.5625 91.703125 61.570312 L 91.460938 61.660156 L 91.382812 61.691406 L 91.300781 61.726562 L 91.144531 61.792969 C 91.089844 61.816406 91.039062 61.835938 90.988281 61.859375 L 90.832031 61.933594 L 90.714844 61.988281 C 90.679688 62.007812 90.640625 62.027344 90.601562 62.046875 L 90.378906 62.167969 C 90.75 61.933594 91.144531 61.722656 91.554688 61.5625 L 91.667969 61.519531 C 91.570312 61.542969 91.480469 61.566406 91.402344 61.585938 C 91.382812 61.59375 91.363281 61.597656 91.34375 61.601562 C 91.328125 61.609375 91.308594 61.613281 91.292969 61.621094 C 91.257812 61.632812 91.226562 61.640625 91.195312 61.652344 C 91.066406 61.695312 90.964844 61.726562 90.851562 61.773438 C 90.898438 61.753906 90.945312 61.707031 90.988281 61.683594 L 91.136719 61.597656 C 91.183594 61.566406 91.230469 61.542969 91.277344 61.515625 C 91.324219 61.488281 91.375 61.464844 91.421875 61.441406 L 91.65625 61.324219 C 91.679688 61.308594 91.707031 61.300781 91.734375 61.285156 C 91.839844 61.238281 91.945312 61.1875 92.050781 61.136719 L 92.226562 61.058594 C 92.28125 61.035156 92.359375 61.011719 92.40625 60.972656 C 92.367188 60.980469 92.328125 61 92.285156 61.007812 " fill-opacity="1" fill-rule="nonzero"/></g></svg>