<svg xmlns="http://www.w3.org/2000/svg" xmlns:xlink="http://www.w3.org/1999/xlink" width="150" zoomAndPan="magnify" viewBox="0 0 112.5 74.999997" height="100" preserveAspectRatio="xMidYMid meet" version="1.0"><defs><clipPath id="2fe124d582"><path d="M 38 43 L 48 43 L 48 52.433594 L 38 52.433594 Z M 38 43 " clip-rule="nonzero"/></clipPath><clipPath id="6dc7bab418"><path d="M 64 43 L 74 43 L 74 52.433594 L 64 52.433594 Z M 64 43 " clip-rule="nonzero"/></clipPath><clipPath id="85b6d1a653"><path d="M 41 22.566406 L 72 22.566406 L 72 35 L 41 35 Z M 41 22.566406 " clip-rule="nonzero"/></clipPath><clipPath id="9b6ddc0553"><path d="M 56 22.566406 L 72 22.566406 L 72 35 L 56 35 Z M 56 22.566406 " clip-rule="nonzero"/></clipPath><clipPath id="ce43a8512e"><path d="M 36.382812 31 L 75.957031 31 L 75.957031 48 L 36.382812 48 Z M 36.382812 31 " clip-rule="nonzero"/></clipPath><clipPath id="9abb04da4d"><path d="M 56 31 L 75.957031 31 L 75.957031 48 L 56 48 Z M 56 31 " clip-rule="nonzero"/></clipPath></defs><g clip-path="url(#2fe124d582)"><path fill="#3e5959" d="M 44.503906 52.433594 L 42.1875 52.433594 C 40.269531 52.433594 38.707031 50.886719 38.707031 48.988281 L 38.707031 44.390625 C 38.707031 43.757812 39.226562 43.242188 39.867188 43.242188 L 44.503906 43.242188 C 44.8125 43.242188 45.105469 43.367188 45.324219 43.582031 L 47.640625 45.878906 C 47.855469 46.09375 47.980469 46.382812 47.980469 46.691406 L 47.980469 48.988281 C 47.980469 50.886719 46.421875 52.433594 44.503906 52.433594 Z M 44.503906 52.433594 " fill-opacity="1" fill-rule="nonzero"/></g><g clip-path="url(#6dc7bab418)"><path fill="#384949" d="M 70.15625 52.433594 L 67.839844 52.433594 C 65.921875 52.433594 64.359375 50.886719 64.359375 48.988281 L 64.359375 46.691406 C 64.359375 46.382812 64.484375 46.09375 64.699219 45.878906 L 67.019531 43.582031 C 67.234375 43.367188 67.527344 43.242188 67.839844 43.242188 L 72.472656 43.242188 C 73.117188 43.242188 73.632812 43.757812 73.632812 44.390625 L 73.632812 48.988281 C 73.632812 50.886719 72.074219 52.433594 70.15625 52.433594 Z M 70.15625 52.433594 " fill-opacity="1" fill-rule="nonzero"/></g><path fill="#3e5959" d="M 70.15625 32.90625 L 42.1875 32.90625 L 46.820312 23.714844 L 65.519531 23.714844 Z M 70.15625 32.90625 " fill-opacity="1" fill-rule="nonzero"/><path fill="#384949" d="M 70.15625 32.90625 L 56.171875 32.90625 L 56.171875 23.714844 L 65.519531 23.714844 Z M 70.15625 32.90625 " fill-opacity="1" fill-rule="nonzero"/><g clip-path="url(#85b6d1a653)"><path fill="#ff9f00" d="M 71.199219 32.398438 L 66.5625 23.210938 C 66.355469 22.820312 65.960938 22.566406 65.519531 22.566406 L 46.820312 22.566406 C 46.382812 22.566406 45.988281 22.820312 45.777344 23.210938 L 41.144531 32.398438 C 40.980469 32.746094 40.980469 33.179688 41.1875 33.503906 C 41.421875 33.847656 41.792969 34.054688 42.1875 34.054688 L 70.15625 34.054688 C 70.550781 34.054688 70.921875 33.847656 71.152344 33.503906 C 71.363281 33.179688 71.363281 32.746094 71.199219 32.398438 Z M 44.0625 31.757812 L 47.539062 24.863281 L 64.800781 24.863281 L 68.277344 31.757812 Z M 44.0625 31.757812 " fill-opacity="1" fill-rule="nonzero"/></g><g clip-path="url(#9b6ddc0553)"><path fill="#ff7816" d="M 71.152344 33.503906 C 70.921875 33.847656 70.550781 34.054688 70.15625 34.054688 L 56.171875 34.054688 L 56.171875 31.757812 L 68.277344 31.757812 L 64.800781 24.863281 L 56.171875 24.863281 L 56.171875 22.566406 L 65.519531 22.566406 C 65.960938 22.566406 66.355469 22.820312 66.5625 23.210938 L 71.199219 32.398438 C 71.363281 32.746094 71.363281 33.179688 71.152344 33.503906 Z M 71.152344 33.503906 " fill-opacity="1" fill-rule="nonzero"/></g><g clip-path="url(#ce43a8512e)"><path fill="#ff9f00" d="M 72.472656 31.757812 L 39.867188 31.757812 C 37.945312 31.757812 36.390625 33.296875 36.390625 35.203125 L 36.390625 44.390625 C 36.390625 45.035156 36.902344 45.542969 37.550781 45.542969 L 44.015625 45.542969 L 46.011719 47.492188 C 46.21875 47.722656 46.519531 47.839844 46.820312 47.839844 L 65.519531 47.839844 C 65.820312 47.839844 66.121094 47.722656 66.332031 47.492188 L 68.324219 45.542969 L 74.792969 45.542969 C 75.441406 45.542969 75.949219 45.035156 75.949219 44.390625 L 75.949219 35.203125 C 75.949219 33.296875 74.398438 31.757812 72.472656 31.757812 Z M 72.472656 31.757812 " fill-opacity="1" fill-rule="nonzero"/></g><g clip-path="url(#9abb04da4d)"><path fill="#ff7816" d="M 75.949219 35.203125 L 75.949219 44.390625 C 75.949219 45.035156 75.441406 45.542969 74.792969 45.542969 L 68.324219 45.542969 L 66.332031 47.492188 C 66.121094 47.722656 65.820312 47.839844 65.519531 47.839844 L 56.171875 47.839844 L 56.171875 31.757812 L 72.472656 31.757812 C 74.398438 31.757812 75.949219 33.296875 75.949219 35.203125 Z M 75.949219 35.203125 " fill-opacity="1" fill-rule="nonzero"/></g><path fill="#ececf1" d="M 43.34375 40.945312 C 42.070312 40.945312 41.027344 39.914062 41.027344 38.648438 C 41.027344 37.386719 42.070312 36.351562 43.34375 36.351562 C 44.621094 36.351562 45.664062 37.386719 45.664062 38.648438 C 45.664062 39.914062 44.621094 40.945312 43.34375 40.945312 Z M 43.34375 40.945312 " fill-opacity="1" fill-rule="nonzero"/><path fill="#d3d3d8" d="M 68.996094 40.945312 C 67.722656 40.945312 66.679688 39.914062 66.679688 38.648438 C 66.679688 37.386719 67.722656 36.351562 68.996094 36.351562 C 70.273438 36.351562 71.316406 37.386719 71.316406 38.648438 C 71.316406 39.914062 70.273438 40.945312 68.996094 40.945312 Z M 68.996094 40.945312 " fill-opacity="1" fill-rule="nonzero"/><path fill="#4a696f" d="M 64.359375 37.5 C 64.359375 38.144531 63.851562 38.648438 63.203125 38.648438 L 49.140625 38.648438 C 48.492188 38.648438 47.980469 38.144531 47.980469 37.5 C 47.980469 36.855469 48.492188 36.351562 49.140625 36.351562 L 63.203125 36.351562 C 63.851562 36.351562 64.359375 36.855469 64.359375 37.5 Z M 64.359375 37.5 " fill-opacity="1" fill-rule="nonzero"/><path fill="#4a696f" d="M 62.042969 42.09375 C 62.042969 42.738281 61.53125 43.242188 60.882812 43.242188 L 51.457031 43.242188 C 50.808594 43.242188 50.296875 42.738281 50.296875 42.09375 C 50.296875 41.453125 50.808594 40.945312 51.457031 40.945312 L 60.882812 40.945312 C 61.53125 40.945312 62.042969 41.453125 62.042969 42.09375 Z M 62.042969 42.09375 " fill-opacity="1" fill-rule="nonzero"/><path fill="#3e5959" d="M 62.042969 42.09375 C 62.042969 42.738281 61.53125 43.242188 60.882812 43.242188 L 56.171875 43.242188 L 56.171875 40.945312 L 60.882812 40.945312 C 61.53125 40.945312 62.042969 41.453125 62.042969 42.09375 Z M 62.042969 42.09375 " fill-opacity="1" fill-rule="nonzero"/><path fill="#3e5959" d="M 64.359375 37.5 C 64.359375 38.144531 63.851562 38.648438 63.203125 38.648438 L 56.171875 38.648438 L 56.171875 36.351562 L 63.203125 36.351562 C 63.851562 36.351562 64.359375 36.855469 64.359375 37.5 Z M 64.359375 37.5 " fill-opacity="1" fill-rule="nonzero"/></svg>