<svg xmlns="http://www.w3.org/2000/svg" xmlns:xlink="http://www.w3.org/1999/xlink" width="150" zoomAndPan="magnify" viewBox="0 0 224.87999 225" height="100" preserveAspectRatio="xMidYMid meet" version="1.0"><defs><clipPath id="7d79a86641"><path d="M 0 0.0585938 L 224.761719 0.0585938 L 224.761719 224.9375 L 0 224.9375 Z M 0 0.0585938 " clip-rule="nonzero"/></clipPath><clipPath id="2a4ad5fc93"><path d="M 76.964844 59.945312 L 148 59.945312 L 148 149.898438 L 76.964844 149.898438 Z M 76.964844 59.945312 " clip-rule="nonzero"/></clipPath></defs><g clip-path="url(#7d79a86641)"><path fill="#ffffff" d="M 0 0.0585938 L 224.878906 0.0585938 L 224.878906 224.941406 L 0 224.941406 Z M 0 0.0585938 " fill-opacity="1" fill-rule="nonzero"/><path fill="#ffffff" d="M 0 0.0585938 L 224.878906 0.0585938 L 224.878906 224.941406 L 0 224.941406 Z M 0 0.0585938 " fill-opacity="1" fill-rule="nonzero"/></g><g clip-path="url(#2a4ad5fc93)"><path fill="#ff914d" d="M 112.4375 123.945312 C 96.675781 123.945312 83.902344 111.171875 83.902344 95.410156 C 83.902344 79.652344 96.675781 66.878906 112.4375 66.878906 C 128.191406 66.878906 140.964844 79.652344 140.964844 95.410156 C 140.964844 111.171875 128.191406 123.945312 112.4375 123.945312 Z M 112.4375 59.949219 C 92.847656 59.949219 76.96875 75.820312 76.96875 95.410156 C 76.96875 126.835938 112.4375 149.898438 112.4375 149.898438 C 112.4375 149.898438 147.898438 126.835938 147.898438 95.410156 C 147.898438 75.820312 132.019531 59.949219 112.4375 59.949219 " fill-opacity="1" fill-rule="nonzero"/></g><path fill="#ff914d" d="M 124.527344 100.53125 C 123.34375 100.53125 120.890625 100.53125 120.890625 98.539062 C 120.890625 96.835938 122.824219 94.898438 124.527344 94.898438 C 126.226562 94.898438 127.617188 96.285156 127.617188 97.988281 C 127.617188 99.554688 126.433594 100.53125 124.527344 100.53125 Z M 118.539062 102.972656 C 118.539062 103.167969 118.382812 103.332031 118.183594 103.332031 L 106.683594 103.332031 C 106.488281 103.332031 106.328125 103.167969 106.328125 102.972656 L 106.328125 100.144531 C 106.328125 99.949219 106.488281 99.792969 106.683594 99.792969 L 118.183594 99.792969 C 118.382812 99.792969 118.539062 99.949219 118.539062 100.144531 Z M 100.34375 100.53125 C 98.4375 100.53125 97.253906 99.554688 97.253906 97.988281 C 97.253906 96.285156 98.640625 94.898438 100.34375 94.898438 C 102.042969 94.898438 103.984375 96.835938 103.984375 98.539062 C 103.984375 100.53125 101.523438 100.53125 100.34375 100.53125 Z M 102.773438 86.640625 C 103.226562 85.5625 104.601562 84.65625 105.769531 84.65625 L 119.101562 84.65625 C 120.269531 84.65625 121.640625 85.5625 122.097656 86.640625 L 123.9375 91.035156 C 121.027344 90.339844 117.191406 89.988281 112.4375 89.988281 C 107.675781 89.988281 103.84375 90.339844 100.929688 91.035156 Z M 130.75 96.78125 C 130.75 94.6875 129.421875 93.082031 126.789062 91.949219 L 128.738281 91.753906 C 128.9375 91.734375 129.117188 91.640625 129.246094 91.488281 C 129.375 91.332031 129.4375 91.136719 129.417969 90.9375 L 129.3125 89.851562 C 129.277344 89.449219 128.929688 89.144531 128.515625 89.171875 L 124.417969 89.128906 L 123.1875 86.1875 C 122.542969 84.664062 120.75 83.472656 119.101562 83.472656 L 105.769531 83.472656 C 104.117188 83.472656 102.324219 84.664062 101.6875 86.1875 L 100.449219 89.128906 L 96.351562 89.171875 C 95.9375 89.144531 95.589844 89.449219 95.554688 89.851562 L 95.453125 90.9375 C 95.433594 91.136719 95.492188 91.332031 95.621094 91.488281 C 95.75 91.640625 95.929688 91.734375 96.128906 91.753906 L 98.078125 91.949219 C 95.445312 93.082031 94.117188 94.6875 94.117188 96.78125 L 94.117188 97.140625 C 94.113281 99.019531 94.101562 100.953125 95.621094 102.476562 C 95.792969 102.644531 95.984375 102.8125 96.195312 102.96875 L 96.195312 106.671875 C 96.195312 107.277344 96.691406 107.769531 97.292969 107.769531 L 102.304688 107.769531 C 102.90625 107.769531 103.398438 107.277344 103.398438 106.671875 L 103.398438 105.203125 C 105.835938 105.507812 108.824219 105.652344 112.4375 105.652344 C 116.042969 105.652344 119.035156 105.507812 121.46875 105.203125 L 121.46875 106.671875 C 121.46875 107.277344 121.960938 107.769531 122.5625 107.769531 L 127.578125 107.769531 C 128.183594 107.769531 128.671875 107.277344 128.671875 106.671875 L 128.671875 102.96875 C 128.878906 102.8125 129.074219 102.644531 129.246094 102.476562 C 130.765625 100.953125 130.757812 99.019531 130.75 97.140625 L 130.75 96.78125 " fill-opacity="1" fill-rule="nonzero"/></svg>