<svg xmlns="http://www.w3.org/2000/svg" xmlns:xlink="http://www.w3.org/1999/xlink" width="200" zoomAndPan="magnify" viewBox="0 0 150 99.749996" height="133" preserveAspectRatio="xMidYMid meet" version="1.0"><defs><clipPath id="43d97b8833"><path d="M 0.1875 0 L 149.8125 0 L 149.8125 99.5 L 0.1875 99.5 Z M 0.1875 0 " clip-rule="nonzero"/></clipPath><clipPath id="526436190a"><path d="M 55 29.851562 L 95 29.851562 L 95 69.5 L 55 69.5 Z M 55 29.851562 " clip-rule="nonzero"/></clipPath></defs><g clip-path="url(#43d97b8833)"><path fill="#ffffff" d="M 0.1875 0 L 149.8125 0 L 149.8125 99.5 L 0.1875 99.5 Z M 0.1875 0 " fill-opacity="1" fill-rule="nonzero"/><path fill="#ffffff" d="M 0.1875 0 L 149.8125 0 L 149.8125 99.5 L 0.1875 99.5 Z M 0.1875 0 " fill-opacity="1" fill-rule="nonzero"/></g><g clip-path="url(#526436190a)"><path fill="#ff914d" d="M 62.566406 51.265625 C 62.566406 51.265625 60.855469 54.816406 60.855469 54.816406 C 60.636719 55.273438 60.152344 56.261719 59.929688 56.730469 C 59.679688 57.253906 59.039062 57.46875 58.519531 57.222656 L 55.730469 55.859375 C 55.210938 55.609375 54.992188 54.96875 55.238281 54.449219 C 55.597656 53.710938 60.683594 43.1875 60.894531 42.753906 C 61.152344 42.230469 61.78125 42.011719 62.304688 42.261719 C 62.816406 42.511719 64.546875 43.34375 65.089844 43.609375 C 65.613281 43.859375 65.832031 44.496094 65.582031 45.019531 C 64.792969 46.667969 63.378906 49.589844 62.566406 51.265625 Z M 94.742188 54.808594 C 94.460938 54.222656 89.191406 43.335938 89.089844 43.109375 C 88.839844 42.589844 88.203125 42.371094 87.679688 42.621094 C 87.136719 42.886719 85.46875 43.695312 84.890625 43.96875 C 84.363281 44.21875 84.144531 44.855469 84.402344 45.378906 L 85.296875 47.230469 C 85.5 47.652344 87.082031 50.929688 87.328125 51.425781 C 87.492188 51.761719 89.96875 56.878906 90.054688 57.066406 C 90.304688 57.585938 90.941406 57.804688 91.464844 57.554688 L 94.253906 56.207031 C 94.78125 55.960938 95 55.328125 94.742188 54.808594 Z M 82.632812 47.96875 L 79.339844 47.121094 C 78.28125 46.847656 77.152344 47.042969 76.242188 47.652344 C 75.757812 47.976562 70.292969 51.636719 69.644531 52.074219 C 69.039062 52.480469 69 53.367188 69.566406 53.816406 L 70.152344 54.292969 C 70.789062 54.800781 71.632812 54.976562 72.417969 54.769531 L 77.90625 53.265625 C 78.484375 53.109375 79.089844 53.1875 79.605469 53.484375 C 79.605469 53.484375 81.582031 54.605469 81.582031 54.605469 C 82.9375 55.375 85.671875 56.910156 87.035156 57.679688 L 88.753906 56.925781 L 84.324219 47.746094 C 83.816406 48.023438 83.210938 48.117188 82.632812 47.96875 Z M 77.984375 64.8125 C 77.90625 65.5 77.121094 66.613281 76.800781 67.210938 L 78.171875 68.003906 C 79.324219 68.714844 80.875 67.625 80.617188 66.316406 Z M 86.808594 58.792969 C 85.390625 57.992188 80.398438 55.179688 79.066406 54.417969 C 78.804688 54.269531 78.492188 54.222656 78.195312 54.308594 L 72.714844 55.820312 C 71.601562 56.125 70.371094 55.875 69.464844 55.140625 C 69.464844 55.140625 68.882812 54.667969 68.882812 54.667969 C 67.738281 53.816406 67.839844 51.925781 69.03125 51.164062 L 74.140625 47.738281 L 73.25 47.292969 C 72.652344 46.996094 71.972656 46.894531 71.3125 47.011719 C 71.3125 47.011719 68.027344 47.582031 68.027344 47.582031 C 67.332031 47.761719 66.492188 47.175781 65.894531 46.902344 C 64.601562 49.574219 62.777344 53.351562 61.476562 56.03125 C 62.085938 56.269531 62.832031 56.589844 63.066406 57.253906 C 64.273438 54.777344 67.980469 55.179688 68.578125 57.875 C 69.761719 57.835938 70.929688 58.605469 71.351562 59.703125 C 72.636719 59.472656 74.015625 60.21875 74.503906 61.425781 C 75.875 61.105469 77.394531 61.964844 77.84375 63.285156 L 82.316406 65.824219 C 82.976562 65.5625 83.453125 64.765625 83.367188 64.058594 L 77.246094 60.242188 C 76.546875 59.789062 77.207031 58.738281 77.914062 59.175781 C 77.921875 59.183594 84.496094 63.261719 84.496094 63.269531 C 85.1875 63.070312 85.695312 62.265625 85.601562 61.558594 L 79.144531 57.671875 C 78.851562 57.492188 78.75 57.105469 78.929688 56.808594 C 79.105469 56.511719 79.496094 56.410156 79.792969 56.589844 L 86.308594 60.515625 C 87.042969 60.320312 87.570312 59.449219 87.421875 58.699219 C 87.246094 58.769531 87.003906 58.925781 86.808594 58.792969 Z M 60.066406 42.011719 C 60.550781 41.28125 61.476562 40.921875 62.335938 41.125 C 62.28125 40.324219 62.304688 35.183594 62.304688 34.273438 C 62.296875 33.898438 62.652344 33.585938 63.027344 33.640625 C 66.984375 34.203125 71.023438 33.765625 74.785156 32.390625 C 74.925781 32.34375 75.074219 32.34375 75.214844 32.390625 C 78.988281 33.773438 83.007812 34.195312 86.972656 33.640625 C 87.335938 33.582031 87.695312 33.898438 87.695312 34.273438 C 87.679688 35.441406 87.734375 40.417969 87.640625 41.492188 C 88.480469 41.273438 89.417969 41.632812 89.90625 42.339844 C 90.109375 40.644531 89.984375 32.738281 90.015625 30.886719 C 90.015625 30.886719 86.652344 31.359375 86.652344 31.359375 C 82.710938 31.929688 78.695312 31.335938 74.996094 29.851562 C 71.304688 31.335938 67.277344 31.929688 63.339844 31.351562 L 59.980469 30.878906 C 60.003906 32.433594 59.914062 40.628906 60.066406 42.011719 Z M 84.425781 42.988281 L 86.316406 42.058594 C 86.496094 40.558594 86.402344 36.546875 86.425781 34.980469 C 82.5625 35.417969 78.671875 34.964844 74.996094 33.65625 C 71.335938 34.957031 67.417969 35.417969 63.5625 34.988281 C 63.578125 36.296875 63.511719 40.457031 63.632812 41.703125 C 63.632812 41.703125 65.574219 42.636719 65.574219 42.636719 C 66.84375 43.265625 67.089844 44.753906 66.375 45.914062 C 66.75 46.070312 67.519531 46.59375 67.847656 46.5 L 71.132812 45.929688 C 72.011719 45.773438 72.941406 45.914062 73.742188 46.304688 L 75.199219 47.027344 C 76.445312 46.070312 78.078125 45.640625 79.621094 46.046875 L 82.921875 46.894531 C 83.242188 46.980469 83.585938 46.910156 83.863281 46.730469 L 83.4375 45.84375 C 82.898438 44.839844 83.375 43.460938 84.425781 42.988281 Z M 64.132812 57.601562 C 63.703125 58.34375 62.800781 59.914062 62.363281 60.664062 C 61.5625 61.972656 62.800781 63.714844 64.304688 63.378906 L 67.449219 57.921875 C 67 56.457031 64.871094 56.246094 64.132812 57.601562 Z M 71.609375 60.773438 L 68.367188 66.378906 C 68.65625 67.140625 69.597656 67.640625 70.394531 67.460938 L 73.546875 61.988281 C 73.3125 61.207031 72.410156 60.65625 71.609375 60.773438 Z M 74.714844 62.5 L 71.585938 67.921875 C 72.011719 69.398438 74.171875 69.640625 74.917969 68.269531 L 75.851562 66.660156 C 76.132812 66.097656 76.996094 64.953125 76.933594 64.292969 C 76.988281 63.1875 75.804688 62.21875 74.714844 62.5 Z M 68.289062 59.003906 L 64.710938 65.21875 C 64.972656 66.089844 66.046875 66.667969 66.921875 66.394531 L 70.425781 60.328125 C 70.214844 59.441406 69.171875 58.785156 68.289062 59.003906 Z M 68.289062 59.003906 " fill-opacity="1" fill-rule="nonzero"/></g></svg>