<svg xmlns="http://www.w3.org/2000/svg" xmlns:xlink="http://www.w3.org/1999/xlink" width="150" zoomAndPan="magnify" viewBox="0 0 112.5 74.999997" height="100" preserveAspectRatio="xMidYMid meet" version="1.0"><defs><clipPath id="31aab60f13"><path d="M 0 0.164062 L 112.003906 0.164062 L 112.003906 74.832031 L 0 74.832031 Z M 0 0.164062 " clip-rule="nonzero"/></clipPath><clipPath id="3ecab1464b"><path d="M 41 25 L 68 25 L 68 52.507812 L 41 52.507812 Z M 41 25 " clip-rule="nonzero"/></clipPath><clipPath id="b62eed08b7"><path d="M 41 25 L 58 25 L 58 52.507812 L 41 52.507812 Z M 41 25 " clip-rule="nonzero"/></clipPath><clipPath id="a58f36d31a"><path d="M 53 25 L 68 25 L 68 52.507812 L 53 52.507812 Z M 53 25 " clip-rule="nonzero"/></clipPath><clipPath id="c0968c837d"><path d="M 40.917969 25 L 68 25 L 68 52.507812 L 40.917969 52.507812 Z M 40.917969 25 " clip-rule="nonzero"/></clipPath><clipPath id="b91c8dcff7"><path d="M 53 23 L 70.785156 23 L 70.785156 39 L 53 39 Z M 53 23 " clip-rule="nonzero"/></clipPath><clipPath id="b419c4f250"><path d="M 61 23 L 70.785156 23 L 70.785156 39 L 61 39 Z M 61 23 " clip-rule="nonzero"/></clipPath><clipPath id="6ca6fe6984"><path d="M 53 22.640625 L 70.785156 22.640625 L 70.785156 39 L 53 39 Z M 53 22.640625 " clip-rule="nonzero"/></clipPath></defs><g clip-path="url(#31aab60f13)"><path fill="#ffffff" d="M 0 0.164062 L 112.003906 0.164062 L 112.003906 74.835938 L 0 74.835938 Z M 0 0.164062 " fill-opacity="1" fill-rule="nonzero"/><path fill="#ffffff" d="M 0 0.164062 L 112.003906 0.164062 L 112.003906 74.835938 L 0 74.835938 Z M 0 0.164062 " fill-opacity="1" fill-rule="nonzero"/></g><g clip-path="url(#3ecab1464b)"><path fill="#88e5e1" d="M 67.390625 39.082031 C 67.390625 46.433594 61.492188 52.394531 54.214844 52.394531 C 46.933594 52.394531 41.035156 46.433594 41.035156 39.082031 C 41.035156 31.726562 46.933594 25.765625 54.214844 25.765625 C 61.492188 25.765625 67.390625 31.726562 67.390625 39.082031 " fill-opacity="1" fill-rule="nonzero"/></g><g clip-path="url(#b62eed08b7)"><path fill="#96eae4" d="M 46.6875 39.082031 C 46.6875 32.707031 51.121094 27.382812 57.039062 26.074219 C 56.128906 25.875 55.183594 25.765625 54.214844 25.765625 C 46.933594 25.765625 41.035156 31.726562 41.035156 39.082031 C 41.035156 46.433594 46.933594 52.394531 54.214844 52.394531 C 55.183594 52.394531 56.128906 52.289062 57.039062 52.085938 C 51.121094 50.78125 46.6875 45.453125 46.6875 39.082031 " fill-opacity="1" fill-rule="nonzero"/></g><g clip-path="url(#a58f36d31a)"><path fill="#74d6ce" d="M 54.214844 25.765625 C 53.988281 25.765625 53.761719 25.773438 53.539062 25.785156 C 60.503906 26.140625 66.042969 31.957031 66.042969 39.082031 C 66.042969 46.207031 60.503906 52.023438 53.539062 52.378906 C 53.761719 52.386719 53.988281 52.394531 54.214844 52.394531 C 61.492188 52.394531 67.390625 46.433594 67.390625 39.082031 C 67.390625 31.726562 61.492188 25.765625 54.214844 25.765625 " fill-opacity="1" fill-rule="nonzero"/></g><g clip-path="url(#c0968c837d)"><path fill="#000000" d="M 54.214844 25.878906 C 52.449219 25.878906 50.738281 26.230469 49.125 26.917969 C 47.570312 27.582031 46.171875 28.535156 44.972656 29.746094 C 43.773438 30.960938 42.832031 32.371094 42.171875 33.941406 C 41.492188 35.570312 41.144531 37.300781 41.144531 39.082031 C 41.144531 40.863281 41.492188 42.589844 42.171875 44.21875 C 42.832031 45.789062 43.773438 47.203125 44.972656 48.414062 C 46.171875 49.628906 47.570312 50.578125 49.125 51.242188 C 50.738281 51.933594 52.449219 52.28125 54.214844 52.28125 C 55.976562 52.28125 57.6875 51.933594 59.300781 51.242188 C 60.855469 50.578125 62.253906 49.628906 63.453125 48.414062 C 64.652344 47.203125 65.59375 45.789062 66.253906 44.21875 C 66.933594 42.589844 67.28125 40.863281 67.28125 39.082031 C 67.28125 37.300781 66.933594 35.570312 66.253906 33.941406 C 65.59375 32.371094 64.652344 30.960938 63.453125 29.746094 C 62.253906 28.535156 60.855469 27.582031 59.300781 26.917969 C 57.6875 26.230469 55.976562 25.878906 54.214844 25.878906 Z M 54.214844 52.507812 C 52.417969 52.507812 50.679688 52.152344 49.039062 51.453125 C 47.457031 50.777344 46.035156 49.808594 44.816406 48.574219 C 43.59375 47.34375 42.636719 45.90625 41.964844 44.308594 C 41.273438 42.652344 40.921875 40.894531 40.921875 39.082031 C 40.921875 37.269531 41.273438 35.511719 41.964844 33.855469 C 42.636719 32.253906 43.59375 30.820312 44.816406 29.585938 C 46.035156 28.355469 47.457031 27.386719 49.039062 26.710938 C 50.679688 26.007812 52.417969 25.65625 54.214844 25.65625 C 56.007812 25.65625 57.75 26.007812 59.386719 26.710938 C 60.96875 27.386719 62.390625 28.355469 63.613281 29.585938 C 64.832031 30.820312 65.789062 32.253906 66.460938 33.855469 C 67.152344 35.511719 67.503906 37.269531 67.503906 39.082031 C 67.503906 40.894531 67.152344 42.652344 66.460938 44.308594 C 65.789062 45.90625 64.832031 47.34375 63.613281 48.574219 C 62.390625 49.808594 60.96875 50.777344 59.386719 51.453125 C 57.75 52.152344 56.007812 52.507812 54.214844 52.507812 " fill-opacity="1" fill-rule="nonzero"/></g><path fill="#c8fcf8" d="M 42.414062 39.066406 L 42.410156 39.066406 C 42.289062 39.0625 42.1875 38.960938 42.191406 38.835938 C 42.222656 37.003906 42.613281 35.230469 43.347656 33.570312 C 43.398438 33.453125 43.527344 33.402344 43.640625 33.453125 C 43.753906 33.503906 43.804688 33.636719 43.753906 33.753906 C 43.046875 35.359375 42.667969 37.074219 42.636719 38.84375 C 42.636719 38.96875 42.535156 39.066406 42.414062 39.066406 " fill-opacity="1" fill-rule="nonzero"/><path fill="#c8fcf8" d="M 42.714844 42.164062 C 42.613281 42.164062 42.519531 42.09375 42.5 41.988281 C 42.375 41.410156 42.285156 40.820312 42.234375 40.230469 C 42.226562 40.105469 42.316406 39.996094 42.441406 39.984375 C 42.5625 39.972656 42.671875 40.066406 42.683594 40.191406 C 42.730469 40.761719 42.816406 41.332031 42.9375 41.890625 C 42.960938 42.011719 42.886719 42.132812 42.765625 42.160156 C 42.75 42.164062 42.734375 42.164062 42.714844 42.164062 " fill-opacity="1" fill-rule="nonzero"/><path fill="#5d9dd1" d="M 44.550781 36.527344 L 44.714844 35.726562 C 44.722656 35.695312 44.738281 35.667969 44.757812 35.648438 L 45.796875 34.730469 C 45.808594 34.722656 45.816406 34.714844 45.828125 34.710938 L 46.609375 34.34375 C 46.621094 34.335938 46.632812 34.328125 46.640625 34.320312 L 47.425781 33.621094 C 47.492188 33.5625 47.59375 33.582031 47.632812 33.65625 L 47.761719 33.886719 C 47.785156 33.925781 47.824219 33.953125 47.871094 33.953125 L 49.226562 34.058594 C 49.234375 34.058594 49.242188 34.058594 49.246094 34.0625 L 49.871094 34.203125 C 49.96875 34.226562 50.007812 34.34375 49.945312 34.421875 L 49.761719 34.660156 C 49.714844 34.722656 49.726562 34.8125 49.792969 34.855469 L 50.363281 35.253906 C 50.375 35.265625 50.382812 35.273438 50.390625 35.285156 L 50.941406 35.992188 C 50.996094 36.066406 51.113281 36.0625 51.160156 35.980469 L 51.445312 35.523438 C 51.488281 35.460938 51.574219 35.441406 51.636719 35.484375 L 52.496094 36.070312 C 52.515625 36.085938 52.539062 36.09375 52.5625 36.09375 L 53.40625 36.160156 C 53.496094 36.167969 53.554688 36.257812 53.523438 36.34375 L 53.441406 36.566406 C 53.429688 36.597656 53.429688 36.628906 53.4375 36.660156 L 54.503906 39.96875 C 54.507812 39.984375 54.515625 39.996094 54.527344 40.011719 L 55.085938 40.722656 C 55.117188 40.761719 55.167969 40.78125 55.214844 40.773438 L 56.457031 40.5625 C 56.527344 40.550781 56.589844 40.589844 56.609375 40.660156 L 56.777344 41.246094 C 56.789062 41.285156 56.78125 41.328125 56.757812 41.363281 L 55.742188 42.78125 C 55.738281 42.789062 55.730469 42.792969 55.726562 42.800781 L 53.914062 44.628906 C 53.878906 44.664062 53.867188 44.714844 53.878906 44.765625 L 54.070312 45.464844 C 54.074219 45.476562 54.078125 45.488281 54.078125 45.5 L 54.078125 46.449219 C 54.078125 46.511719 54.035156 46.566406 53.976562 46.582031 L 53.011719 46.855469 C 52.953125 46.871094 52.910156 46.929688 52.914062 46.996094 L 52.957031 47.679688 C 52.960938 47.742188 52.917969 47.800781 52.855469 47.820312 L 52.308594 47.96875 C 52.273438 47.976562 52.246094 48 52.226562 48.03125 L 51.695312 48.933594 C 51.671875 48.972656 51.628906 49 51.582031 49 L 49.96875 49.078125 C 49.921875 49.078125 49.875 49.054688 49.847656 49.011719 L 48.753906 47.246094 C 48.75 47.242188 48.746094 47.238281 48.746094 47.234375 L 48.121094 45.917969 C 48.105469 45.886719 48.101562 45.847656 48.113281 45.8125 L 48.566406 44.546875 C 48.578125 44.511719 48.578125 44.476562 48.5625 44.445312 L 47.632812 42.382812 C 47.617188 42.347656 47.617188 42.304688 47.632812 42.269531 L 48.039062 41.398438 C 48.058594 41.359375 48.058594 41.316406 48.039062 41.277344 L 47.835938 40.867188 C 47.8125 40.820312 47.761719 40.789062 47.707031 40.792969 L 47.316406 40.808594 C 47.261719 40.8125 47.210938 40.78125 47.1875 40.734375 L 46.96875 40.269531 C 46.945312 40.21875 46.886719 40.1875 46.832031 40.195312 L 45.769531 40.308594 C 45.710938 40.316406 45.660156 40.289062 45.632812 40.238281 L 45.511719 40.011719 C 45.480469 39.953125 45.414062 39.925781 45.351562 39.945312 L 45.078125 40.035156 C 45.015625 40.058594 44.945312 40.027344 44.917969 39.96875 L 44.140625 38.453125 C 44.132812 38.433594 44.125 38.414062 44.125 38.394531 L 44.101562 36.832031 C 44.101562 36.769531 44.144531 36.710938 44.203125 36.695312 L 44.453125 36.632812 C 44.503906 36.621094 44.542969 36.582031 44.550781 36.527344 " fill-opacity="1" fill-rule="nonzero"/><path fill="#72b2dd" d="M 45.734375 37.492188 L 45.867188 36.851562 C 45.871094 36.828125 45.882812 36.804688 45.902344 36.789062 L 46.730469 36.058594 C 46.738281 36.050781 46.746094 36.042969 46.757812 36.039062 L 47.378906 35.746094 C 47.390625 35.742188 47.398438 35.734375 47.40625 35.730469 L 48.03125 35.171875 C 48.082031 35.125 48.164062 35.136719 48.199219 35.199219 L 48.300781 35.382812 C 48.316406 35.414062 48.351562 35.433594 48.386719 35.4375 L 49.472656 35.519531 C 49.476562 35.519531 49.480469 35.519531 49.488281 35.523438 L 49.984375 35.636719 C 50.0625 35.652344 50.09375 35.746094 50.046875 35.808594 L 49.898438 36 C 49.859375 36.046875 49.871094 36.121094 49.921875 36.15625 L 50.378906 36.476562 C 50.386719 36.484375 50.394531 36.492188 50.402344 36.5 L 50.839844 37.066406 C 50.886719 37.125 50.976562 37.121094 51.015625 37.054688 L 51.246094 36.691406 C 51.277344 36.640625 51.347656 36.625 51.398438 36.660156 L 52.085938 37.128906 C 52.101562 37.136719 52.117188 37.144531 52.136719 37.144531 L 52.8125 37.199219 C 52.882812 37.203125 52.929688 37.277344 52.90625 37.347656 L 52.839844 37.523438 C 52.828125 37.546875 52.828125 37.574219 52.835938 37.597656 L 53.6875 40.242188 C 53.691406 40.253906 53.699219 40.265625 53.707031 40.277344 L 54.152344 40.847656 C 54.179688 40.878906 54.21875 40.894531 54.257812 40.886719 L 55.25 40.714844 C 55.304688 40.707031 55.355469 40.738281 55.371094 40.792969 L 55.503906 41.261719 C 55.511719 41.296875 55.507812 41.328125 55.488281 41.355469 L 54.675781 42.492188 C 54.671875 42.496094 54.667969 42.5 54.664062 42.503906 L 53.21875 43.96875 C 53.191406 43.996094 53.179688 44.035156 53.1875 44.074219 L 53.34375 44.636719 C 53.34375 44.644531 53.347656 44.65625 53.347656 44.664062 L 53.347656 45.421875 C 53.347656 45.472656 53.3125 45.515625 53.265625 45.527344 L 52.496094 45.746094 C 52.449219 45.757812 52.414062 45.804688 52.417969 45.855469 L 52.449219 46.402344 C 52.453125 46.457031 52.421875 46.503906 52.371094 46.515625 L 51.933594 46.636719 C 51.90625 46.640625 51.882812 46.660156 51.867188 46.683594 L 51.441406 47.40625 C 51.425781 47.441406 51.390625 47.460938 51.355469 47.460938 L 50.0625 47.519531 C 50.023438 47.523438 49.988281 47.503906 49.96875 47.46875 L 49.089844 46.058594 C 49.089844 46.054688 49.085938 46.050781 49.085938 46.046875 L 48.585938 45 C 48.574219 44.972656 48.574219 44.941406 48.582031 44.914062 L 48.941406 43.902344 C 48.953125 43.875 48.953125 43.84375 48.941406 43.820312 L 48.195312 42.171875 C 48.183594 42.144531 48.183594 42.109375 48.199219 42.078125 L 48.523438 41.382812 C 48.535156 41.355469 48.535156 41.316406 48.523438 41.289062 L 48.359375 40.960938 C 48.339844 40.921875 48.300781 40.898438 48.257812 40.898438 L 47.945312 40.914062 C 47.898438 40.917969 47.859375 40.894531 47.839844 40.851562 L 47.664062 40.484375 C 47.644531 40.441406 47.601562 40.417969 47.554688 40.421875 L 46.707031 40.515625 C 46.664062 40.519531 46.621094 40.496094 46.597656 40.457031 L 46.503906 40.277344 C 46.476562 40.230469 46.421875 40.207031 46.371094 40.222656 L 46.15625 40.296875 C 46.105469 40.3125 46.050781 40.289062 46.027344 40.242188 L 45.40625 39.03125 C 45.398438 39.015625 45.394531 39 45.394531 38.984375 L 45.375 37.734375 C 45.375 37.683594 45.40625 37.640625 45.457031 37.628906 L 45.65625 37.578125 C 45.695312 37.566406 45.726562 37.535156 45.734375 37.492188 " fill-opacity="1" fill-rule="nonzero"/><path fill="#4883bd" d="M 48.15625 34.058594 C 48.164062 34.058594 48.171875 34.058594 48.175781 34.0625 L 48.800781 34.203125 C 48.898438 34.226562 48.9375 34.34375 48.875 34.421875 L 48.691406 34.660156 C 48.644531 34.722656 48.65625 34.8125 48.722656 34.855469 L 49.292969 35.253906 C 49.304688 35.265625 49.3125 35.273438 49.320312 35.285156 L 49.871094 35.992188 C 49.929688 36.066406 50.042969 36.0625 50.09375 35.980469 L 50.375 35.523438 C 50.410156 35.46875 50.476562 35.449219 50.535156 35.46875 L 50.390625 35.285156 C 50.382812 35.273438 50.375 35.265625 50.363281 35.253906 L 49.792969 34.855469 C 49.726562 34.8125 49.714844 34.722656 49.761719 34.660156 L 49.945312 34.421875 C 50.007812 34.34375 49.96875 34.226562 49.871094 34.203125 L 49.246094 34.0625 C 49.242188 34.058594 49.234375 34.058594 49.226562 34.058594 L 47.871094 33.953125 C 47.824219 33.953125 47.785156 33.925781 47.761719 33.886719 L 47.632812 33.65625 C 47.59375 33.582031 47.492188 33.5625 47.425781 33.621094 L 47.03125 33.972656 L 48.15625 34.058594 " fill-opacity="1" fill-rule="nonzero"/><path fill="#4883bd" d="M 51.425781 36.070312 C 51.445312 36.085938 51.46875 36.09375 51.492188 36.09375 L 52.335938 36.160156 C 52.425781 36.167969 52.484375 36.257812 52.453125 36.34375 L 52.371094 36.566406 C 52.359375 36.597656 52.359375 36.628906 52.367188 36.660156 L 53.433594 39.96875 C 53.4375 39.984375 53.445312 39.996094 53.457031 40.011719 L 54.015625 40.722656 C 54.046875 40.761719 54.097656 40.78125 54.144531 40.773438 L 55.007812 40.625 L 54.527344 40.011719 C 54.515625 39.996094 54.507812 39.984375 54.503906 39.96875 L 53.4375 36.660156 C 53.429688 36.628906 53.429688 36.597656 53.441406 36.566406 L 53.523438 36.34375 C 53.554688 36.257812 53.496094 36.167969 53.40625 36.160156 L 52.5625 36.09375 C 52.539062 36.09375 52.515625 36.085938 52.496094 36.070312 L 51.636719 35.484375 C 51.574219 35.441406 51.488281 35.460938 51.445312 35.523438 L 51.203125 35.917969 L 51.425781 36.070312 " fill-opacity="1" fill-rule="nonzero"/><path fill="#4883bd" d="M 45.898438 40.269531 C 45.875 40.21875 45.820312 40.1875 45.761719 40.195312 L 45.617188 40.210938 L 45.632812 40.238281 C 45.660156 40.289062 45.710938 40.316406 45.769531 40.308594 L 45.910156 40.292969 L 45.898438 40.269531 " fill-opacity="1" fill-rule="nonzero"/><path fill="#4883bd" d="M 56.777344 41.246094 L 56.609375 40.660156 C 56.589844 40.589844 56.527344 40.550781 56.457031 40.5625 L 55.558594 40.714844 L 55.707031 41.246094 C 55.71875 41.285156 55.710938 41.328125 55.6875 41.363281 L 54.671875 42.78125 C 54.667969 42.789062 54.664062 42.792969 54.65625 42.800781 L 52.84375 44.628906 C 52.808594 44.664062 52.796875 44.714844 52.808594 44.765625 L 53 45.464844 C 53.003906 45.476562 53.007812 45.488281 53.007812 45.5 L 53.007812 46.449219 C 53.007812 46.511719 52.964844 46.566406 52.90625 46.582031 L 51.941406 46.855469 C 51.882812 46.871094 51.839844 46.929688 51.84375 46.996094 L 51.886719 47.679688 C 51.890625 47.742188 51.847656 47.800781 51.785156 47.820312 L 51.238281 47.96875 C 51.203125 47.976562 51.175781 48 51.15625 48.03125 L 50.625 48.933594 C 50.601562 48.972656 50.558594 49 50.515625 49 L 49.863281 49.03125 C 49.890625 49.0625 49.929688 49.078125 49.96875 49.078125 L 51.582031 49 C 51.628906 49 51.671875 48.972656 51.695312 48.933594 L 52.226562 48.03125 C 52.246094 48 52.273438 47.976562 52.308594 47.96875 L 52.855469 47.820312 C 52.917969 47.800781 52.960938 47.742188 52.957031 47.679688 L 52.914062 46.996094 C 52.910156 46.929688 52.953125 46.871094 53.011719 46.855469 L 53.976562 46.582031 C 54.035156 46.566406 54.078125 46.511719 54.078125 46.449219 L 54.078125 45.5 C 54.078125 45.488281 54.074219 45.476562 54.070312 45.464844 L 53.878906 44.765625 C 53.867188 44.714844 53.878906 44.664062 53.914062 44.628906 L 55.726562 42.800781 C 55.730469 42.792969 55.738281 42.789062 55.742188 42.78125 L 56.757812 41.363281 C 56.78125 41.328125 56.789062 41.285156 56.777344 41.246094 " fill-opacity="1" fill-rule="nonzero"/><path fill="#5d9dd1" d="M 65.144531 39.035156 L 65.691406 39.128906 C 65.722656 39.136719 65.753906 39.152344 65.769531 39.179688 L 66.050781 39.59375 C 66.082031 39.640625 66.144531 39.660156 66.195312 39.636719 L 66.464844 39.515625 C 66.515625 39.492188 66.546875 39.4375 66.535156 39.382812 L 66.308594 38.21875 C 66.304688 38.191406 66.289062 38.167969 66.269531 38.148438 L 65.6875 37.664062 C 65.667969 37.648438 65.65625 37.625 65.648438 37.605469 L 65.421875 36.84375 C 65.410156 36.808594 65.417969 36.773438 65.4375 36.742188 L 66.109375 35.726562 C 66.125 35.699219 66.132812 35.671875 66.125 35.640625 L 65.914062 34.265625 C 65.910156 34.25 65.90625 34.238281 65.898438 34.226562 L 64.402344 31.394531 C 64.398438 31.390625 64.394531 31.386719 64.390625 31.378906 L 62.289062 28.566406 C 62.285156 28.558594 62.277344 28.550781 62.265625 28.542969 C 61.417969 27.878906 60.480469 27.316406 59.484375 26.875 C 59.402344 26.839844 59.3125 26.898438 59.316406 26.988281 L 59.328125 27.59375 C 59.328125 27.632812 59.3125 27.667969 59.28125 27.691406 L 59.125 27.816406 C 59.09375 27.839844 59.078125 27.875 59.078125 27.910156 L 59.078125 28.089844 C 59.078125 28.167969 59.003906 28.226562 58.925781 28.207031 L 58.257812 28.023438 C 58.199219 28.003906 58.136719 28.039062 58.117188 28.097656 L 57.859375 28.804688 C 57.851562 28.828125 57.835938 28.847656 57.816406 28.863281 L 57.164062 29.335938 C 57.152344 29.347656 57.136719 29.351562 57.121094 29.355469 L 55.683594 29.683594 C 55.667969 29.6875 55.652344 29.6875 55.636719 29.683594 L 54.804688 29.527344 C 54.777344 29.523438 54.753906 29.527344 54.730469 29.539062 L 53.832031 29.964844 C 53.789062 29.988281 53.761719 30.035156 53.765625 30.085938 L 53.804688 30.488281 C 53.808594 30.550781 53.769531 30.605469 53.710938 30.617188 L 53.136719 30.753906 C 53.101562 30.761719 53.074219 30.78125 53.058594 30.8125 L 52.789062 31.285156 C 52.765625 31.332031 52.714844 31.355469 52.667969 31.347656 L 50.847656 31.054688 C 50.828125 31.050781 50.804688 31.050781 50.785156 31.058594 L 49.679688 31.476562 C 49.640625 31.492188 49.589844 31.480469 49.558594 31.449219 L 49.332031 31.242188 C 49.296875 31.210938 49.25 31.199219 49.207031 31.21875 L 48.972656 31.3125 C 48.910156 31.339844 48.878906 31.410156 48.90625 31.472656 L 49.125 31.976562 C 49.148438 32.027344 49.128906 32.089844 49.082031 32.121094 L 48.855469 32.28125 C 48.820312 32.304688 48.777344 32.308594 48.738281 32.289062 L 48.296875 32.078125 C 48.246094 32.054688 48.1875 32.066406 48.152344 32.109375 L 47.597656 32.785156 C 47.550781 32.839844 47.5625 32.921875 47.621094 32.960938 L 48.265625 33.410156 C 48.300781 33.4375 48.347656 33.441406 48.386719 33.417969 L 49.722656 32.730469 C 49.742188 32.722656 49.765625 32.71875 49.785156 32.71875 L 50.4375 32.769531 C 50.480469 32.769531 50.519531 32.796875 50.539062 32.835938 L 51.015625 33.847656 C 51.042969 33.910156 51.117188 33.933594 51.179688 33.902344 L 51.347656 33.808594 C 51.398438 33.78125 51.421875 33.726562 51.40625 33.671875 L 51.164062 32.757812 C 51.144531 32.679688 51.203125 32.605469 51.28125 32.605469 L 51.363281 32.605469 C 51.40625 32.605469 51.445312 32.625 51.46875 32.664062 L 52.054688 33.699219 C 52.070312 33.722656 52.074219 33.75 52.070312 33.777344 L 51.929688 34.769531 C 51.917969 34.847656 51.984375 34.914062 52.0625 34.90625 L 52.105469 34.902344 C 52.140625 34.898438 52.171875 34.878906 52.191406 34.847656 L 52.585938 34.226562 C 52.648438 34.125 52.804688 34.167969 52.804688 34.289062 L 52.804688 34.613281 C 52.804688 34.664062 52.835938 34.710938 52.878906 34.726562 L 53.351562 34.917969 C 53.359375 34.921875 53.367188 34.925781 53.375 34.925781 L 54.019531 35.042969 C 54.089844 35.054688 54.132812 35.125 54.113281 35.191406 L 53.875 36.089844 C 53.871094 36.105469 53.871094 36.117188 53.871094 36.132812 L 53.953125 36.917969 C 53.953125 36.925781 53.953125 36.9375 53.957031 36.945312 L 54.980469 39.710938 C 54.984375 39.726562 54.996094 39.738281 55.003906 39.75 L 55.347656 40.121094 C 55.371094 40.144531 55.398438 40.15625 55.425781 40.160156 L 57.132812 40.292969 C 57.160156 40.296875 57.183594 40.289062 57.207031 40.273438 L 58.269531 39.570312 C 58.300781 39.546875 58.320312 39.511719 58.324219 39.472656 L 58.347656 38.15625 C 58.347656 38.101562 58.3125 38.050781 58.261719 38.035156 L 57.8125 37.898438 C 57.796875 37.894531 57.78125 37.894531 57.765625 37.894531 L 56.84375 37.972656 C 56.789062 37.976562 56.738281 37.945312 56.722656 37.894531 L 56.261719 36.695312 C 56.238281 36.636719 56.261719 36.570312 56.320312 36.542969 L 56.574219 36.414062 C 56.628906 36.386719 56.695312 36.40625 56.726562 36.457031 L 57.230469 37.230469 C 57.25 37.257812 57.273438 37.273438 57.300781 37.28125 L 59.15625 37.773438 C 59.179688 37.777344 59.199219 37.777344 59.222656 37.769531 L 59.773438 37.609375 C 59.828125 37.59375 59.882812 37.613281 59.910156 37.660156 L 60.484375 38.578125 C 60.511719 38.625 60.570312 38.644531 60.621094 38.628906 L 60.855469 38.546875 C 60.914062 38.53125 60.972656 38.554688 61 38.605469 L 62.625 41.734375 C 62.667969 41.8125 62.777344 41.820312 62.832031 41.746094 L 62.9375 41.589844 C 62.957031 41.5625 62.964844 41.523438 62.953125 41.484375 L 62.398438 39.707031 C 62.386719 39.667969 62.394531 39.628906 62.417969 39.597656 L 63.308594 38.410156 C 63.324219 38.386719 63.332031 38.359375 63.332031 38.332031 L 63.3125 37.953125 C 63.308594 37.902344 63.339844 37.851562 63.386719 37.835938 L 63.976562 37.613281 C 64.027344 37.59375 64.082031 37.613281 64.113281 37.65625 L 65.070312 38.984375 C 65.085938 39.011719 65.113281 39.027344 65.144531 39.035156 " fill-opacity="1" fill-rule="nonzero"/><path fill="#4883bd" d="M 51.34375 31.347656 C 51.390625 31.355469 51.441406 31.332031 51.464844 31.285156 L 51.535156 31.164062 L 50.847656 31.054688 C 50.828125 31.050781 50.804688 31.050781 50.785156 31.058594 L 50.417969 31.199219 L 51.34375 31.347656 " fill-opacity="1" fill-rule="nonzero"/><path fill="#4883bd" d="M 54.9375 29.554688 L 54.804688 29.527344 C 54.777344 29.523438 54.753906 29.527344 54.730469 29.539062 L 54.476562 29.65625 L 54.9375 29.554688 " fill-opacity="1" fill-rule="nonzero"/><path fill="#4883bd" d="M 49.214844 32.835938 C 49.195312 32.796875 49.15625 32.769531 49.113281 32.769531 L 48.460938 32.71875 C 48.4375 32.71875 48.417969 32.722656 48.398438 32.730469 L 47.761719 33.058594 L 48.265625 33.410156 C 48.300781 33.4375 48.347656 33.441406 48.386719 33.417969 L 49.273438 32.964844 L 49.214844 32.835938 " fill-opacity="1" fill-rule="nonzero"/><path fill="#4883bd" d="M 50.140625 32.664062 C 50.121094 32.625 50.082031 32.605469 50.039062 32.605469 L 49.957031 32.605469 C 49.886719 32.605469 49.835938 32.660156 49.835938 32.722656 L 50.191406 32.75 L 50.140625 32.664062 " fill-opacity="1" fill-rule="nonzero"/><path fill="#4883bd" d="M 58.261719 38.035156 L 57.8125 37.898438 C 57.796875 37.894531 57.78125 37.894531 57.765625 37.894531 L 56.84375 37.972656 C 56.789062 37.976562 56.738281 37.945312 56.722656 37.894531 L 56.542969 37.433594 L 55.976562 37.28125 C 55.949219 37.273438 55.921875 37.257812 55.90625 37.230469 L 55.402344 36.457031 C 55.371094 36.40625 55.304688 36.386719 55.25 36.414062 L 54.992188 36.542969 C 54.9375 36.570312 54.914062 36.636719 54.9375 36.695312 L 55.394531 37.894531 C 55.414062 37.945312 55.464844 37.976562 55.515625 37.972656 L 56.441406 37.894531 C 56.457031 37.894531 56.472656 37.894531 56.484375 37.898438 L 56.9375 38.035156 C 56.988281 38.050781 57.023438 38.101562 57.023438 38.15625 L 56.996094 39.472656 C 56.996094 39.511719 56.976562 39.546875 56.945312 39.570312 L 55.988281 40.203125 L 57.132812 40.292969 C 57.160156 40.296875 57.183594 40.289062 57.207031 40.273438 L 58.269531 39.570312 C 58.300781 39.546875 58.320312 39.511719 58.324219 39.472656 L 58.347656 38.15625 C 58.347656 38.101562 58.3125 38.050781 58.261719 38.035156 " fill-opacity="1" fill-rule="nonzero"/><path fill="#4883bd" d="M 66.535156 39.382812 L 66.308594 38.21875 C 66.304688 38.191406 66.289062 38.167969 66.269531 38.148438 L 65.6875 37.664062 C 65.667969 37.648438 65.65625 37.625 65.648438 37.605469 L 65.421875 36.84375 C 65.410156 36.808594 65.417969 36.773438 65.4375 36.742188 L 66.109375 35.726562 C 66.125 35.699219 66.132812 35.671875 66.125 35.640625 L 65.914062 34.265625 C 65.910156 34.25 65.90625 34.238281 65.898438 34.226562 L 64.402344 31.394531 C 64.398438 31.390625 64.394531 31.386719 64.390625 31.378906 L 62.289062 28.566406 C 62.285156 28.558594 62.277344 28.550781 62.265625 28.542969 C 61.417969 27.878906 60.480469 27.316406 59.484375 26.875 C 59.402344 26.839844 59.3125 26.898438 59.316406 26.988281 L 59.324219 27.460938 C 59.890625 27.78125 60.433594 28.144531 60.941406 28.542969 C 60.953125 28.550781 60.960938 28.558594 60.964844 28.566406 L 63.066406 31.378906 C 63.070312 31.386719 63.074219 31.390625 63.078125 31.394531 L 64.574219 34.226562 C 64.582031 34.238281 64.585938 34.25 64.589844 34.265625 L 64.800781 35.640625 C 64.808594 35.671875 64.800781 35.699219 64.785156 35.726562 L 64.113281 36.742188 C 64.09375 36.773438 64.085938 36.808594 64.097656 36.84375 L 64.324219 37.605469 C 64.328125 37.625 64.34375 37.648438 64.359375 37.664062 L 64.945312 38.148438 C 64.964844 38.167969 64.980469 38.191406 64.984375 38.21875 L 65.144531 39.03125 L 65.144531 39.035156 L 65.691406 39.128906 C 65.722656 39.136719 65.753906 39.152344 65.769531 39.179688 L 66.050781 39.59375 C 66.082031 39.640625 66.144531 39.660156 66.195312 39.636719 L 66.464844 39.515625 C 66.515625 39.492188 66.546875 39.4375 66.535156 39.382812 " fill-opacity="1" fill-rule="nonzero"/><path fill="#4883bd" d="M 63.308594 38.410156 C 63.3125 38.402344 63.316406 38.398438 63.320312 38.390625 L 62.789062 37.65625 C 62.757812 37.613281 62.703125 37.59375 62.652344 37.613281 L 62.0625 37.835938 C 62.015625 37.851562 61.984375 37.902344 61.984375 37.953125 L 62.007812 38.332031 C 62.007812 38.359375 62 38.386719 61.984375 38.410156 L 61.34375 39.265625 L 62.625 41.734375 C 62.667969 41.8125 62.777344 41.820312 62.832031 41.746094 L 62.9375 41.589844 C 62.957031 41.5625 62.964844 41.523438 62.953125 41.484375 L 62.398438 39.707031 C 62.386719 39.667969 62.394531 39.628906 62.417969 39.597656 L 63.308594 38.410156 " fill-opacity="1" fill-rule="nonzero"/><path fill="#4883bd" d="M 55.042969 48.273438 L 56.097656 46.648438 C 56.117188 46.621094 56.125 46.585938 56.117188 46.554688 L 56.007812 46.074219 C 55.984375 45.976562 55.867188 45.945312 55.796875 46.015625 L 55.191406 46.625 C 55.167969 46.648438 55.132812 46.664062 55.101562 46.660156 L 54.777344 46.648438 C 54.703125 46.644531 54.644531 46.710938 54.648438 46.785156 L 54.691406 47.320312 C 54.695312 47.367188 54.671875 47.410156 54.632812 47.4375 L 54.246094 47.679688 C 54.1875 47.714844 54.171875 47.789062 54.203125 47.847656 L 54.417969 48.210938 C 54.4375 48.242188 54.46875 48.265625 54.507812 48.273438 L 54.921875 48.328125 C 54.972656 48.335938 55.019531 48.316406 55.042969 48.273438 " fill-opacity="1" fill-rule="nonzero"/><path fill="#4883bd" d="M 54.269531 29.171875 L 53.132812 29.796875 C 53.046875 29.84375 52.992188 29.933594 52.988281 30.03125 L 52.984375 30.171875 C 52.980469 30.269531 52.925781 30.355469 52.839844 30.402344 L 52.558594 30.554688 L 52.523438 30.578125 C 52.355469 30.671875 52.148438 30.566406 52.117188 30.375 L 52.105469 30.292969 C 52.085938 30.179688 52 30.085938 51.882812 30.0625 L 51.738281 30.035156 C 51.578125 30.003906 51.476562 29.835938 51.53125 29.675781 L 51.597656 29.46875 C 51.632812 29.355469 51.738281 29.277344 51.859375 29.277344 L 52.3125 29.277344 C 52.339844 29.277344 52.363281 29.273438 52.390625 29.265625 L 53.066406 29.058594 C 53.085938 29.050781 53.109375 29.042969 53.125 29.03125 L 53.847656 28.605469 C 53.933594 28.554688 54.035156 28.550781 54.121094 28.597656 L 54.269531 28.683594 C 54.460938 28.789062 54.460938 29.066406 54.269531 29.171875 " fill-opacity="1" fill-rule="nonzero"/><path fill="#4883bd" d="M 50.941406 29.960938 C 50.9375 30.019531 50.902344 30.070312 50.847656 30.09375 L 50.664062 30.175781 C 50.617188 30.195312 50.582031 30.238281 50.570312 30.289062 L 50.492188 30.6875 C 50.480469 30.75 50.429688 30.800781 50.363281 30.8125 L 49.769531 30.917969 C 49.730469 30.925781 49.691406 30.917969 49.65625 30.894531 L 49.28125 30.652344 C 49.195312 30.597656 49.183594 30.472656 49.257812 30.402344 L 49.558594 30.117188 C 49.617188 30.0625 49.703125 30.058594 49.765625 30.109375 L 49.863281 30.1875 C 49.933594 30.246094 50.035156 30.230469 50.085938 30.160156 L 50.359375 29.789062 C 50.398438 29.738281 50.460938 29.714844 50.519531 29.726562 L 50.820312 29.792969 C 50.894531 29.808594 50.949219 29.882812 50.941406 29.960938 " fill-opacity="1" fill-rule="nonzero"/><path fill="#4883bd" d="M 64.769531 40.847656 C 64.835938 40.835938 64.902344 40.863281 64.941406 40.917969 L 65.6875 41.972656 C 65.703125 41.996094 65.710938 42.019531 65.714844 42.042969 L 65.804688 42.515625 C 65.808594 42.523438 65.808594 42.527344 65.808594 42.535156 L 65.863281 43.140625 C 65.863281 43.183594 65.855469 43.222656 65.832031 43.257812 L 65.664062 43.503906 C 65.613281 43.582031 65.507812 43.605469 65.425781 43.558594 L 65.171875 43.402344 C 65.113281 43.367188 65.082031 43.300781 65.085938 43.230469 L 65.1875 42.199219 C 65.191406 42.164062 65.1875 42.128906 65.167969 42.097656 L 64.640625 41.109375 C 64.582031 41 64.648438 40.867188 64.769531 40.847656 " fill-opacity="1" fill-rule="nonzero"/><path fill="#4883bd" d="M 66.714844 40.121094 L 66.570312 40.992188 C 66.570312 41.011719 66.5625 41.023438 66.554688 41.039062 L 66.316406 41.390625 C 66.304688 41.40625 66.296875 41.425781 66.296875 41.445312 L 66.253906 42.160156 C 66.25 42.234375 66.3125 42.289062 66.378906 42.277344 L 66.503906 42.257812 C 66.542969 42.25 66.574219 42.222656 66.589844 42.183594 L 66.972656 41.019531 C 66.976562 41.007812 66.976562 40.992188 66.976562 40.980469 L 66.929688 40.132812 C 66.929688 40.066406 66.867188 40.015625 66.804688 40.03125 C 66.757812 40.039062 66.722656 40.074219 66.714844 40.121094 " fill-opacity="1" fill-rule="nonzero"/><path fill="#4883bd" d="M 48.910156 28.238281 L 51.023438 27.15625 C 51.042969 27.148438 51.058594 27.140625 51.078125 27.136719 L 52.671875 26.742188 C 52.695312 26.734375 52.714844 26.734375 52.738281 26.734375 L 53.984375 26.75 C 54.175781 26.753906 54.296875 26.960938 54.203125 27.132812 L 54.101562 27.316406 C 54.066406 27.375 54.011719 27.421875 53.945312 27.4375 L 52.648438 27.792969 C 52.636719 27.796875 52.628906 27.800781 52.617188 27.800781 L 51.203125 28.015625 C 51.199219 28.015625 51.191406 28.015625 51.1875 28.019531 L 49.726562 28.347656 C 49.699219 28.351562 49.671875 28.363281 49.648438 28.378906 L 49.15625 28.683594 C 49.011719 28.773438 48.824219 28.699219 48.777344 28.535156 C 48.746094 28.414062 48.800781 28.292969 48.910156 28.238281 " fill-opacity="1" fill-rule="nonzero"/><path fill="#000000" d="M 47.714844 40.679688 C 47.808594 40.679688 47.894531 40.730469 47.9375 40.816406 L 48.140625 41.226562 C 48.171875 41.296875 48.175781 41.375 48.140625 41.445312 L 47.734375 42.316406 C 47.730469 42.324219 47.730469 42.328125 47.734375 42.335938 L 48.664062 44.398438 C 48.691406 44.457031 48.695312 44.523438 48.671875 44.585938 L 48.21875 45.851562 C 48.21875 45.859375 48.21875 45.863281 48.222656 45.871094 L 48.847656 47.183594 L 48.847656 47.1875 L 49.941406 48.953125 C 49.949219 48.960938 49.957031 48.964844 49.964844 48.964844 L 51.578125 48.890625 C 51.585938 48.886719 51.59375 48.882812 51.597656 48.878906 L 52.128906 47.972656 C 52.164062 47.917969 52.214844 47.875 52.277344 47.859375 L 52.824219 47.710938 C 52.835938 47.707031 52.84375 47.695312 52.84375 47.683594 L 52.800781 47 C 52.796875 46.882812 52.871094 46.777344 52.984375 46.746094 L 53.945312 46.472656 C 53.957031 46.46875 53.964844 46.460938 53.964844 46.449219 L 53.964844 45.5 C 53.964844 45.5 53.964844 45.496094 53.964844 45.496094 L 53.773438 44.792969 C 53.75 44.707031 53.773438 44.613281 53.835938 44.550781 L 55.648438 42.71875 L 56.664062 41.296875 C 56.671875 41.289062 56.671875 41.285156 56.667969 41.277344 L 56.503906 40.6875 C 56.5 40.675781 56.488281 40.671875 56.476562 40.671875 L 55.234375 40.886719 C 55.144531 40.902344 55.054688 40.867188 55 40.792969 L 54.4375 40.082031 C 54.421875 40.058594 54.40625 40.03125 54.398438 40.003906 L 53.332031 36.695312 C 53.316406 36.640625 53.316406 36.582031 53.335938 36.527344 L 53.417969 36.304688 C 53.421875 36.296875 53.417969 36.289062 53.417969 36.285156 C 53.414062 36.277344 53.40625 36.273438 53.398438 36.273438 L 52.554688 36.207031 C 52.511719 36.203125 52.46875 36.1875 52.433594 36.164062 L 51.574219 35.578125 C 51.566406 35.574219 51.5625 35.574219 51.554688 35.574219 C 51.550781 35.574219 51.546875 35.578125 51.542969 35.585938 L 51.257812 36.042969 C 51.214844 36.109375 51.140625 36.152344 51.058594 36.15625 C 50.980469 36.160156 50.902344 36.125 50.851562 36.0625 L 50.304688 35.355469 L 50.296875 35.347656 L 49.726562 34.949219 C 49.671875 34.910156 49.632812 34.847656 49.625 34.78125 C 49.613281 34.710938 49.632812 34.640625 49.675781 34.589844 L 49.859375 34.351562 C 49.867188 34.34375 49.863281 34.335938 49.863281 34.328125 C 49.859375 34.324219 49.855469 34.316406 49.84375 34.3125 L 49.222656 34.171875 L 49.21875 34.171875 L 47.859375 34.066406 C 47.777344 34.0625 47.703125 34.015625 47.664062 33.941406 L 47.535156 33.714844 C 47.53125 33.703125 47.523438 33.703125 47.519531 33.703125 C 47.515625 33.699219 47.507812 33.699219 47.5 33.707031 L 46.714844 34.40625 C 46.699219 34.421875 46.679688 34.433594 46.65625 34.445312 L 45.878906 34.8125 C 45.875 34.8125 45.875 34.816406 45.871094 34.816406 L 44.832031 35.734375 C 44.828125 35.738281 44.828125 35.742188 44.824219 35.746094 L 44.660156 36.550781 L 44.550781 36.527344 L 44.660156 36.550781 C 44.640625 36.644531 44.570312 36.71875 44.480469 36.742188 L 44.230469 36.804688 C 44.21875 36.808594 44.214844 36.820312 44.214844 36.832031 L 44.238281 38.390625 C 44.238281 38.394531 44.238281 38.398438 44.242188 38.402344 L 45.015625 39.917969 C 45.019531 39.925781 45.03125 39.933594 45.042969 39.929688 L 45.316406 39.835938 C 45.429688 39.800781 45.554688 39.851562 45.613281 39.957031 L 45.730469 40.183594 C 45.738281 40.195312 45.746094 40.199219 45.753906 40.199219 L 46.820312 40.082031 C 46.921875 40.070312 47.023438 40.125 47.070312 40.222656 L 47.289062 40.683594 C 47.292969 40.691406 47.300781 40.699219 47.3125 40.699219 L 47.703125 40.679688 C 47.707031 40.679688 47.710938 40.679688 47.714844 40.679688 Z M 49.964844 49.191406 C 49.878906 49.191406 49.796875 49.144531 49.753906 49.074219 L 48.65625 47.308594 C 48.652344 47.300781 48.648438 47.292969 48.644531 47.28125 L 48.019531 45.96875 C 47.992188 45.910156 47.988281 45.839844 48.011719 45.773438 L 48.460938 44.507812 C 48.464844 44.503906 48.464844 44.496094 48.460938 44.492188 L 47.53125 42.429688 C 47.5 42.363281 47.5 42.285156 47.53125 42.21875 L 47.9375 41.347656 C 47.941406 41.34375 47.941406 41.335938 47.9375 41.328125 L 47.734375 40.917969 C 47.730469 40.910156 47.722656 40.902344 47.714844 40.90625 L 47.320312 40.921875 C 47.222656 40.929688 47.128906 40.871094 47.085938 40.78125 L 46.867188 40.320312 C 46.863281 40.308594 46.851562 40.304688 46.84375 40.304688 L 45.78125 40.421875 C 45.679688 40.433594 45.582031 40.382812 45.535156 40.292969 L 45.414062 40.0625 C 45.410156 40.054688 45.398438 40.046875 45.386719 40.050781 L 45.117188 40.144531 C 45 40.183594 44.875 40.132812 44.816406 40.019531 L 44.042969 38.507812 C 44.023438 38.472656 44.015625 38.433594 44.015625 38.394531 L 43.988281 36.832031 C 43.988281 36.71875 44.066406 36.617188 44.175781 36.585938 L 44.425781 36.523438 C 44.433594 36.523438 44.441406 36.515625 44.441406 36.507812 L 44.605469 35.703125 C 44.617188 35.648438 44.644531 35.601562 44.6875 35.5625 L 45.722656 34.644531 C 45.742188 34.628906 45.761719 34.617188 45.78125 34.609375 L 46.5625 34.238281 C 46.566406 34.238281 46.566406 34.238281 46.570312 34.234375 L 47.351562 33.539062 C 47.410156 33.488281 47.484375 33.464844 47.558594 33.476562 C 47.632812 33.492188 47.695312 33.535156 47.730469 33.601562 L 47.859375 33.828125 C 47.863281 33.835938 47.871094 33.839844 47.878906 33.84375 L 49.234375 33.945312 C 49.25 33.945312 49.261719 33.949219 49.273438 33.953125 L 49.894531 34.09375 C 49.976562 34.113281 50.046875 34.171875 50.074219 34.253906 C 50.101562 34.335938 50.085938 34.425781 50.035156 34.492188 L 49.851562 34.730469 C 49.84375 34.734375 49.84375 34.742188 49.84375 34.746094 C 49.847656 34.75 49.847656 34.757812 49.855469 34.761719 L 50.425781 35.164062 C 50.445312 35.175781 50.464844 35.195312 50.480469 35.214844 L 51.027344 35.921875 C 51.035156 35.929688 51.042969 35.933594 51.046875 35.933594 C 51.054688 35.933594 51.0625 35.929688 51.066406 35.921875 L 51.351562 35.464844 C 51.386719 35.40625 51.445312 35.367188 51.511719 35.351562 C 51.578125 35.339844 51.644531 35.351562 51.699219 35.390625 L 52.558594 35.976562 C 52.5625 35.980469 52.566406 35.980469 52.570312 35.980469 L 53.414062 36.046875 C 53.492188 36.054688 53.5625 36.09375 53.605469 36.160156 C 53.648438 36.230469 53.65625 36.308594 53.628906 36.382812 L 53.546875 36.609375 C 53.542969 36.613281 53.542969 36.617188 53.546875 36.625 L 54.609375 39.933594 C 54.609375 39.933594 54.613281 39.9375 54.613281 39.941406 L 55.175781 40.652344 C 55.179688 40.660156 55.1875 40.664062 55.195312 40.664062 L 56.4375 40.449219 C 56.5625 40.429688 56.683594 40.503906 56.71875 40.628906 L 56.882812 41.214844 C 56.90625 41.289062 56.890625 41.367188 56.847656 41.429688 L 55.832031 42.847656 C 55.824219 42.859375 55.816406 42.871094 55.804688 42.878906 L 53.992188 44.710938 C 53.988281 44.714844 53.984375 44.726562 53.988281 44.734375 L 54.179688 45.433594 C 54.183594 45.457031 54.1875 45.480469 54.1875 45.5 L 54.1875 46.449219 C 54.1875 46.5625 54.113281 46.660156 54.007812 46.691406 L 53.042969 46.964844 C 53.03125 46.964844 53.023438 46.976562 53.027344 46.988281 L 53.066406 47.671875 C 53.074219 47.789062 52.996094 47.898438 52.882812 47.929688 L 52.335938 48.078125 C 52.332031 48.078125 52.328125 48.082031 52.324219 48.089844 L 51.789062 48.992188 C 51.746094 49.066406 51.671875 49.109375 51.589844 49.113281 L 49.972656 49.191406 C 49.96875 49.191406 49.964844 49.191406 49.964844 49.191406 " fill-opacity="1" fill-rule="nonzero"/><path fill="#000000" d="M 60.894531 38.429688 C 60.980469 38.429688 61.058594 38.476562 61.101562 38.554688 L 62.726562 41.679688 C 62.726562 41.683594 62.726562 41.683594 62.730469 41.683594 C 62.734375 41.6875 62.738281 41.683594 62.738281 41.683594 L 62.84375 41.527344 C 62.847656 41.523438 62.847656 41.523438 62.84375 41.519531 L 62.292969 39.742188 C 62.269531 39.667969 62.285156 39.589844 62.328125 39.53125 L 63.21875 38.339844 L 63.21875 38.335938 L 63.199219 37.960938 C 63.191406 37.855469 63.253906 37.765625 63.351562 37.726562 L 63.9375 37.507812 C 64.035156 37.472656 64.144531 37.503906 64.207031 37.589844 L 65.160156 38.917969 L 65.164062 38.921875 L 65.710938 39.019531 C 65.773438 39.027344 65.828125 39.066406 65.863281 39.117188 L 66.140625 39.527344 C 66.144531 39.53125 66.148438 39.535156 66.152344 39.53125 L 66.421875 39.414062 C 66.425781 39.410156 66.425781 39.40625 66.425781 39.402344 L 66.199219 38.242188 L 66.199219 38.234375 L 65.613281 37.75 C 65.578125 37.71875 65.554688 37.679688 65.539062 37.636719 L 65.316406 36.878906 C 65.296875 36.808594 65.304688 36.738281 65.34375 36.679688 L 66.015625 35.664062 L 66.015625 35.65625 L 65.800781 34.28125 L 64.304688 31.449219 L 62.199219 28.632812 C 61.347656 27.96875 60.421875 27.410156 59.4375 26.980469 C 59.4375 26.976562 59.433594 26.976562 59.429688 26.980469 C 59.429688 26.980469 59.429688 26.984375 59.429688 26.984375 L 59.441406 27.589844 C 59.441406 27.664062 59.40625 27.734375 59.351562 27.78125 L 59.191406 27.90625 C 59.191406 27.90625 59.1875 27.910156 59.1875 27.910156 L 59.1875 28.089844 C 59.1875 28.164062 59.15625 28.230469 59.097656 28.273438 C 59.039062 28.320312 58.96875 28.335938 58.898438 28.316406 L 58.230469 28.132812 C 58.226562 28.128906 58.222656 28.132812 58.21875 28.136719 L 57.964844 28.847656 C 57.945312 28.890625 57.917969 28.925781 57.878906 28.953125 L 57.230469 29.429688 C 57.203125 29.445312 57.175781 29.460938 57.144531 29.464844 L 55.710938 29.792969 C 55.679688 29.800781 55.648438 29.800781 55.617188 29.796875 L 54.78125 29.636719 L 54.777344 29.640625 L 53.878906 30.066406 C 53.878906 30.070312 53.875 30.070312 53.875 30.074219 L 53.914062 30.480469 C 53.925781 30.59375 53.847656 30.703125 53.734375 30.730469 L 53.160156 30.863281 C 53.160156 30.863281 53.15625 30.863281 53.15625 30.867188 L 52.886719 31.34375 C 52.839844 31.425781 52.742188 31.472656 52.648438 31.457031 L 50.832031 31.164062 L 50.824219 31.164062 L 49.71875 31.582031 C 49.636719 31.613281 49.546875 31.59375 49.484375 31.535156 L 49.257812 31.324219 C 49.253906 31.320312 49.25 31.320312 49.25 31.324219 L 49.011719 31.417969 C 49.011719 31.417969 49.011719 31.417969 49.007812 31.421875 C 49.007812 31.425781 49.007812 31.425781 49.007812 31.429688 L 49.226562 31.929688 C 49.273438 32.03125 49.238281 32.152344 49.148438 32.214844 L 48.921875 32.375 C 48.851562 32.421875 48.765625 32.429688 48.691406 32.394531 L 48.25 32.179688 C 48.246094 32.179688 48.242188 32.179688 48.238281 32.183594 L 47.683594 32.855469 C 47.679688 32.859375 47.679688 32.859375 47.679688 32.863281 C 47.679688 32.867188 47.683594 32.867188 47.683594 32.867188 L 48.328125 33.320312 C 48.332031 33.320312 48.335938 33.320312 48.335938 33.320312 L 49.671875 32.632812 C 49.710938 32.613281 49.75 32.601562 49.792969 32.605469 L 50.449219 32.65625 C 50.53125 32.660156 50.605469 32.710938 50.640625 32.789062 L 51.117188 33.796875 C 51.117188 33.800781 51.117188 33.800781 51.121094 33.800781 C 51.125 33.804688 51.125 33.800781 51.125 33.800781 L 51.296875 33.710938 C 51.300781 33.707031 51.300781 33.703125 51.300781 33.699219 L 51.058594 32.785156 C 51.039062 32.714844 51.050781 32.640625 51.097656 32.582031 C 51.140625 32.523438 51.207031 32.492188 51.28125 32.492188 L 51.363281 32.492188 C 51.445312 32.492188 51.523438 32.535156 51.5625 32.609375 L 52.152344 33.644531 C 52.179688 33.6875 52.1875 33.742188 52.183594 33.792969 L 52.042969 34.785156 C 52.042969 34.785156 52.039062 34.789062 52.042969 34.792969 C 52.046875 34.792969 52.046875 34.792969 52.050781 34.792969 L 52.089844 34.789062 C 52.09375 34.789062 52.097656 34.789062 52.097656 34.785156 L 52.488281 34.164062 C 52.546875 34.074219 52.652344 34.035156 52.75 34.066406 C 52.851562 34.09375 52.917969 34.183594 52.917969 34.289062 L 52.917969 34.613281 C 52.917969 34.617188 52.917969 34.621094 52.921875 34.621094 L 53.394531 34.8125 L 54.039062 34.929688 C 54.105469 34.941406 54.160156 34.980469 54.195312 35.035156 C 54.230469 35.089844 54.238281 35.160156 54.222656 35.222656 L 53.984375 36.121094 L 54.0625 36.90625 L 55.085938 39.671875 L 55.429688 40.046875 L 55.4375 40.046875 L 57.140625 40.183594 L 57.144531 40.179688 L 58.207031 39.476562 C 58.210938 39.472656 58.210938 39.472656 58.210938 39.46875 L 58.234375 38.152344 C 58.234375 38.148438 58.234375 38.144531 58.230469 38.144531 L 57.777344 38.007812 L 56.851562 38.082031 C 56.75 38.09375 56.652344 38.03125 56.617188 37.933594 L 56.15625 36.734375 C 56.113281 36.621094 56.160156 36.496094 56.269531 36.441406 L 56.523438 36.3125 C 56.628906 36.261719 56.757812 36.292969 56.820312 36.394531 L 57.324219 37.171875 L 57.328125 37.171875 L 59.1875 37.664062 L 59.191406 37.664062 L 59.742188 37.5 C 59.84375 37.46875 59.949219 37.511719 60.003906 37.597656 L 60.578125 38.515625 C 60.578125 38.519531 60.582031 38.519531 60.585938 38.519531 L 60.820312 38.441406 C 60.847656 38.433594 60.871094 38.429688 60.894531 38.429688 Z M 62.730469 41.910156 C 62.726562 41.910156 62.722656 41.910156 62.71875 41.910156 C 62.636719 41.90625 62.566406 41.859375 62.527344 41.785156 L 60.902344 38.660156 C 60.898438 38.65625 60.894531 38.65625 60.890625 38.65625 L 60.65625 38.734375 C 60.554688 38.769531 60.445312 38.730469 60.390625 38.636719 L 59.816406 37.71875 C 59.8125 37.714844 59.808594 37.714844 59.804688 37.714844 L 59.253906 37.878906 C 59.210938 37.890625 59.167969 37.890625 59.128906 37.882812 L 57.273438 37.390625 C 57.21875 37.378906 57.171875 37.34375 57.136719 37.292969 L 56.632812 36.519531 C 56.632812 36.515625 56.628906 36.511719 56.625 36.515625 L 56.367188 36.644531 C 56.363281 36.644531 56.363281 36.648438 56.363281 36.652344 L 56.824219 37.855469 C 56.828125 37.855469 56.828125 37.859375 56.832031 37.859375 L 57.757812 37.78125 C 57.785156 37.78125 57.816406 37.785156 57.84375 37.792969 L 58.292969 37.929688 C 58.394531 37.957031 58.460938 38.054688 58.460938 38.15625 L 58.433594 39.472656 C 58.433594 39.550781 58.394531 39.621094 58.332031 39.664062 L 57.269531 40.371094 C 57.226562 40.398438 57.175781 40.410156 57.125 40.40625 L 55.417969 40.273438 C 55.359375 40.269531 55.308594 40.242188 55.265625 40.199219 L 54.921875 39.828125 C 54.902344 39.804688 54.886719 39.777344 54.875 39.75 L 53.851562 36.984375 C 53.847656 36.96875 53.84375 36.949219 53.839844 36.929688 L 53.761719 36.144531 C 53.757812 36.117188 53.757812 36.089844 53.765625 36.058594 L 54.007812 35.164062 C 54.007812 35.160156 54.007812 35.160156 54.007812 35.15625 C 54.003906 35.152344 54 35.152344 54 35.152344 L 53.355469 35.035156 C 53.339844 35.035156 53.328125 35.03125 53.3125 35.023438 L 52.839844 34.832031 C 52.75 34.796875 52.691406 34.710938 52.691406 34.613281 L 52.691406 34.289062 C 52.691406 34.285156 52.691406 34.285156 52.6875 34.28125 C 52.683594 34.28125 52.679688 34.28125 52.679688 34.285156 L 52.285156 34.90625 C 52.246094 34.96875 52.1875 35.007812 52.117188 35.015625 L 52.074219 35.019531 C 52.003906 35.027344 51.933594 35 51.882812 34.949219 C 51.832031 34.894531 51.808594 34.824219 51.820312 34.753906 L 51.960938 33.761719 L 51.960938 33.753906 L 51.371094 32.722656 C 51.367188 32.71875 51.367188 32.714844 51.363281 32.714844 L 51.28125 32.714844 C 51.28125 32.714844 51.277344 32.714844 51.273438 32.71875 C 51.273438 32.722656 51.273438 32.726562 51.273438 32.726562 L 51.515625 33.640625 C 51.542969 33.746094 51.496094 33.855469 51.402344 33.910156 L 51.230469 34 C 51.175781 34.03125 51.109375 34.035156 51.050781 34.015625 C 50.992188 33.996094 50.941406 33.953125 50.914062 33.894531 L 50.4375 32.886719 C 50.4375 32.882812 50.433594 32.882812 50.429688 32.882812 L 49.777344 32.832031 L 49.773438 32.832031 L 48.4375 33.519531 C 48.363281 33.558594 48.273438 33.554688 48.203125 33.503906 L 47.558594 33.054688 C 47.503906 33.019531 47.46875 32.960938 47.457031 32.894531 C 47.449219 32.828125 47.46875 32.761719 47.511719 32.710938 L 48.066406 32.039062 C 48.132812 31.957031 48.25 31.929688 48.34375 31.976562 L 48.785156 32.1875 C 48.789062 32.191406 48.792969 32.191406 48.792969 32.1875 L 49.019531 32.03125 C 49.023438 32.027344 49.023438 32.023438 49.023438 32.019531 L 48.804688 31.519531 C 48.777344 31.460938 48.777344 31.394531 48.800781 31.335938 C 48.824219 31.277344 48.871094 31.230469 48.929688 31.207031 L 49.164062 31.113281 C 49.246094 31.078125 49.34375 31.097656 49.40625 31.15625 L 49.632812 31.367188 C 49.636719 31.367188 49.640625 31.371094 49.640625 31.367188 L 50.75 30.953125 C 50.785156 30.9375 50.824219 30.933594 50.867188 30.941406 L 52.683594 31.234375 C 52.6875 31.234375 52.691406 31.234375 52.691406 31.230469 L 52.960938 30.753906 C 52.992188 30.699219 53.046875 30.65625 53.109375 30.644531 L 53.683594 30.507812 C 53.6875 30.507812 53.691406 30.503906 53.691406 30.5 L 53.652344 30.097656 C 53.644531 30 53.695312 29.90625 53.785156 29.863281 L 54.683594 29.433594 C 54.726562 29.414062 54.777344 29.40625 54.824219 29.417969 L 55.65625 29.574219 L 55.660156 29.574219 L 57.097656 29.246094 L 57.101562 29.246094 L 57.75 28.769531 L 57.753906 28.769531 L 58.011719 28.058594 C 58.050781 27.941406 58.171875 27.878906 58.289062 27.914062 L 58.957031 28.097656 C 58.957031 28.097656 58.960938 28.097656 58.960938 28.09375 C 58.964844 28.09375 58.964844 28.089844 58.964844 28.089844 L 58.964844 27.910156 C 58.964844 27.839844 58.996094 27.769531 59.054688 27.726562 L 59.214844 27.601562 C 59.214844 27.601562 59.214844 27.597656 59.214844 27.59375 L 59.203125 26.992188 C 59.203125 26.910156 59.242188 26.835938 59.308594 26.792969 C 59.371094 26.746094 59.457031 26.738281 59.527344 26.773438 C 60.527344 27.210938 61.472656 27.777344 62.335938 28.453125 C 62.351562 28.464844 62.367188 28.480469 62.378906 28.496094 L 64.480469 31.3125 C 64.488281 31.320312 64.496094 31.332031 64.5 31.34375 L 66 34.171875 C 66.011719 34.195312 66.019531 34.222656 66.023438 34.246094 L 66.238281 35.621094 C 66.246094 35.679688 66.234375 35.738281 66.203125 35.789062 L 65.53125 36.804688 C 65.527344 36.808594 65.527344 36.808594 65.53125 36.8125 L 65.753906 37.570312 L 65.757812 37.574219 L 66.339844 38.0625 C 66.382812 38.097656 66.410156 38.144531 66.421875 38.195312 L 66.644531 39.359375 C 66.667969 39.46875 66.609375 39.574219 66.511719 39.621094 L 66.242188 39.738281 C 66.140625 39.785156 66.019531 39.75 65.957031 39.65625 L 65.679688 39.246094 C 65.675781 39.242188 65.675781 39.242188 65.671875 39.242188 L 65.125 39.144531 C 65.066406 39.132812 65.015625 39.101562 64.980469 39.050781 L 64.023438 37.722656 C 64.023438 37.71875 64.019531 37.71875 64.015625 37.71875 L 63.425781 37.941406 C 63.425781 37.941406 63.421875 37.945312 63.421875 37.949219 L 63.441406 38.324219 C 63.445312 38.378906 63.429688 38.433594 63.398438 38.476562 L 62.507812 39.664062 C 62.507812 39.667969 62.507812 39.671875 62.507812 39.671875 L 63.058594 41.453125 C 63.082031 41.523438 63.070312 41.597656 63.027344 41.65625 L 62.921875 41.8125 C 62.878906 41.875 62.808594 41.910156 62.730469 41.910156 " fill-opacity="1" fill-rule="nonzero"/><path fill="#000000" d="M 54.773438 46.761719 C 54.769531 46.761719 54.765625 46.761719 54.765625 46.765625 C 54.761719 46.769531 54.761719 46.773438 54.761719 46.777344 L 54.800781 47.3125 C 54.808594 47.398438 54.765625 47.484375 54.691406 47.53125 L 54.304688 47.773438 C 54.300781 47.777344 54.296875 47.785156 54.300781 47.792969 L 54.511719 48.152344 C 54.515625 48.15625 54.519531 48.160156 54.523438 48.160156 L 54.9375 48.21875 C 54.945312 48.21875 54.949219 48.214844 54.949219 48.210938 L 56.003906 46.589844 C 56.007812 46.585938 56.007812 46.582031 56.007812 46.578125 L 55.898438 46.101562 C 55.898438 46.097656 55.894531 46.09375 55.886719 46.089844 C 55.882812 46.089844 55.878906 46.09375 55.875 46.09375 L 55.273438 46.703125 C 55.226562 46.75 55.160156 46.777344 55.09375 46.773438 Z M 54.941406 48.445312 C 54.929688 48.445312 54.917969 48.441406 54.90625 48.441406 L 54.492188 48.382812 C 54.421875 48.375 54.359375 48.332031 54.320312 48.269531 L 54.109375 47.90625 C 54.042969 47.796875 54.078125 47.648438 54.1875 47.582031 L 54.574219 47.339844 C 54.578125 47.335938 54.578125 47.332031 54.578125 47.328125 L 54.539062 46.792969 C 54.53125 46.726562 54.554688 46.660156 54.601562 46.609375 C 54.648438 46.558594 54.714844 46.535156 54.78125 46.535156 L 55.105469 46.546875 C 55.109375 46.546875 55.109375 46.546875 55.113281 46.542969 L 55.71875 45.933594 C 55.777344 45.871094 55.867188 45.847656 55.949219 45.875 C 56.03125 45.898438 56.097656 45.964844 56.117188 46.050781 L 56.222656 46.527344 C 56.238281 46.589844 56.226562 46.65625 56.191406 46.710938 L 55.136719 48.335938 C 55.09375 48.402344 55.019531 48.445312 54.941406 48.445312 " fill-opacity="1" fill-rule="nonzero"/><path fill="#000000" d="M 51.859375 29.390625 C 51.789062 29.390625 51.726562 29.4375 51.703125 29.503906 L 51.636719 29.710938 C 51.621094 29.757812 51.625 29.804688 51.652344 29.847656 C 51.675781 29.890625 51.714844 29.917969 51.761719 29.925781 L 51.90625 29.953125 C 52.066406 29.984375 52.191406 30.113281 52.214844 30.277344 L 52.226562 30.359375 C 52.238281 30.414062 52.269531 30.457031 52.316406 30.480469 C 52.367188 30.503906 52.421875 30.503906 52.46875 30.476562 L 52.785156 30.304688 C 52.835938 30.277344 52.867188 30.222656 52.871094 30.164062 L 52.875 30.027344 C 52.882812 29.890625 52.957031 29.761719 53.078125 29.699219 L 54.214844 29.070312 C 54.269531 29.042969 54.300781 28.988281 54.300781 28.925781 C 54.300781 28.863281 54.269531 28.8125 54.214844 28.78125 L 54.066406 28.699219 C 54.015625 28.671875 53.953125 28.671875 53.90625 28.699219 L 53.183594 29.128906 C 53.15625 29.144531 53.128906 29.15625 53.097656 29.167969 L 52.421875 29.375 C 52.386719 29.382812 52.347656 29.390625 52.3125 29.390625 Z M 52.390625 30.726562 C 52.332031 30.726562 52.273438 30.710938 52.21875 30.683594 C 52.105469 30.628906 52.027344 30.519531 52.007812 30.394531 L 51.996094 30.3125 C 51.984375 30.242188 51.929688 30.1875 51.863281 30.175781 L 51.71875 30.148438 C 51.609375 30.128906 51.515625 30.058594 51.457031 29.960938 C 51.402344 29.867188 51.386719 29.75 51.421875 29.640625 L 51.488281 29.433594 C 51.542969 29.273438 51.691406 29.164062 51.859375 29.164062 L 52.3125 29.164062 C 52.328125 29.164062 52.34375 29.160156 52.359375 29.15625 L 53.035156 28.949219 C 53.046875 28.945312 53.058594 28.941406 53.070312 28.933594 L 53.792969 28.507812 C 53.910156 28.4375 54.054688 28.433594 54.171875 28.5 L 54.324219 28.582031 C 54.449219 28.652344 54.523438 28.78125 54.523438 28.925781 C 54.523438 29.070312 54.449219 29.199219 54.324219 29.269531 L 53.183594 29.894531 C 53.132812 29.925781 53.101562 29.976562 53.101562 30.035156 L 53.09375 30.175781 C 53.089844 30.3125 53.011719 30.4375 52.890625 30.503906 L 52.574219 30.675781 C 52.515625 30.707031 52.453125 30.726562 52.390625 30.726562 " fill-opacity="1" fill-rule="nonzero"/><path fill="#000000" d="M 50.941406 29.960938 Z M 49.667969 30.1875 C 49.65625 30.1875 49.644531 30.191406 49.636719 30.199219 L 49.335938 30.484375 C 49.320312 30.5 49.320312 30.515625 49.320312 30.523438 C 49.324219 30.53125 49.328125 30.546875 49.34375 30.558594 L 49.71875 30.800781 C 49.726562 30.804688 49.738281 30.808594 49.75 30.804688 L 50.34375 30.703125 C 50.363281 30.699219 50.378906 30.683594 50.382812 30.664062 L 50.460938 30.269531 C 50.480469 30.179688 50.539062 30.105469 50.621094 30.070312 L 50.804688 29.992188 C 50.820312 29.984375 50.828125 29.96875 50.832031 29.953125 C 50.832031 29.929688 50.816406 29.910156 50.792969 29.902344 L 50.496094 29.835938 C 50.480469 29.832031 50.460938 29.839844 50.449219 29.855469 L 50.175781 30.226562 C 50.132812 30.285156 50.070312 30.324219 49.996094 30.335938 C 49.921875 30.34375 49.851562 30.324219 49.792969 30.277344 L 49.695312 30.199219 C 49.6875 30.191406 49.675781 30.1875 49.667969 30.1875 Z M 49.742188 31.03125 C 49.691406 31.03125 49.640625 31.019531 49.597656 30.988281 L 49.222656 30.75 C 49.152344 30.703125 49.105469 30.628906 49.097656 30.542969 C 49.089844 30.460938 49.121094 30.378906 49.183594 30.320312 L 49.480469 30.035156 C 49.578125 29.945312 49.730469 29.9375 49.835938 30.023438 L 49.933594 30.101562 C 49.945312 30.109375 49.960938 30.109375 49.96875 30.109375 C 49.972656 30.109375 49.988281 30.105469 49.996094 30.089844 L 50.269531 29.71875 C 50.332031 29.636719 50.441406 29.59375 50.542969 29.617188 L 50.84375 29.683594 C 50.972656 29.710938 51.0625 29.832031 51.054688 29.96875 C 51.046875 30.070312 50.984375 30.160156 50.890625 30.199219 L 50.707031 30.277344 C 50.695312 30.285156 50.683594 30.296875 50.679688 30.3125 L 50.601562 30.710938 C 50.582031 30.820312 50.492188 30.90625 50.382812 30.925781 L 49.789062 31.027344 C 49.773438 31.03125 49.757812 31.03125 49.742188 31.03125 " fill-opacity="1" fill-rule="nonzero"/><path fill="#000000" d="M 64.769531 40.847656 Z M 64.785156 40.957031 C 64.757812 40.960938 64.742188 40.984375 64.738281 40.992188 C 64.734375 41.003906 64.726562 41.027344 64.738281 41.054688 L 65.265625 42.042969 C 65.292969 42.09375 65.304688 42.152344 65.300781 42.210938 L 65.199219 43.242188 C 65.195312 43.269531 65.207031 43.292969 65.230469 43.304688 L 65.484375 43.460938 C 65.515625 43.476562 65.554688 43.46875 65.574219 43.441406 L 65.738281 43.195312 C 65.746094 43.179688 65.75 43.164062 65.75 43.152344 L 65.695312 42.542969 C 65.695312 42.542969 65.695312 42.539062 65.695312 42.539062 L 65.605469 42.066406 C 65.605469 42.054688 65.601562 42.046875 65.59375 42.039062 L 64.851562 40.984375 C 64.835938 40.964844 64.8125 40.953125 64.785156 40.957031 Z M 65.519531 43.695312 C 65.464844 43.695312 65.414062 43.683594 65.367188 43.652344 L 65.117188 43.5 C 65.019531 43.441406 64.964844 43.332031 64.976562 43.21875 L 65.078125 42.191406 C 65.078125 42.175781 65.078125 42.164062 65.070312 42.152344 L 64.542969 41.164062 C 64.5 41.078125 64.496094 40.980469 64.535156 40.894531 C 64.578125 40.808594 64.65625 40.75 64.75 40.734375 C 64.859375 40.714844 64.96875 40.761719 65.035156 40.855469 L 65.777344 41.910156 C 65.800781 41.941406 65.816406 41.980469 65.828125 42.023438 L 65.917969 42.496094 C 65.917969 42.503906 65.917969 42.515625 65.921875 42.523438 L 65.972656 43.128906 C 65.980469 43.199219 65.960938 43.265625 65.921875 43.320312 L 65.757812 43.566406 C 65.703125 43.652344 65.609375 43.695312 65.519531 43.695312 " fill-opacity="1" fill-rule="nonzero"/><path fill="#000000" d="M 66.714844 40.121094 Z M 66.824219 40.136719 Z M 66.820312 40.167969 L 66.683594 41.011719 C 66.675781 41.042969 66.664062 41.074219 66.644531 41.101562 L 66.410156 41.453125 L 66.367188 42.164062 L 66.484375 42.144531 L 66.867188 40.984375 Z M 66.363281 42.390625 C 66.308594 42.390625 66.253906 42.371094 66.214844 42.335938 C 66.164062 42.289062 66.136719 42.222656 66.140625 42.15625 L 66.1875 41.4375 C 66.1875 41.398438 66.203125 41.359375 66.222656 41.328125 L 66.460938 40.972656 L 66.605469 40.101562 C 66.621094 40.007812 66.691406 39.933594 66.785156 39.917969 C 66.84375 39.90625 66.910156 39.921875 66.960938 39.960938 C 67.007812 40.003906 67.039062 40.0625 67.042969 40.125 L 67.089844 40.972656 C 67.089844 41 67.085938 41.027344 67.078125 41.054688 L 66.695312 42.21875 C 66.667969 42.296875 66.601562 42.355469 66.519531 42.367188 L 66.398438 42.386719 C 66.386719 42.390625 66.375 42.390625 66.363281 42.390625 " fill-opacity="1" fill-rule="nonzero"/><path fill="#000000" d="M 48.910156 28.238281 Z M 52.734375 26.847656 C 52.722656 26.847656 52.710938 26.847656 52.699219 26.851562 L 51.105469 27.246094 C 51.09375 27.25 51.085938 27.253906 51.074219 27.257812 L 48.960938 28.335938 C 48.898438 28.367188 48.871094 28.4375 48.886719 28.503906 C 48.898438 28.546875 48.929688 28.582031 48.972656 28.597656 C 49.015625 28.617188 49.058594 28.613281 49.097656 28.585938 L 49.589844 28.28125 C 49.625 28.261719 49.660156 28.246094 49.703125 28.234375 L 51.160156 27.90625 C 51.171875 27.90625 51.179688 27.90625 51.1875 27.902344 L 52.601562 27.6875 C 52.609375 27.6875 52.613281 27.6875 52.617188 27.683594 L 53.914062 27.328125 C 53.953125 27.320312 53.984375 27.292969 54.003906 27.261719 L 54.105469 27.078125 C 54.128906 27.03125 54.128906 26.980469 54.101562 26.933594 C 54.078125 26.890625 54.03125 26.863281 53.980469 26.863281 L 52.738281 26.847656 Z M 49.023438 28.835938 C 48.980469 28.835938 48.933594 28.828125 48.890625 28.808594 C 48.78125 28.765625 48.703125 28.675781 48.671875 28.5625 C 48.625 28.394531 48.703125 28.214844 48.859375 28.136719 L 50.972656 27.054688 C 51 27.042969 51.023438 27.035156 51.050781 27.027344 L 52.648438 26.628906 C 52.675781 26.621094 52.707031 26.621094 52.738281 26.621094 L 53.984375 26.636719 C 54.113281 26.640625 54.230469 26.707031 54.296875 26.820312 C 54.363281 26.933594 54.363281 27.070312 54.300781 27.1875 L 54.199219 27.371094 C 54.152344 27.457031 54.070312 27.523438 53.972656 27.546875 L 52.675781 27.902344 C 52.664062 27.90625 52.648438 27.910156 52.636719 27.914062 L 51.21875 28.125 C 51.214844 28.128906 51.214844 28.128906 51.210938 28.128906 L 49.75 28.457031 C 49.734375 28.460938 49.71875 28.464844 49.707031 28.472656 L 49.214844 28.78125 C 49.15625 28.816406 49.089844 28.835938 49.023438 28.835938 " fill-opacity="1" fill-rule="nonzero"/><g clip-path="url(#b91c8dcff7)"><path fill="#fc4f75" d="M 68.953125 24.480469 C 67.132812 22.640625 64.175781 22.640625 62.351562 24.480469 L 61.921875 24.917969 L 61.488281 24.480469 C 59.667969 22.640625 56.710938 22.640625 54.886719 24.480469 C 53.066406 26.324219 53.066406 29.308594 54.886719 31.152344 L 55.320312 31.585938 L 55.316406 31.589844 L 61.917969 38.257812 L 61.921875 38.257812 L 68.527344 31.589844 L 68.523438 31.585938 L 68.953125 31.152344 C 70.777344 29.308594 70.777344 26.324219 68.953125 24.480469 " fill-opacity="1" fill-rule="nonzero"/></g><g clip-path="url(#b419c4f250)"><path fill="#e8426d" d="M 68.953125 24.480469 C 67.792969 23.308594 66.175781 22.882812 64.679688 23.203125 C 65.535156 23.386719 66.34375 23.8125 67.007812 24.480469 C 68.832031 26.324219 68.832031 29.308594 67.007812 31.152344 L 66.578125 31.585938 L 66.578125 31.589844 L 61.921875 38.257812 L 61.917969 38.257812 L 61.921875 38.257812 L 68.527344 31.589844 L 68.523438 31.585938 L 68.953125 31.152344 C 70.777344 29.308594 70.777344 26.324219 68.953125 24.480469 " fill-opacity="1" fill-rule="nonzero"/></g><g clip-path="url(#6ca6fe6984)"><path fill="#000000" d="M 55.414062 31.527344 L 61.921875 38.101562 L 68.429688 31.527344 C 68.433594 31.519531 68.4375 31.511719 68.445312 31.507812 L 68.875 31.070312 C 70.652344 29.277344 70.652344 26.355469 68.875 24.5625 C 67.097656 22.765625 64.207031 22.765625 62.429688 24.5625 L 62 24.996094 C 61.957031 25.042969 61.886719 25.042969 61.84375 24.996094 L 61.410156 24.5625 C 60.550781 23.691406 59.40625 23.214844 58.1875 23.214844 C 56.972656 23.214844 55.828125 23.691406 54.96875 24.5625 C 53.191406 26.355469 53.191406 29.277344 54.96875 31.070312 L 55.398438 31.507812 C 55.402344 31.511719 55.410156 31.519531 55.414062 31.527344 Z M 61.921875 38.371094 L 61.917969 38.371094 C 61.890625 38.371094 61.863281 38.359375 61.839844 38.339844 L 55.238281 31.667969 C 55.230469 31.664062 55.226562 31.65625 55.222656 31.648438 L 54.808594 31.230469 C 53.90625 30.320312 53.410156 29.105469 53.410156 27.816406 C 53.410156 26.527344 53.90625 25.3125 54.808594 24.402344 C 55.710938 23.488281 56.910156 22.988281 58.1875 22.988281 C 59.464844 22.988281 60.664062 23.488281 61.570312 24.402344 L 61.921875 24.757812 L 62.273438 24.402344 C 63.175781 23.488281 64.375 22.988281 65.652344 22.988281 C 66.929688 22.988281 68.128906 23.488281 69.035156 24.402344 C 69.9375 25.3125 70.433594 26.527344 70.433594 27.816406 C 70.433594 29.105469 69.9375 30.320312 69.035156 31.230469 L 68.621094 31.648438 C 68.617188 31.65625 68.609375 31.664062 68.605469 31.667969 L 62.003906 38.339844 C 61.980469 38.359375 61.953125 38.371094 61.921875 38.371094 " fill-opacity="1" fill-rule="nonzero"/></g><path fill="#fc9dbb" d="M 55.335938 29.15625 C 55.179688 29.15625 55.042969 29.046875 55.007812 28.886719 C 54.753906 27.695312 54.929688 26.449219 55.511719 25.382812 C 55.601562 25.21875 55.804688 25.160156 55.964844 25.25 C 56.128906 25.339844 56.1875 25.546875 56.097656 25.710938 C 55.597656 26.632812 55.441406 27.710938 55.664062 28.742188 C 55.703125 28.925781 55.585938 29.109375 55.40625 29.148438 C 55.382812 29.152344 55.359375 29.15625 55.335938 29.15625 " fill-opacity="1" fill-rule="nonzero"/><path fill="#ffffff" d="M 62.464844 33.082031 L 61.375 33.082031 C 61.109375 33.082031 60.890625 32.863281 60.890625 32.59375 L 60.890625 27.464844 C 60.890625 27.195312 61.109375 26.976562 61.375 26.976562 L 62.464844 26.976562 C 62.734375 26.976562 62.949219 27.195312 62.949219 27.464844 L 62.949219 32.59375 C 62.949219 32.863281 62.734375 33.082031 62.464844 33.082031 " fill-opacity="1" fill-rule="nonzero"/><path fill="#ffffff" d="M 58.898438 30.578125 L 58.898438 29.476562 C 58.898438 29.207031 59.117188 28.988281 59.382812 28.988281 L 64.460938 28.988281 C 64.726562 28.988281 64.945312 29.207031 64.945312 29.476562 L 64.945312 30.578125 C 64.945312 30.847656 64.726562 31.066406 64.460938 31.066406 L 59.382812 31.066406 C 59.117188 31.066406 58.898438 30.847656 58.898438 30.578125 " fill-opacity="1" fill-rule="nonzero"/><path fill="#fc9dbb" d="M 55.699219 29.851562 C 55.523438 29.9375 55.457031 30.15625 55.554688 30.328125 C 55.695312 30.574219 55.855469 30.8125 56.035156 31.03125 C 56.101562 31.113281 56.199219 31.15625 56.296875 31.15625 C 56.371094 31.15625 56.445312 31.128906 56.507812 31.078125 C 56.652344 30.957031 56.671875 30.746094 56.554688 30.601562 C 56.398438 30.40625 56.257812 30.203125 56.136719 29.988281 C 56.046875 29.832031 55.855469 29.773438 55.699219 29.851562 " fill-opacity="1" fill-rule="nonzero"/></svg>