<svg xmlns="http://www.w3.org/2000/svg" xmlns:xlink="http://www.w3.org/1999/xlink" width="150" zoomAndPan="magnify" viewBox="0 0 150 99.749996" height="100" preserveAspectRatio="xMidYMid meet" version="1.0"><defs><clipPath id="41695b96b1"><path d="M 0.1875 0 L 149.8125 0 L 149.8125 99.5 L 0.1875 99.5 Z M 0.1875 0 " clip-rule="nonzero"/></clipPath><clipPath id="5ab2c03d3c"><path d="M 83 47 L 101.375 47 L 101.375 78.074219 L 83 78.074219 Z M 83 47 " clip-rule="nonzero"/></clipPath><clipPath id="38fe5222d1"><path d="M 46.015625 47 L 64 47 L 64 78.074219 L 46.015625 78.074219 Z M 46.015625 47 " clip-rule="nonzero"/></clipPath><clipPath id="95063778f2"><path d="M 64 21.214844 L 83 21.214844 L 83 47 L 64 47 Z M 64 21.214844 " clip-rule="nonzero"/></clipPath></defs><g clip-path="url(#41695b96b1)"><path fill="#ffffff" d="M 0.1875 0 L 149.8125 0 L 149.8125 99.5 L 0.1875 99.5 Z M 0.1875 0 " fill-opacity="1" fill-rule="nonzero"/><path fill="#ffffff" d="M 0.1875 0 L 149.8125 0 L 149.8125 99.5 L 0.1875 99.5 Z M 0.1875 0 " fill-opacity="1" fill-rule="nonzero"/></g><g clip-path="url(#5ab2c03d3c)"><path fill="#000000" d="M 101.023438 76.742188 L 85.078125 47.867188 C 84.855469 47.425781 84.28125 47.289062 83.882812 47.511719 C 83.4375 47.734375 83.304688 48.3125 83.527344 48.710938 L 99.472656 77.585938 C 99.652344 77.894531 99.917969 78.03125 100.269531 78.03125 C 100.402344 78.03125 100.582031 77.984375 100.714844 77.894531 C 101.113281 77.71875 101.289062 77.1875 101.023438 76.742188 Z M 101.023438 76.742188 " fill-opacity="1" fill-rule="nonzero"/></g><g clip-path="url(#38fe5222d1)"><path fill="#000000" d="M 63.816406 48.757812 C 64.039062 48.3125 63.90625 47.78125 63.460938 47.558594 C 63.019531 47.335938 62.488281 47.46875 62.265625 47.914062 C 60.316406 51.378906 58.367188 55.019531 56.464844 58.527344 C 53.1875 64.527344 49.773438 70.746094 46.363281 76.742188 C 46.097656 77.1875 46.277344 77.71875 46.675781 77.941406 C 46.808594 78.03125 46.984375 78.074219 47.117188 78.074219 C 47.425781 78.074219 47.738281 77.894531 47.871094 77.628906 C 51.324219 71.632812 54.734375 65.371094 58.015625 59.328125 C 59.917969 55.820312 61.910156 52.222656 63.816406 48.757812 Z M 63.816406 48.757812 " fill-opacity="1" fill-rule="nonzero"/></g><path fill="#000000" d="M 73.695312 68.746094 C 73.429688 68.746094 73.25 68.921875 73.25 69.191406 L 73.25 72.742188 C 73.25 73.011719 73.429688 73.1875 73.695312 73.1875 C 73.960938 73.1875 74.136719 73.011719 74.136719 72.742188 L 74.136719 69.191406 C 74.136719 68.96875 73.960938 68.746094 73.695312 68.746094 Z M 73.695312 68.746094 " fill-opacity="1" fill-rule="nonzero"/><path fill="#000000" d="M 73.695312 75.851562 C 73.429688 75.851562 73.25 76.03125 73.25 76.296875 L 73.25 77.1875 C 73.25 77.453125 73.429688 77.628906 73.695312 77.628906 C 73.960938 77.628906 74.136719 77.453125 74.136719 77.1875 L 74.136719 76.296875 C 74.136719 76.074219 73.960938 75.851562 73.695312 75.851562 Z M 73.695312 75.851562 " fill-opacity="1" fill-rule="nonzero"/><path fill="#000000" d="M 73.695312 61.636719 C 73.429688 61.636719 73.25 61.816406 73.25 62.082031 L 73.25 65.636719 C 73.25 65.902344 73.429688 66.082031 73.695312 66.082031 C 73.960938 66.082031 74.136719 65.902344 74.136719 65.636719 L 74.136719 62.082031 C 74.136719 61.859375 73.960938 61.636719 73.695312 61.636719 Z M 73.695312 61.636719 " fill-opacity="1" fill-rule="nonzero"/><path fill="#000000" d="M 73.695312 54.53125 C 73.429688 54.53125 73.25 54.710938 73.25 54.976562 L 73.25 58.527344 C 73.25 58.796875 73.429688 58.972656 73.695312 58.972656 C 73.960938 58.972656 74.136719 58.796875 74.136719 58.527344 L 74.136719 54.976562 C 74.136719 54.710938 73.960938 54.53125 73.695312 54.53125 Z M 73.695312 54.53125 " fill-opacity="1" fill-rule="nonzero"/><path fill="#000000" d="M 73.695312 47.425781 C 73.429688 47.425781 73.25 47.601562 73.25 47.867188 L 73.25 51.421875 C 73.25 51.6875 73.429688 51.867188 73.695312 51.867188 C 73.960938 51.867188 74.136719 51.6875 74.136719 51.421875 L 74.136719 47.867188 C 74.136719 47.601562 73.960938 47.425781 73.695312 47.425781 Z M 73.695312 47.425781 " fill-opacity="1" fill-rule="nonzero"/><g clip-path="url(#95063778f2)"><path fill="#000000" d="M 82.464844 46.089844 C 82.464844 45.824219 82.289062 45.648438 82.023438 45.648438 L 75.464844 45.648438 L 75.464844 42.539062 L 79.007812 42.539062 L 79.007812 38.941406 C 79.71875 38.761719 80.382812 38.097656 80.605469 37.339844 L 80.691406 37.117188 C 80.957031 36.1875 80.558594 35.476562 79.761719 35.476562 L 79.007812 35.476562 L 79.007812 33.652344 C 79.71875 33.476562 80.382812 32.808594 80.605469 32.054688 L 80.691406 31.832031 C 80.957031 30.898438 80.558594 30.1875 79.761719 30.1875 L 79.007812 30.1875 L 79.007812 28.367188 C 79.71875 28.191406 80.382812 27.523438 80.605469 26.769531 L 80.691406 26.546875 C 80.957031 25.523438 80.558594 24.769531 79.761719 24.769531 L 79.007812 24.769531 L 79.007812 24.726562 C 79.007812 22.769531 77.414062 21.214844 75.464844 21.214844 L 71.921875 21.214844 C 69.972656 21.214844 68.378906 22.769531 68.378906 24.726562 L 68.378906 24.769531 L 67.625 24.769531 C 66.828125 24.769531 66.429688 25.523438 66.695312 26.414062 L 66.785156 26.636719 C 67.007812 27.433594 67.714844 28.101562 68.378906 28.234375 L 68.378906 30.101562 L 67.625 30.101562 C 66.828125 30.101562 66.429688 30.855469 66.695312 31.742188 L 66.785156 31.964844 C 67.007812 32.765625 67.714844 33.433594 68.378906 33.566406 L 68.378906 35.429688 L 67.625 35.429688 C 66.828125 35.429688 66.429688 36.1875 66.695312 37.074219 L 66.785156 37.296875 C 67.007812 38.097656 67.714844 38.761719 68.378906 38.894531 L 68.378906 42.539062 L 71.921875 42.539062 L 71.921875 45.648438 L 65.410156 45.648438 C 65.144531 45.648438 64.96875 45.824219 64.96875 46.089844 C 64.96875 46.359375 65.144531 46.535156 65.410156 46.535156 L 82.023438 46.535156 C 82.242188 46.535156 82.464844 46.359375 82.464844 46.089844 Z M 74.582031 42.539062 L 74.582031 45.648438 L 72.808594 45.648438 L 72.808594 42.539062 Z M 79.761719 36.320312 C 79.808594 36.320312 79.851562 36.320312 79.851562 36.363281 C 79.894531 36.40625 79.941406 36.585938 79.851562 36.851562 L 79.761719 37.074219 C 79.628906 37.519531 79.320312 37.828125 79.007812 38.007812 L 79.007812 36.320312 Z M 79.761719 30.988281 C 79.808594 30.988281 79.851562 30.988281 79.851562 31.035156 C 79.894531 31.078125 79.941406 31.253906 79.851562 31.523438 L 79.761719 31.742188 C 79.628906 32.1875 79.320312 32.5 79.007812 32.675781 L 79.007812 30.988281 Z M 79.761719 25.660156 C 79.808594 25.660156 79.851562 25.660156 79.851562 25.703125 C 79.894531 25.746094 79.941406 25.925781 79.851562 26.191406 L 79.761719 26.414062 C 79.628906 26.859375 79.320312 27.167969 79.007812 27.347656 L 79.007812 25.660156 Z M 67.625 26.414062 L 67.539062 26.191406 C 67.449219 25.925781 67.492188 25.746094 67.539062 25.703125 C 67.539062 25.703125 67.582031 25.660156 67.625 25.660156 L 68.378906 25.660156 L 68.378906 27.347656 C 68.070312 27.167969 67.757812 26.8125 67.625 26.414062 Z M 67.625 31.742188 L 67.539062 31.523438 C 67.449219 31.253906 67.492188 31.078125 67.539062 31.035156 C 67.539062 31.035156 67.582031 30.988281 67.625 30.988281 L 68.378906 30.988281 L 68.378906 32.675781 C 68.070312 32.5 67.757812 32.144531 67.625 31.742188 Z M 67.625 37.074219 L 67.539062 36.851562 C 67.449219 36.585938 67.492188 36.40625 67.539062 36.363281 C 67.539062 36.363281 67.582031 36.320312 67.625 36.320312 L 68.378906 36.320312 L 68.378906 38.007812 C 68.070312 37.828125 67.757812 37.472656 67.625 37.074219 Z M 70.152344 24.769531 L 70.152344 24.726562 C 70.152344 23.75 70.949219 22.992188 71.921875 22.992188 L 75.464844 22.992188 C 76.441406 22.992188 77.238281 23.75 77.238281 24.726562 L 77.238281 40.761719 L 70.152344 40.761719 Z M 70.152344 24.769531 " fill-opacity="1" fill-rule="nonzero"/></g><path fill="#000000" d="M 73.695312 24.769531 C 72.71875 24.769531 71.921875 25.570312 71.921875 26.546875 C 71.921875 27.523438 72.71875 28.324219 73.695312 28.324219 C 74.667969 28.324219 75.464844 27.523438 75.464844 26.546875 C 75.464844 25.570312 74.667969 24.769531 73.695312 24.769531 Z M 73.695312 27.433594 C 73.207031 27.433594 72.808594 27.035156 72.808594 26.546875 C 72.808594 26.058594 73.207031 25.660156 73.695312 25.660156 C 74.179688 25.660156 74.582031 26.058594 74.582031 26.546875 C 74.582031 27.035156 74.179688 27.433594 73.695312 27.433594 Z M 73.695312 27.433594 " fill-opacity="1" fill-rule="nonzero"/><path fill="#000000" d="M 73.695312 30.101562 C 72.71875 30.101562 71.921875 30.898438 71.921875 31.878906 C 71.921875 32.855469 72.71875 33.652344 73.695312 33.652344 C 74.667969 33.652344 75.464844 32.855469 75.464844 31.878906 C 75.464844 30.898438 74.667969 30.101562 73.695312 30.101562 Z M 73.695312 32.765625 C 73.207031 32.765625 72.808594 32.367188 72.808594 31.878906 C 72.808594 31.386719 73.207031 30.988281 73.695312 30.988281 C 74.179688 30.988281 74.582031 31.386719 74.582031 31.878906 C 74.582031 32.367188 74.179688 32.765625 73.695312 32.765625 Z M 73.695312 32.765625 " fill-opacity="1" fill-rule="nonzero"/><path fill="#000000" d="M 73.695312 35.429688 C 72.71875 35.429688 71.921875 36.230469 71.921875 37.207031 C 71.921875 38.183594 72.71875 38.984375 73.695312 38.984375 C 74.667969 38.984375 75.464844 38.183594 75.464844 37.207031 C 75.464844 36.230469 74.667969 35.429688 73.695312 35.429688 Z M 73.695312 38.097656 C 73.207031 38.097656 72.808594 37.695312 72.808594 37.207031 C 72.808594 36.71875 73.207031 36.320312 73.695312 36.320312 C 74.179688 36.320312 74.582031 36.71875 74.582031 37.207031 C 74.582031 37.695312 74.179688 38.097656 73.695312 38.097656 Z M 73.695312 38.097656 " fill-opacity="1" fill-rule="nonzero"/><path fill="#000000" d="M 69 67.414062 L 69.265625 67.414062 C 69.53125 67.414062 69.707031 67.234375 69.707031 66.96875 C 69.707031 66.703125 69.53125 66.523438 69.265625 66.523438 L 68.511719 66.523438 L 67.757812 65.101562 C 67.539062 64.660156 66.960938 64.304688 66.472656 64.304688 L 60.539062 64.304688 C 60.050781 64.304688 59.476562 64.660156 59.253906 65.101562 L 58.5 66.523438 L 57.75 66.523438 C 57.484375 66.523438 57.304688 66.703125 57.304688 66.96875 C 57.304688 67.234375 57.484375 67.414062 57.75 67.414062 L 58.015625 67.414062 L 57.261719 68.878906 C 57.039062 69.324219 56.863281 70.078125 56.863281 70.566406 L 56.863281 74.519531 C 56.863281 75.007812 57.261719 75.410156 57.75 75.410156 L 58.632812 75.410156 C 59.121094 75.410156 59.519531 75.007812 59.519531 74.519531 L 59.519531 74.078125 L 67.492188 74.078125 L 67.492188 74.519531 C 67.492188 75.007812 67.890625 75.410156 68.378906 75.410156 L 69.265625 75.410156 C 69.753906 75.410156 70.152344 75.007812 70.152344 74.519531 L 70.152344 70.566406 C 70.152344 70.078125 69.972656 69.324219 69.753906 68.878906 Z M 58.546875 68.390625 L 68.511719 68.390625 L 68.910156 69.191406 L 58.101562 69.191406 Z M 60.007812 65.503906 C 60.097656 65.371094 60.363281 65.191406 60.496094 65.191406 L 66.472656 65.191406 C 66.652344 65.191406 66.917969 65.371094 66.960938 65.503906 L 67.980469 67.503906 L 58.988281 67.503906 Z M 58.632812 74.519531 L 57.75 74.519531 L 57.75 74.078125 L 58.632812 74.078125 Z M 69.265625 74.519531 L 68.378906 74.519531 L 68.378906 74.078125 L 69.265625 74.078125 Z M 67.492188 73.1875 L 57.75 73.1875 L 57.75 70.566406 C 57.75 70.433594 57.792969 70.257812 57.792969 70.078125 L 69.175781 70.078125 C 69.21875 70.257812 69.21875 70.433594 69.21875 70.566406 L 69.21875 73.1875 Z M 67.492188 73.1875 " fill-opacity="1" fill-rule="nonzero"/><path fill="#000000" d="M 60.40625 71.632812 C 60.40625 71.753906 60.363281 71.859375 60.277344 71.945312 C 60.191406 72.035156 60.085938 72.078125 59.964844 72.078125 C 59.839844 72.078125 59.738281 72.035156 59.648438 71.945312 C 59.5625 71.859375 59.519531 71.753906 59.519531 71.632812 C 59.519531 71.511719 59.5625 71.40625 59.648438 71.320312 C 59.738281 71.230469 59.839844 71.1875 59.964844 71.1875 C 60.085938 71.1875 60.191406 71.230469 60.277344 71.320312 C 60.363281 71.40625 60.40625 71.511719 60.40625 71.632812 Z M 60.40625 71.632812 " fill-opacity="1" fill-rule="nonzero"/><path fill="#000000" d="M 67.492188 71.632812 C 67.492188 71.753906 67.449219 71.859375 67.363281 71.945312 C 67.277344 72.035156 67.171875 72.078125 67.050781 72.078125 C 66.929688 72.078125 66.824219 72.035156 66.738281 71.945312 C 66.652344 71.859375 66.605469 71.753906 66.605469 71.632812 C 66.605469 71.511719 66.652344 71.40625 66.738281 71.320312 C 66.824219 71.230469 66.929688 71.1875 67.050781 71.1875 C 67.171875 71.1875 67.277344 71.230469 67.363281 71.320312 C 67.449219 71.40625 67.492188 71.511719 67.492188 71.632812 Z M 67.492188 71.632812 " fill-opacity="1" fill-rule="nonzero"/><path fill="#000000" d="M 64.390625 71.054688 L 62.621094 71.054688 C 62.355469 71.054688 62.179688 71.234375 62.179688 71.5 C 62.179688 71.765625 62.355469 71.945312 62.621094 71.945312 L 64.390625 71.945312 C 64.660156 71.945312 64.835938 71.765625 64.835938 71.5 C 64.835938 71.234375 64.660156 71.054688 64.390625 71.054688 Z M 64.390625 71.054688 " fill-opacity="1" fill-rule="nonzero"/><path fill="#000000" d="M 70.371094 55.6875 C 70.371094 55.640625 70.328125 55.597656 70.328125 55.554688 L 70.460938 55.554688 C 70.726562 55.554688 70.902344 55.375 70.902344 55.109375 C 70.902344 54.84375 70.726562 54.664062 70.460938 54.664062 L 69.929688 54.664062 L 69.621094 54 C 69.398438 53.554688 68.820312 53.199219 68.335938 53.199219 L 64.925781 53.199219 C 64.4375 53.199219 63.859375 53.554688 63.640625 54 L 63.328125 54.664062 L 62.796875 54.664062 C 62.53125 54.664062 62.355469 54.84375 62.355469 55.109375 C 62.355469 55.375 62.53125 55.554688 62.796875 55.554688 L 62.929688 55.554688 C 62.886719 55.597656 62.886719 55.640625 62.886719 55.6875 L 62.621094 56.265625 C 62.398438 56.707031 62.222656 57.464844 62.222656 57.953125 L 62.222656 59.328125 C 62.222656 59.375 62.222656 59.375 62.222656 59.417969 L 62.222656 60.527344 C 62.222656 60.882812 62.488281 61.148438 62.796875 61.148438 L 63.375 61.148438 C 63.683594 61.148438 63.949219 60.882812 63.949219 60.527344 L 63.949219 60.21875 L 69.265625 60.21875 L 69.265625 60.527344 C 69.265625 60.882812 69.53125 61.148438 69.839844 61.148438 L 70.417969 61.148438 C 70.726562 61.148438 70.992188 60.882812 70.992188 60.527344 L 70.992188 57.953125 C 70.992188 57.464844 70.816406 56.707031 70.59375 56.265625 Z M 70.152344 57.953125 L 70.152344 59.328125 L 63.0625 59.328125 L 63.0625 57.953125 C 63.0625 57.820312 63.0625 57.640625 63.109375 57.464844 L 70.105469 57.464844 C 70.152344 57.640625 70.152344 57.820312 70.152344 57.953125 Z M 63.550781 56.265625 L 69.664062 56.265625 L 69.839844 56.621094 L 63.375 56.621094 Z M 64.925781 54.085938 L 68.335938 54.085938 C 68.46875 54.085938 68.734375 54.265625 68.820312 54.398438 L 69.308594 55.375 L 63.992188 55.375 L 64.480469 54.398438 C 64.527344 54.265625 64.746094 54.085938 64.925781 54.085938 Z M 64.925781 54.085938 " fill-opacity="1" fill-rule="nonzero"/><path fill="#000000" d="M 64.570312 58.484375 C 64.570312 58.570312 64.539062 58.644531 64.480469 58.703125 C 64.417969 58.765625 64.34375 58.796875 64.257812 58.796875 C 64.175781 58.796875 64.101562 58.765625 64.039062 58.703125 C 63.980469 58.644531 63.949219 58.570312 63.949219 58.484375 C 63.949219 58.398438 63.980469 58.324219 64.039062 58.265625 C 64.101562 58.203125 64.175781 58.175781 64.257812 58.175781 C 64.34375 58.175781 64.417969 58.203125 64.480469 58.265625 C 64.539062 58.324219 64.570312 58.398438 64.570312 58.484375 Z M 64.570312 58.484375 " fill-opacity="1" fill-rule="nonzero"/><path fill="#000000" d="M 69.265625 58.484375 C 69.265625 58.570312 69.234375 58.644531 69.175781 58.703125 C 69.113281 58.765625 69.039062 58.796875 68.953125 58.796875 C 68.871094 58.796875 68.796875 58.765625 68.734375 58.703125 C 68.675781 58.644531 68.644531 58.570312 68.644531 58.484375 C 68.644531 58.398438 68.675781 58.324219 68.734375 58.265625 C 68.796875 58.203125 68.871094 58.175781 68.953125 58.175781 C 69.039062 58.175781 69.113281 58.203125 69.175781 58.265625 C 69.234375 58.324219 69.265625 58.398438 69.265625 58.484375 Z M 69.265625 58.484375 " fill-opacity="1" fill-rule="nonzero"/><path fill="#000000" d="M 66.03125 58.796875 L 67.226562 58.796875 C 67.492188 58.796875 67.671875 58.617188 67.671875 58.351562 C 67.671875 58.085938 67.492188 57.90625 67.226562 57.90625 L 66.03125 57.90625 C 65.765625 57.90625 65.589844 58.085938 65.589844 58.351562 C 65.589844 58.617188 65.765625 58.796875 66.03125 58.796875 Z M 66.03125 58.796875 " fill-opacity="1" fill-rule="nonzero"/><path fill="#000000" d="M 89.816406 67.414062 L 90.082031 67.414062 C 90.347656 67.414062 90.527344 67.234375 90.527344 66.96875 C 90.527344 66.703125 90.347656 66.523438 90.082031 66.523438 L 89.332031 66.523438 L 88.578125 65.101562 C 88.355469 64.660156 87.78125 64.304688 87.292969 64.304688 L 81.355469 64.304688 C 80.871094 64.304688 80.292969 64.660156 80.074219 65.101562 L 79.320312 66.523438 L 78.566406 66.523438 C 78.300781 66.523438 78.125 66.703125 78.125 66.96875 C 78.125 67.234375 78.300781 67.414062 78.566406 67.414062 L 78.832031 67.414062 L 78.078125 68.878906 C 77.859375 69.324219 77.679688 70.078125 77.679688 70.566406 L 77.679688 74.519531 C 77.679688 75.007812 78.078125 75.410156 78.566406 75.410156 L 79.453125 75.410156 C 79.941406 75.410156 80.339844 75.007812 80.339844 74.519531 L 80.339844 74.078125 L 88.3125 74.078125 L 88.3125 74.519531 C 88.3125 75.007812 88.710938 75.410156 89.199219 75.410156 L 90.082031 75.410156 C 90.570312 75.410156 90.96875 75.007812 90.96875 74.519531 L 90.96875 70.566406 C 90.96875 70.078125 90.792969 69.324219 90.570312 68.878906 Z M 79.363281 68.390625 L 89.332031 68.390625 L 89.730469 69.191406 L 78.921875 69.191406 Z M 80.824219 65.503906 C 80.914062 65.371094 81.179688 65.191406 81.3125 65.191406 L 87.292969 65.191406 C 87.46875 65.191406 87.734375 65.371094 87.78125 65.503906 L 88.796875 67.503906 L 79.808594 67.503906 Z M 79.453125 74.519531 L 78.566406 74.519531 L 78.566406 74.078125 L 79.453125 74.078125 Z M 90.082031 74.519531 L 89.199219 74.519531 L 89.199219 74.078125 L 90.082031 74.078125 Z M 88.3125 73.1875 L 78.566406 73.1875 L 78.566406 70.566406 C 78.566406 70.433594 78.566406 70.257812 78.609375 70.078125 L 89.996094 70.078125 C 90.039062 70.257812 90.039062 70.433594 90.039062 70.566406 L 90.039062 73.1875 Z M 88.3125 73.1875 " fill-opacity="1" fill-rule="nonzero"/><path fill="#000000" d="M 88.3125 71.632812 C 88.3125 71.753906 88.269531 71.859375 88.183594 71.945312 C 88.09375 72.035156 87.992188 72.078125 87.867188 72.078125 C 87.746094 72.078125 87.640625 72.035156 87.554688 71.945312 C 87.46875 71.859375 87.425781 71.753906 87.425781 71.632812 C 87.425781 71.511719 87.46875 71.40625 87.554688 71.320312 C 87.640625 71.230469 87.746094 71.1875 87.867188 71.1875 C 87.992188 71.1875 88.09375 71.230469 88.183594 71.320312 C 88.269531 71.40625 88.3125 71.511719 88.3125 71.632812 Z M 88.3125 71.632812 " fill-opacity="1" fill-rule="nonzero"/><path fill="#000000" d="M 81.222656 71.632812 C 81.222656 71.753906 81.179688 71.859375 81.09375 71.945312 C 81.007812 72.035156 80.902344 72.078125 80.78125 72.078125 C 80.660156 72.078125 80.554688 72.035156 80.46875 71.945312 C 80.382812 71.859375 80.339844 71.753906 80.339844 71.632812 C 80.339844 71.511719 80.382812 71.40625 80.46875 71.320312 C 80.554688 71.230469 80.660156 71.1875 80.78125 71.1875 C 80.902344 71.1875 81.007812 71.230469 81.09375 71.320312 C 81.179688 71.40625 81.222656 71.511719 81.222656 71.632812 Z M 81.222656 71.632812 " fill-opacity="1" fill-rule="nonzero"/><path fill="#000000" d="M 85.210938 71.054688 L 83.4375 71.054688 C 83.171875 71.054688 82.996094 71.234375 82.996094 71.5 C 82.996094 71.765625 83.171875 71.945312 83.4375 71.945312 L 85.210938 71.945312 C 85.476562 71.945312 85.652344 71.765625 85.652344 71.5 C 85.652344 71.234375 85.476562 71.054688 85.210938 71.054688 Z M 85.210938 71.054688 " fill-opacity="1" fill-rule="nonzero"/><path fill="#000000" d="M 83.882812 58.484375 C 83.882812 58.570312 83.851562 58.644531 83.792969 58.703125 C 83.730469 58.765625 83.65625 58.796875 83.570312 58.796875 C 83.488281 58.796875 83.414062 58.765625 83.351562 58.703125 C 83.292969 58.644531 83.261719 58.570312 83.261719 58.484375 C 83.261719 58.398438 83.292969 58.324219 83.351562 58.265625 C 83.414062 58.203125 83.488281 58.175781 83.570312 58.175781 C 83.65625 58.175781 83.730469 58.203125 83.792969 58.265625 C 83.851562 58.324219 83.882812 58.398438 83.882812 58.484375 Z M 83.882812 58.484375 " fill-opacity="1" fill-rule="nonzero"/><path fill="#000000" d="M 79.1875 58.484375 C 79.1875 58.570312 79.15625 58.644531 79.097656 58.703125 C 79.035156 58.765625 78.960938 58.796875 78.875 58.796875 C 78.792969 58.796875 78.71875 58.765625 78.65625 58.703125 C 78.597656 58.644531 78.566406 58.570312 78.566406 58.484375 C 78.566406 58.398438 78.597656 58.324219 78.65625 58.265625 C 78.71875 58.203125 78.792969 58.175781 78.875 58.175781 C 78.960938 58.175781 79.035156 58.203125 79.097656 58.265625 C 79.15625 58.324219 79.1875 58.398438 79.1875 58.484375 Z M 79.1875 58.484375 " fill-opacity="1" fill-rule="nonzero"/><path fill="#000000" d="M 81.800781 57.90625 L 80.605469 57.90625 C 80.339844 57.90625 80.160156 58.085938 80.160156 58.351562 C 80.160156 58.617188 80.339844 58.796875 80.605469 58.796875 L 81.800781 58.796875 C 82.066406 58.796875 82.242188 58.617188 82.242188 58.351562 C 82.242188 58.128906 82.066406 57.90625 81.800781 57.90625 Z M 81.800781 57.90625 " fill-opacity="1" fill-rule="nonzero"/><path fill="#000000" d="M 78.566406 60.574219 L 78.566406 60.261719 L 83.882812 60.261719 L 83.882812 60.574219 C 83.882812 60.929688 84.148438 61.195312 84.457031 61.195312 L 85.035156 61.195312 C 85.34375 61.195312 85.609375 60.929688 85.609375 60.574219 L 85.609375 59.460938 C 85.609375 59.417969 85.609375 59.417969 85.609375 59.375 L 85.609375 57.996094 C 85.609375 57.507812 85.433594 56.753906 85.210938 56.308594 L 84.945312 55.730469 C 84.945312 55.6875 84.902344 55.640625 84.902344 55.597656 L 85.035156 55.597656 C 85.300781 55.597656 85.476562 55.417969 85.476562 55.152344 C 85.476562 54.886719 85.300781 54.710938 85.035156 54.710938 L 84.503906 54.710938 L 84.191406 54.042969 C 83.972656 53.597656 83.394531 53.242188 82.90625 53.242188 L 79.496094 53.242188 C 79.007812 53.242188 78.433594 53.597656 78.210938 54.042969 L 77.902344 54.710938 L 77.371094 54.710938 C 77.105469 54.710938 76.929688 54.886719 76.929688 55.152344 C 76.929688 55.417969 77.105469 55.597656 77.371094 55.597656 L 77.503906 55.597656 C 77.460938 55.640625 77.460938 55.6875 77.460938 55.730469 L 77.195312 56.308594 C 76.972656 56.753906 76.796875 57.507812 76.796875 57.996094 L 76.796875 60.574219 C 76.796875 60.929688 77.0625 61.195312 77.371094 61.195312 L 77.945312 61.195312 C 78.300781 61.195312 78.566406 60.929688 78.566406 60.574219 Z M 77.679688 57.953125 C 77.679688 57.820312 77.679688 57.640625 77.726562 57.464844 L 84.722656 57.464844 C 84.769531 57.640625 84.769531 57.820312 84.769531 57.953125 L 84.769531 59.328125 L 77.679688 59.328125 Z M 78.167969 56.265625 L 84.28125 56.265625 L 84.457031 56.621094 L 77.992188 56.621094 Z M 79.542969 54.085938 L 82.953125 54.085938 C 83.085938 54.085938 83.351562 54.265625 83.4375 54.398438 L 83.925781 55.375 L 78.566406 55.375 L 79.054688 54.398438 C 79.144531 54.265625 79.363281 54.085938 79.542969 54.085938 Z M 79.542969 54.085938 " fill-opacity="1" fill-rule="nonzero"/></svg>